<svg width="55" height="41" viewBox="0 0 55 41" fill="none" xmlns="http://www.w3.org/2000/svg">
<path d="M41.2535 15.9445H38.3668C37.5096 12.644 35.7384 9.64869 33.2545 7.29895C30.7706 4.94922 27.6736 3.33926 24.3153 2.65202C20.957 1.96478 17.4722 2.22781 14.2568 3.41124C11.0414 4.59466 8.2243 6.65102 6.12568 9.34665C4.02707 12.0423 2.73106 15.2691 2.38491 18.6604C2.03877 22.0517 2.65637 25.4716 4.16754 28.5314C5.67871 31.5912 8.02286 34.1683 10.9336 35.9697C13.8444 37.7712 17.205 38.7248 20.6337 38.7223H41.2535C44.2917 38.7223 47.2055 37.5224 49.3538 35.3865C51.5021 33.2507 52.709 30.3539 52.709 27.3334C52.709 24.3129 51.5021 21.4161 49.3538 19.2802C47.2055 17.1444 44.2917 15.9445 41.2535 15.9445Z" stroke="#0B588A" stroke-width="3" stroke-linecap="round" stroke-linejoin="round"/>
</svg>
