<svg width="68" height="32" viewBox="0 0 68 32" fill="none" xmlns="http://www.w3.org/2000/svg">
<g clip-path="url(#clip0_124:281)">
<path d="M37.8275 31.9983H37.8057C37.5595 31.9944 37.3181 31.9293 37.103 31.8089C36.8879 31.6886 36.7058 31.5167 36.573 31.3086L28.6423 18.8499L26.1388 23.67C26.013 23.9122 25.8234 24.1152 25.5907 24.2568C25.3579 24.3984 25.091 24.4734 24.8188 24.4734C24.5465 24.4732 24.2794 24.3981 24.0467 24.2562C23.814 24.1143 23.6245 23.911 23.4988 23.6685L15.2669 7.77533L2.6904 24.9385C2.45647 25.2578 2.10575 25.4707 1.7154 25.5304C1.32506 25.5902 0.927053 25.4918 0.608955 25.257C0.290857 25.0222 0.0787241 24.6702 0.0192113 24.2784C-0.0403014 23.8867 0.0576831 23.4872 0.291617 23.168L14.2853 4.07087C14.4352 3.8663 14.6345 3.70346 14.8645 3.59768C15.0945 3.49191 15.3476 3.44669 15.5998 3.46633C15.852 3.48597 16.0951 3.56981 16.3061 3.70991C16.5171 3.85002 16.689 4.04177 16.8057 4.26709L24.8228 19.7414L27.1938 15.1763C27.3145 14.944 27.494 14.7476 27.7142 14.6069C27.9344 14.4662 28.1876 14.386 28.4484 14.3745C28.7092 14.363 28.9684 14.4206 29.2001 14.5414C29.4317 14.6622 29.6277 14.842 29.7682 15.0628L37.8707 27.7933L50.8312 8.71814C50.9882 8.48721 51.2065 8.30511 51.4614 8.19252C51.7163 8.07992 51.9976 8.04136 52.2733 8.0812C52.5489 8.12104 52.8079 8.23771 53.0208 8.41792C53.2337 8.59813 53.392 8.83466 53.4776 9.10064L55.2919 14.7325L65.3018 0.623873C65.5309 0.301111 65.8783 0.0829053 66.2677 0.0172438C66.6571 -0.0484177 67.0565 0.0438422 67.3781 0.273745C67.6997 0.503648 67.9171 0.852355 67.9825 1.24315C68.0479 1.63394 67.956 2.03482 67.7269 2.35758L55.9995 18.8868C55.8395 19.1126 55.6201 19.2893 55.3658 19.3972C55.1115 19.5051 54.8323 19.5399 54.5594 19.4977C54.2865 19.4555 54.0307 19.3379 53.8206 19.1581C53.6105 18.9784 53.4543 18.7436 53.3695 18.4798L51.5781 12.9212L39.0592 31.3444C38.9226 31.546 38.739 31.7109 38.5243 31.8249C38.3096 31.9389 38.0704 31.9984 37.8275 31.9983Z" fill="#1A6291"/>
<path d="M34.3167 7.45277L37.9442 1.71824C37.9723 1.67381 38.0112 1.63722 38.0572 1.61188C38.1031 1.58653 38.1547 1.57324 38.2072 1.57324C38.2596 1.57324 38.3113 1.58653 38.3572 1.61188C38.4032 1.63722 38.442 1.67381 38.4702 1.71824L42.0961 7.45326C42.126 7.50054 42.1426 7.555 42.1444 7.61093C42.1461 7.66687 42.1328 7.72224 42.106 7.77129C42.0791 7.82033 42.0396 7.86124 41.9916 7.88975C41.9436 7.91826 41.8889 7.93332 41.8331 7.93337H34.5797C34.5239 7.93338 34.4691 7.91834 34.421 7.88981C34.373 7.86127 34.3334 7.82029 34.3066 7.77116C34.2797 7.72204 34.2664 7.66658 34.2682 7.61057C34.27 7.55456 34.2868 7.50006 34.3167 7.45277Z" fill="#1A6291"/>
<path d="M42.0947 11.404L38.4687 17.1385C38.4406 17.1829 38.4017 17.2195 38.3557 17.2448C38.3098 17.2702 38.2582 17.2835 38.2057 17.2835C38.1532 17.2835 38.1016 17.2702 38.0557 17.2448C38.0097 17.2195 37.9708 17.1829 37.9427 17.1385L34.3167 11.404C34.2868 11.3567 34.27 11.3022 34.2682 11.2461C34.2664 11.1901 34.2797 11.1347 34.3066 11.0855C34.3334 11.0364 34.373 10.9955 34.421 10.9669C34.4691 10.9384 34.5239 10.9233 34.5797 10.9233H41.8317C41.8875 10.9233 41.9423 10.9384 41.9904 10.9669C42.0384 10.9955 42.078 11.0364 42.1048 11.0855C42.1317 11.1347 42.145 11.1901 42.1432 11.2461C42.1414 11.3022 42.1246 11.3567 42.0947 11.404Z" fill="#1A6291"/>
</g>
<defs>
<clipPath id="clip0_124:281">
<rect width="68" height="32" fill="white"/>
</clipPath>
</defs>
</svg>
