<svg width="107" height="63" viewBox="0 0 107 63" fill="none" xmlns="http://www.w3.org/2000/svg">
<g clip-path="url(#clip0_130:643)">
<path d="M70.5274 5.98024C74.9842 6.64825 90.4181 9.14436 96.986 12.5808V14.0664L98.274 14.3448L100.192 14.7596L101.414 18.4569L101.516 18.7682L101.73 19.0159L103.392 20.9448L104.363 35.1055L104.354 35.9768L105.139 36.3966C105.238 36.4695 105.371 36.6158 105.371 36.6963V43.2723C105.275 43.3057 105.177 43.3364 105.09 43.3588L103.41 43.7824L103.931 45.4489C104.621 47.8743 104.982 50.3828 105.005 52.906C105.029 54.1273 104.948 55.3485 104.762 56.5556L96.2036 57.2499L96.0999 55.4673H97.2782L97.3129 53.8589C97.3178 53.6397 97.3933 48.4338 94.2874 45.2291C93.4947 44.4239 92.5458 43.7925 91.5 43.3746C90.4543 42.9567 89.3343 42.7612 88.2103 42.8004H71.9332V45.8588H66.8291C66.8807 42.8525 67.0343 36.1451 67.4595 28.9565C68.2783 15.0999 69.5082 8.81008 70.5268 5.98024H70.5274ZM69.5207 4.17188C65.4797 12.2274 65.1768 47.5011 65.1768 47.5011H73.5616V44.4444H88.2103C95.8881 44.4444 95.6861 53.8239 95.6861 53.8239H94.3727L94.6756 59.0238L105.99 58.1059C105.99 58.1059 106.634 57.1885 106.634 52.9065C106.612 50.2152 106.225 47.5397 105.485 44.954C105.485 44.954 107 44.5704 107 44.0367V36.6936C106.978 36.3488 106.874 36.0144 106.698 35.7181C106.522 35.4217 106.279 35.1719 105.988 34.9894L104.98 20.279L102.959 17.9342L101.444 13.3464L98.6156 12.7348V11.6142C91.2412 7.12829 69.5218 4.17188 69.5218 4.17188H69.5207Z" fill="#2654A5"/>
<path d="M73.8246 41.2426C73.7028 41.2428 73.5846 41.2015 73.489 41.1253C73.3935 41.0491 73.3263 40.9425 73.2984 40.8229C73.2826 40.7544 72.9053 38.9833 72.9053 25.8281C72.9053 12.6922 73.6025 8.14826 73.6323 7.96085C73.6436 7.88862 73.6692 7.81942 73.7075 7.75737C73.7459 7.69533 73.7962 7.6417 73.8555 7.5997C73.9148 7.55796 73.9817 7.52845 74.0523 7.51284C74.1229 7.49723 74.1959 7.49584 74.2671 7.50875C74.8894 7.62547 89.5516 10.3846 93.8266 11.8088C93.95 11.85 94.0547 11.9344 94.1216 12.0469C94.1886 12.1593 94.2134 12.2922 94.1915 12.4215C94.1642 12.5483 94.0955 12.6622 93.9963 12.7448C93.8971 12.8274 93.7733 12.8739 93.6447 12.8769L79.6117 12.5716C79.5404 12.5701 79.4701 12.5544 79.4048 12.5254C79.3395 12.4965 79.2805 12.4548 79.2312 12.4028C79.1819 12.3508 79.1431 12.2896 79.1173 12.2225C79.0914 12.1554 79.0789 12.0838 79.0804 12.0119C79.0819 11.9399 79.0975 11.869 79.1262 11.8031C79.1549 11.7372 79.1962 11.6776 79.2477 11.6278C79.2992 11.578 79.3599 11.539 79.4264 11.5129C79.4928 11.4868 79.5638 11.4741 79.6351 11.4757L89.0635 11.6806C83.9051 10.475 76.6872 9.08477 74.6331 8.6935C74.4522 10.2646 73.9912 15.3067 73.9912 25.8281C73.9912 38.6172 74.3431 40.5072 74.3578 40.5812C74.3864 40.7226 74.359 40.8696 74.2815 40.9908C74.2039 41.112 74.0824 41.1977 73.9429 41.2295C73.9041 41.2382 73.8644 41.2426 73.8246 41.2426Z" fill="#2654A5"/>
<path d="M100.78 32.075C100.739 32.0749 100.698 32.0724 100.657 32.0673V32.0673L88.6993 30.6842C88.2836 30.6378 87.8984 30.4417 87.6144 30.1317C87.3304 29.8218 87.1668 29.4189 87.1535 28.9969L86.882 21.4094C86.8736 21.1728 86.9125 20.9369 86.9964 20.7158C87.0803 20.4947 87.2075 20.2929 87.3704 20.1225C87.5333 19.9521 87.7285 19.8166 87.9444 19.724C88.1603 19.6313 88.3925 19.5836 88.6271 19.5835H99.2599C99.6965 19.5819 100.118 19.7463 100.44 20.0439C100.762 20.3416 100.961 20.7506 100.997 21.1897L101.852 30.8946C101.865 31.0448 101.848 31.196 101.8 31.3389C101.752 31.4817 101.675 31.6129 101.574 31.7241C101.474 31.8354 101.351 31.9243 101.214 31.9852C101.078 32.0461 100.93 32.0776 100.781 32.0777L100.78 32.075ZM88.6244 20.6768C88.5357 20.6767 88.4479 20.6947 88.3662 20.7297C88.2845 20.7647 88.2106 20.8159 88.1491 20.8804C88.0875 20.9449 88.0394 21.0212 88.0077 21.1049C87.976 21.1885 87.9614 21.2777 87.9647 21.3672L88.2362 28.9547C88.2411 29.1143 88.3029 29.2667 88.4102 29.384C88.5176 29.5013 88.6632 29.5755 88.8204 29.5931L100.772 30.9779L99.9147 21.2845C99.901 21.1183 99.8256 20.9634 99.7038 20.8508C99.5819 20.7382 99.4224 20.676 99.2572 20.6768H88.6244Z" fill="#A1C2E6"/>
<path d="M91.7865 39.8564H89.1606C88.7995 39.8564 88.5068 40.1518 88.5068 40.5162V40.879C88.5068 41.2434 88.7995 41.5388 89.1606 41.5388H91.7865C92.1475 41.5388 92.4402 41.2434 92.4402 40.879V40.5162C92.4402 40.1518 92.1475 39.8564 91.7865 39.8564Z" fill="#2654A5"/>
<path d="M102.234 49.5674H103.592V51.8613H102.234C102.045 51.8613 101.863 51.7853 101.729 51.6501C101.595 51.5148 101.52 51.3314 101.52 51.1401V50.2885C101.52 50.1938 101.538 50.1001 101.574 50.0126C101.61 49.9251 101.662 49.8456 101.729 49.7786C101.795 49.7116 101.874 49.6585 101.961 49.6223C102.047 49.586 102.14 49.5674 102.234 49.5674V49.5674Z" fill="#A1C2E6"/>
<path d="M84.8901 48.7006C86.1302 48.7006 87.3424 49.0717 88.3735 49.767C89.4045 50.4623 90.2082 51.4506 90.6827 52.6068C91.1573 53.763 91.2814 55.0353 91.0395 56.2628C90.7976 57.4902 90.2004 58.6177 89.3236 59.5026C88.4467 60.3876 87.3295 60.9902 86.1133 61.2344C84.8971 61.4785 83.6364 61.3532 82.4907 60.8743C81.3451 60.3954 80.3658 59.5843 79.6769 58.5438C78.988 57.5032 78.6202 56.2798 78.6202 55.0283C78.6219 53.3506 79.2831 51.7422 80.4585 50.5559C81.634 49.3696 83.2277 48.7024 84.8901 48.7006ZM84.8901 47.0566C83.3278 47.0565 81.8006 47.524 80.5016 48.3998C79.2026 49.2757 78.1901 50.5207 77.5921 51.9773C76.9942 53.4339 76.8377 55.0368 77.1424 56.5832C77.4472 58.1295 78.1994 59.55 79.304 60.6649C80.4087 61.7798 81.8161 62.5391 83.3484 62.8467C84.8806 63.1544 86.4688 62.9965 87.9122 62.3932C89.3555 61.7898 90.5892 60.7681 91.4572 59.4572C92.3251 58.1462 92.7884 56.605 92.7884 55.0283C92.7884 52.9142 91.9563 50.8866 90.4751 49.3917C88.9939 47.8967 86.9849 47.0568 84.8901 47.0566V47.0566Z" fill="#2654A5"/>
<path d="M84.8899 51.5481C85.572 51.5481 86.2387 51.7523 86.8058 52.1347C87.3729 52.5171 87.815 53.0606 88.076 53.6966C88.337 54.3325 88.4053 55.0323 88.2722 55.7074C88.1391 56.3825 87.8107 57.0027 87.3284 57.4894C86.8461 57.9761 86.2317 58.3076 85.5627 58.4419C84.8938 58.5762 84.2004 58.5072 83.5703 58.2438C82.9401 57.9804 82.4016 57.5343 82.0226 56.962C81.6437 56.3897 81.4414 55.7168 81.4414 55.0284C81.4425 54.1057 81.8061 53.2211 82.4526 52.5686C83.0991 51.9162 83.9757 51.5491 84.8899 51.5481ZM84.8899 50.4521C83.9931 50.4521 83.1164 50.7205 82.3707 51.2234C81.625 51.7262 81.0438 52.441 80.7006 53.2772C80.3574 54.1134 80.2676 55.0335 80.4426 55.9212C80.6176 56.8089 81.0494 57.6244 81.6836 58.2644C82.3178 58.9044 83.1257 59.3402 84.0053 59.5168C84.8849 59.6934 85.7967 59.6027 86.6252 59.2564C87.4538 58.91 88.162 58.3235 88.6602 57.5709C89.1585 56.8183 89.4244 55.9335 89.4244 55.0284C89.4244 53.8147 88.9467 52.6507 88.0963 51.7925C87.2459 50.9343 86.0926 50.4521 84.8899 50.4521V50.4521Z" fill="#2654A5"/>
<path d="M30.0365 48.7006C31.2766 48.7005 32.4889 49.0715 33.52 49.7668C34.5512 50.462 35.3549 51.4502 35.8295 52.6064C36.3042 53.7626 36.4284 55.0349 36.1865 56.2624C35.9447 57.4899 35.3476 58.6174 34.4707 59.5024C33.5939 60.3874 32.4767 60.9901 31.2605 61.2343C30.0442 61.4785 28.7835 61.3533 27.6378 60.8743C26.4921 60.3954 25.5129 59.5844 24.8239 58.5438C24.1349 57.5032 23.7672 56.2798 23.7672 55.0283C23.7691 53.3508 24.4302 51.7425 25.6055 50.5562C26.7808 49.37 28.3743 48.7026 30.0365 48.7006V48.7006ZM30.0365 47.0566C28.4743 47.0566 26.9471 47.5242 25.6482 48.4001C24.3492 49.276 23.3368 50.521 22.739 51.9777C22.1411 53.4343 21.9847 55.0371 22.2895 56.5835C22.5942 58.1298 23.3465 59.5502 24.4512 60.6651C25.5559 61.78 26.9633 62.5392 28.4955 62.8468C30.0278 63.1544 31.616 62.9965 33.0593 62.3931C34.5026 61.7898 35.7362 60.768 36.6042 59.4571C37.4721 58.1462 37.9354 56.6049 37.9354 55.0283C37.9354 52.9141 37.1032 50.8865 35.6219 49.3915C34.1405 47.8965 32.1314 47.0566 30.0365 47.0566Z" fill="#2654A5"/>
<path d="M30.0364 51.5481C30.7185 51.548 31.3853 51.7521 31.9525 52.1344C32.5197 52.5168 32.9617 53.0603 33.2228 53.6962C33.4839 54.3321 33.5523 55.0319 33.4193 55.7071C33.2863 56.3822 32.9579 57.0024 32.4756 57.4892C31.9934 57.976 31.3789 58.3075 30.71 58.4418C30.041 58.5762 29.3476 58.5073 28.7174 58.2439C28.0873 57.9805 27.5486 57.5344 27.1697 56.9621C26.7907 56.3897 26.5885 55.7168 26.5885 55.0284C26.5895 54.1058 26.9531 53.2213 27.5994 52.5688C28.2458 51.9164 29.1222 51.5493 30.0364 51.5481V51.5481ZM30.0364 50.4521C29.1396 50.4521 28.2629 50.7205 27.5172 51.2234C26.7715 51.7262 26.1903 52.441 25.8471 53.2772C25.5039 54.1134 25.4141 55.0335 25.5891 55.9212C25.764 56.8089 26.1959 57.6244 26.8301 58.2644C27.4642 58.9044 28.2722 59.3402 29.1518 59.5168C30.0314 59.6934 30.9431 59.6027 31.7717 59.2564C32.6003 58.91 33.3085 58.3235 33.8067 57.5709C34.305 56.8183 34.5709 55.9335 34.5709 55.0284C34.571 54.4275 34.4538 53.8323 34.2259 53.2771C33.9981 52.7218 33.6641 52.2173 33.243 51.7924C32.8219 51.3674 32.322 51.0303 31.7718 50.8004C31.2216 50.5704 30.6319 50.4521 30.0364 50.4521V50.4521Z" fill="#2654A5"/>
<path d="M30.0364 53.255C30.3839 53.255 30.7237 53.359 31.0126 53.5539C31.3016 53.7487 31.5268 54.0257 31.6598 54.3497C31.7928 54.6737 31.8276 55.0303 31.7598 55.3743C31.692 55.7183 31.5246 56.0342 31.2789 56.2822C31.0331 56.5302 30.7201 56.6991 30.3792 56.7676C30.0384 56.836 29.6851 56.8008 29.364 56.6666C29.0429 56.5324 28.7685 56.3051 28.5754 56.0135C28.3824 55.7219 28.2793 55.379 28.2793 55.0283C28.2797 54.5581 28.465 54.1074 28.7944 53.7749C29.1239 53.4424 29.5705 53.2555 30.0364 53.255ZM30.0364 52.707C29.5815 52.707 29.1368 52.8432 28.7586 53.0982C28.3803 53.3533 28.0855 53.7158 27.9114 54.14C27.7373 54.5642 27.6918 55.0309 27.7805 55.4812C27.8693 55.9315 28.0883 56.3451 28.41 56.6697C28.7317 56.9944 29.1415 57.2154 29.5877 57.305C30.0339 57.3946 30.4963 57.3486 30.9166 57.1729C31.3369 56.9972 31.6961 56.6997 31.9489 56.318C32.2016 55.9362 32.3365 55.4874 32.3365 55.0283C32.3365 54.4127 32.0942 53.8222 31.6628 53.3869C31.2315 52.9516 30.6464 52.707 30.0364 52.707V52.707Z" fill="#A1C2E6"/>
<path d="M84.8899 53.255C85.2375 53.255 85.5772 53.359 85.8661 53.5539C86.1551 53.7487 86.3803 54.0257 86.5133 54.3497C86.6463 54.6737 86.6811 55.0303 86.6133 55.3743C86.5455 55.7183 86.3781 56.0342 86.1324 56.2822C85.8867 56.5302 85.5736 56.6991 85.2327 56.7676C84.8919 56.836 84.5386 56.8008 84.2175 56.6666C83.8965 56.5324 83.622 56.3051 83.429 56.0135C83.2359 55.7219 83.1328 55.379 83.1328 55.0283C83.1334 54.5582 83.3187 54.1075 83.6481 53.775C83.9775 53.4426 84.4241 53.2556 84.8899 53.255V53.255ZM84.8899 52.707C84.435 52.707 83.9903 52.8432 83.6121 53.0982C83.2338 53.3533 82.939 53.7158 82.7649 54.14C82.5908 54.5642 82.5453 55.0309 82.634 55.4812C82.7228 55.9315 82.9419 56.3451 83.2635 56.6697C83.5852 56.9944 83.995 57.2154 84.4412 57.305C84.8874 57.3946 85.3499 57.3486 85.7702 57.1729C86.1904 56.9972 86.5497 56.6997 86.8024 56.318C87.0551 55.9362 87.19 55.4874 87.19 55.0283C87.1901 54.7235 87.1307 54.4216 87.0151 54.1399C86.8995 53.8582 86.7301 53.6023 86.5165 53.3868C86.3029 53.1712 86.0493 53.0002 85.7702 52.8836C85.4911 52.7669 85.192 52.707 84.8899 52.707V52.707Z" fill="#A1C2E6"/>
<path d="M18.3726 44.0157H59.0836V0.888672H37.7751C37.7751 0.888672 40.4673 8.39617 29.0949 23.6172C17.7226 38.8383 18.3726 44.0157 18.3726 44.0157Z" fill="#A1C2E6"/>
<path d="M60.3221 44.7676H0.814481C0.598467 44.7676 0.3913 44.681 0.238555 44.5269C0.0858105 44.3727 0 44.1636 0 43.9456C0 43.7276 0.0858105 43.5185 0.238555 43.3644C0.3913 43.2102 0.598467 43.1236 0.814481 43.1236H58.6931V1.64056H17.3316C17.1156 1.64056 16.9084 1.55396 16.7557 1.39981C16.6029 1.24566 16.5171 1.03658 16.5171 0.818571C16.5171 0.600566 16.6029 0.391485 16.7557 0.237332C16.9084 0.0831794 17.1156 -0.00341797 17.3316 -0.00341797H60.3221V44.7676Z" fill="#2654A5"/>
<path d="M40.1213 48.7456H73.06C73.4796 48.7456 73.8821 48.9138 74.1788 49.2133C74.4755 49.5128 74.6422 49.9189 74.6422 50.3425V58.8303C74.6422 59.0399 74.6013 59.2475 74.5218 59.4412C74.4424 59.6349 74.3258 59.8108 74.179 59.9591C74.0321 60.1073 73.8577 60.2249 73.6658 60.3051C73.4739 60.3853 73.2682 60.4266 73.0605 60.4266H40.1213C39.7018 60.4266 39.2995 60.2584 39.0028 59.9591C38.7062 59.6597 38.5396 59.2537 38.5396 58.8303V50.3419C38.5396 49.9185 38.7062 49.5125 39.0028 49.2132C39.2995 48.9138 39.7018 48.7456 40.1213 48.7456V48.7456Z" fill="#2654A5"/>
<path d="M54.4835 58.4962H42.5133C42.116 58.4959 41.7351 58.3365 41.4541 58.0531C41.1731 57.7696 41.0151 57.3852 41.0146 56.9843V50.9498C41.0146 50.8771 41.0433 50.8074 41.0942 50.756C41.1451 50.7046 41.2141 50.6758 41.2861 50.6758C41.3581 50.6758 41.4272 50.7046 41.4781 50.756C41.529 50.8074 41.5576 50.8771 41.5576 50.9498V56.9843C41.5579 57.2399 41.6587 57.485 41.8379 57.6657C42.0171 57.8465 42.26 57.948 42.5133 57.9482H54.4835C54.5555 57.9482 54.6245 57.977 54.6754 58.0284C54.7263 58.0798 54.7549 58.1495 54.7549 58.2222C54.7549 58.2949 54.7263 58.3645 54.6754 58.4159C54.6245 58.4673 54.5555 58.4962 54.4835 58.4962Z" fill="#A1C2E6"/>
<path d="M5.94142 40.4879H54.2293C54.3013 40.4879 54.3703 40.4591 54.4213 40.4077C54.4722 40.3563 54.5008 40.2866 54.5008 40.2139C54.5008 40.1413 54.4722 40.0716 54.4213 40.0202C54.3703 39.9688 54.3013 39.9399 54.2293 39.9399H5.94142C5.86941 39.9399 5.80036 39.9688 5.74944 40.0202C5.69853 40.0716 5.66992 40.1413 5.66992 40.2139C5.66992 40.2866 5.69853 40.3563 5.74944 40.4077C5.80036 40.4591 5.86941 40.4879 5.94142 40.4879Z" fill="white"/>
<path d="M5.94142 37.2633H43.3695C43.4415 37.2633 43.5106 37.2345 43.5615 37.1831C43.6124 37.1317 43.641 37.062 43.641 36.9893C43.641 36.9167 43.6124 36.847 43.5615 36.7956C43.5106 36.7442 43.4415 36.7153 43.3695 36.7153H5.94142C5.86941 36.7153 5.80036 36.7442 5.74944 36.7956C5.69853 36.847 5.66992 36.9167 5.66992 36.9893C5.66992 37.062 5.69853 37.1317 5.74944 37.1831C5.80036 37.2345 5.86941 37.2633 5.94142 37.2633Z" fill="white"/>
<path d="M5.94142 33.6056H32.5098C32.5818 33.6056 32.6508 33.5768 32.7018 33.5254C32.7527 33.474 32.7813 33.4043 32.7813 33.3316C32.7813 33.2589 32.7527 33.1893 32.7018 33.1379C32.6508 33.0865 32.5818 33.0576 32.5098 33.0576H5.94142C5.86941 33.0576 5.80036 33.0865 5.74944 33.1379C5.69853 33.1893 5.66992 33.2589 5.66992 33.3316C5.66992 33.4043 5.69853 33.474 5.74944 33.5254C5.80036 33.5768 5.86941 33.6056 5.94142 33.6056Z" fill="white"/>
</g>
<defs>
<clipPath id="clip0_130:643">
<rect width="107" height="63" fill="white"/>
</clipPath>
</defs>
</svg>
