<svg width="1em" height="1em" stroke="#0B588A" fill="none" viewBox="0 0 24 24" version="1.1" xmlns="http://www.w3.org/2000/svg" xmlns:xlink="http://www.w3.org/1999/xlink">
    <g stroke-width="1" fill-rule="evenodd" stroke-linecap="round" stroke-linejoin="round">
        <g transform="translate(2.000000, 2.000000)">
            <g stroke-width="2">
                <rect transform="translate(4.000000, 10.000000) scale(-1, 1) translate(-4.000000, -10.000000) " x="0" y="0" width="8" height="20"></rect>
                <path d="M4,1 L4,7" transform="translate(4.000000, 4.000000) rotate(-90.000000) translate(-4.000000, -4.000000) "></path>
                <path d="M4,5 L4,11" transform="translate(4.000000, 8.000000) rotate(-90.000000) translate(-4.000000, -8.000000) "></path>
                <path d="M4,9 L4,15" transform="translate(4.000000, 12.000000) rotate(-90.000000) translate(-4.000000, -12.000000) "></path>
                <path d="M4,13 L4,19" transform="translate(4.000000, 16.000000) rotate(-90.000000) translate(-4.000000, -16.000000) "></path>
                <path d="M4,1 L4,19"></path>
            </g>
            <rect stroke-width="2" x="8" y="6" width="12" height="14"></rect>
            <path d="M18,6 L18,4" stroke-width="2"></path>
            <polygon stroke-width="2" points="12 20 12 14 16 14 16 20"></polygon>
            <polygon points="15.5 10.5 15.5 9.5 16.5 9.5 16.5 10.5"></polygon>
            <polygon points="11.5 10.5 11.5 9.5 12.5 9.5 12.5 10.5"></polygon>
        </g>
    </g>
</svg>
