<svg width="1em" height="1em" stroke="#0B588A" fill="none" viewBox="0 0 24 24" version="1.1" xmlns="http://www.w3.org/2000/svg" xmlns:xlink="http://www.w3.org/1999/xlink">
    <g stroke-width="1" fill-rule="evenodd" stroke-linecap="round" stroke-linejoin="round">
        <g transform="translate(1.500000, 3.000000)" stroke-width="2">
            <g >
                <path d="M16,18 L2,18 C0.8954305,18 0,17.1045695 0,16 L0,2 C0,0.8954305 0.8954305,0 2,0 L13,0 L14,0.996687978"></path>
                <path d="M18,18 C16.8954305,18 16,17.1045695 16,16 L16,12" transform="translate(17.000000, 15.000000) scale(-1, 1) translate(-17.000000, -15.000000) "></path>
                <polyline points="14 18 14 10 4 10 4 18"></polyline>
                <polyline points="4 0 4 5 11 5"></polyline>
            </g>
            <g transform="translate(15.000000, 2.000000)">
                <path d="M3,0 L3,6" ></path>
                <path d="M0,3 L6,3" ></path>
            </g>
        </g>
    </g>
</svg>
