<svg width="1em" height="1em" stroke="#0B588A" fill="none" viewBox="0 0 24 24" version="1.1" xmlns="http://www.w3.org/2000/svg" xmlns:xlink="http://www.w3.org/1999/xlink">
    <g stroke-width="1" fill-rule="evenodd" stroke-linecap="round" stroke-linejoin="round">
        <g transform="translate(4.000000, 2.000000)" stroke-width="2">
            <g transform="translate(8.500000, 11.000000) scale(-1, 1) translate(-8.500000, -11.000000) translate(3.000000, 6.000000)">
                <g transform="translate(0.916667, 0.166667)">
                    <path d="M5.08333333,8.83333333 L5.08333333,3.83333333" ></path>
                    <path d="M9.08333333,8.83333333 L9.08333333,0.833333333" ></path>
                    <path d="M1.08333333,8.83333333 L1.08333333,6.83333333" ></path>
                </g>
            </g>
            <path d="M10,0 L2,0 C0.8954305,0 0,0.8954305 0,2 L0,18 C0,19.1045695 0.8954305,20 2,20 L14,20 C15.1045695,20 16,19.1045695 16,18 L16,6 L10,0 Z" ></path>
            <polyline  points="10 0 10 6 16 6"></polyline>
        </g>
    </g>
</svg>
