<svg width="1em" height="1em" stroke="#0B588A" fill="none" viewBox="0 0 24 24" version="1.1" xmlns="http://www.w3.org/2000/svg" xmlns:xlink="http://www.w3.org/1999/xlink">
    <g stroke-width="1" fill-rule="evenodd">
        <path d="M17.8628862,18.5520499 C16.5354575,19.2062513 14.9475191,18.380816 14.3064896,17.2143765 C13.9889019,16.6377427 13.7459547,15.9352446 13.5864291,15.1288353 C13.6859496,15.0776115 13.7883973,15.0351689 13.8820637,14.9737003 C13.8952355,14.9795545 13.9230427,14.9912628 13.9303604,14.9941899 C14.6006607,15.2868974 15.2973046,15.3600743 15.7597825,15.3922721 C16.1300576,15.4156887 16.5296033,15.3937356 16.9306127,15.367392 C17.6009129,15.3249494 18.2331612,15.2839703 18.5902644,15.54448 C19.0132268,15.8532865 19.2064137,16.2616135 19.1654347,16.7533621 C19.1039661,17.466105 18.5668478,18.2051915 17.8628862,18.5520499 M13.0288212,13.3038038 C12.6600097,13.5994385 12.2180214,13.7384745 11.7672518,13.7062767 C11.3413623,13.6755424 10.9227905,13.5189439 10.5978852,13.1940385 C10.5891039,13.1852573 10.5861769,13.1750125 10.5773956,13.1662313 C10.1793134,12.7505866 10.0358867,12.2002964 10.104673,11.6675687 C10.1251625,11.505116 10.1412614,11.3426634 10.2041935,11.1904554 C10.2934693,10.9753154 10.4222606,10.7718837 10.5978852,10.5962591 C11.0632901,10.1308542 11.7131009,10.0005993 12.3116878,10.1396354 C12.6336661,10.2157394 12.9453996,10.3474577 13.1956645,10.5962591 C13.2776226,10.6811443 13.3186017,10.7850555 13.3815338,10.8787219 C13.6566789,11.2826583 13.7518088,11.7495268 13.6713143,12.2120047 C13.6083821,12.5705715 13.4708096,12.9174299 13.1956645,13.1940385 C13.1459042,13.2437988 13.0815086,13.2613613 13.0288212,13.3038038 M8.455266,18.5901019 C8.14499601,19.0130643 7.73959608,19.2077148 7.24638388,19.1652722 C6.53510457,19.1038036 5.79455451,18.5710759 5.44769608,17.8627237 C4.79203121,16.535295 5.61014877,14.9517473 6.78683305,14.3048636 C7.3210243,14.009229 7.95473612,13.794089 8.68796849,13.6345634 C8.7699266,13.7838442 8.8592024,13.930198 8.96311357,14.069234 C8.72162986,14.6927011 8.63674467,15.3278764 8.60747392,15.7610836 C8.58259378,16.1313586 8.60601038,16.5279773 8.63089052,16.9304502 C8.67479665,17.6007505 8.71577571,18.2329987 8.455266,18.5901019 M8.24012596,8.60731145 C7.86838739,8.58243131 7.47030515,8.60584791 7.07075936,8.63072805 C6.40045911,8.67317065 5.7667473,8.71561324 5.4096441,8.45364 C4.98521818,8.14776062 4.79203121,7.73943361 4.83593734,7.24475788 C4.89594238,6.53347857 5.43159717,5.79439204 6.13702233,5.44607008 C7.19076945,4.9265142 8.40696926,5.33630475 9.18703484,6.11637033 C9.38900304,6.31833853 9.56023694,6.54372333 9.69341887,6.78520705 C9.97149103,7.28866401 10.1807769,7.90774044 10.338839,8.59121254 C10.145652,8.68341541 9.95685565,8.78879012 9.77830406,8.91758144 C9.20606083,8.72000385 8.63674467,8.63365513 8.24012596,8.60731145 M15.5446425,5.40948164 C15.8549125,4.98505571 16.2617759,4.79186874 16.7549881,4.83431133 C17.2321014,4.87529039 17.7194595,5.12994594 18.0955887,5.50461158 C18.2814579,5.69048087 18.4380565,5.90269383 18.5536759,6.13685986 C19.2064137,7.46282499 18.3882962,9.04637275 17.2160025,9.69325641 C16.6627853,9.99767224 15.9895579,10.2259841 15.2241277,10.3869733 C15.1641227,10.2523278 15.0953364,10.1206094 15.0177689,9.99328163 C15.2812057,9.34786151 15.3617003,8.68634249 15.3938981,8.2399635 C15.4158512,7.86822493 15.3938981,7.47160622 15.369018,7.07059689 C15.3265754,6.40029664 15.2841328,5.76658483 15.5446425,5.40948164 M20.9875391,16.9128877 C21.0855961,15.7845002 20.6011652,14.746852 19.6674281,14.066307 C18.7761337,13.4150327 17.6872616,13.4867461 16.8120661,13.5423605 C16.4944784,13.56285 16.1798178,13.5862666 15.8812562,13.5657771 C15.6163558,13.5482146 15.3865804,13.5189439 15.1860758,13.4779648 C15.3821898,13.0696378 15.4963457,12.6364307 15.5314707,12.1944423 C16.5135044,11.9954012 17.3565021,11.7026936 18.0985157,11.2958302 C20.2821139,10.0928022 21.2217051,7.41452825 20.1943017,5.32752353 C19.5591263,4.03961037 18.2712132,3.12928994 16.9130502,3.01220693 C15.7875897,2.91561344 14.748478,3.3956538 14.0664694,4.33231791 C13.4151952,5.22361235 13.4869085,6.31394792 13.542523,7.18914345 C13.5630125,7.50819466 13.5864291,7.82139172 13.5659396,8.11702633 C13.5542313,8.3102133 13.5293511,8.46388476 13.504471,8.61901975 C13.0727274,8.40680679 12.6102495,8.28533316 12.1389903,8.25459887 C11.9399492,7.3662315 11.6721218,6.58177531 11.2974562,5.90123029 C10.0915011,3.71763209 7.41322718,2.77657736 5.32768599,3.80544435 C4.0383093,4.44208323 3.12945241,5.72999639 3.0123694,7.08815935 C2.93041129,8.03506822 3.25824372,8.91904498 3.92122629,9.58202754 C4.04562699,9.70642824 4.18319953,9.82351126 4.33248038,9.93181305 C5.22377482,10.5845508 6.31264685,10.5128375 7.18930591,10.4557595 C7.50835713,10.4367335 7.82301773,10.4118534 8.1171888,10.4323429 C8.26793318,10.4425877 8.38647973,10.4645408 8.51673458,10.4821032 C8.33232884,10.9240916 8.23866243,11.3938872 8.23427181,11.8666098 C7.35322213,12.0641874 6.57608363,12.3320148 5.90139276,12.7022899 C3.71779455,13.9053178 2.77527629,16.5821282 3.80707035,18.67206 C4.01342916,19.0906318 4.29003778,19.4696881 4.61347961,19.7945934 C5.28670694,20.4692843 6.17214723,20.9083456 7.08832181,20.9873766 C8.21378229,21.0839701 9.2514305,20.6039298 9.93197551,19.6687292 C10.5832498,18.7759712 10.5144635,17.6856356 10.455922,16.8119036 C10.4354325,16.4928524 10.4134794,16.1781918 10.4325054,15.8840208 C10.4486043,15.6542453 10.474948,15.4639854 10.5071458,15.2868974 C10.9242541,15.4566678 11.367706,15.5400894 11.8096943,15.5517977 C12.010199,16.5250503 12.2999795,17.3636573 12.7039159,18.0968897 C12.9307642,18.5110709 13.213227,18.8798824 13.5322782,19.1989336 C14.9006859,20.5673413 16.9789094,21.0268921 18.6722225,20.1926757 C19.9615992,19.5575003 20.8704561,18.2710507 20.9875391,16.9128877" fill="#0B588A"></path>
    </g>
</svg>
