<svg width="1em" height="1em" stroke="#0B588A" fill="none" viewBox="0 0 24 24" version="1.1" xmlns="http://www.w3.org/2000/svg" xmlns:xlink="http://www.w3.org/1999/xlink">
    <g stroke-width="1" fill-rule="evenodd" stroke-linecap="round" stroke-linejoin="round">
        <g transform="translate(4.000000, 2.000000)" stroke-width="2">
            <path d="M8,0.69 C6.66666667,5.56333333 7,8.33333333 9,9 C11,9.66666667 12.5533333,8.78333333 13.66,6.35 C15.9490712,8.63757131 16.6344785,12.0789253 15.3965378,15.0689642 C14.1585972,18.059003 11.2411752,20.0087079 8.005,20.0087079 C4.76882485,20.0087079 1.85140283,18.059003 0.613462165,15.0689642 C-0.624478498,12.0789253 0.0609287647,8.63757131 2.35,6.35 L8,0.69 Z"></path>
            <path d="M8.00312505,13 L10.1255629,15.0508618 C10.9839394,15.8797474 11.2409596,17.1266982 10.7767455,18.2101181 C10.3125313,19.293538 9.21853012,20 8.005,20 C6.79146988,20 5.69746868,19.293538 5.23325453,18.2101181 C4.76904039,17.1266982 5.02606058,15.8797474 5.88443714,15.0508618 L8.00312505,13 Z"></path>
        </g>
    </g>
</svg>
