<svg width="1em" height="1em" stroke="#0B588A" fill="none" viewBox="0 0 24 24" version="1.1" xmlns="http://www.w3.org/2000/svg" xmlns:xlink="http://www.w3.org/1999/xlink">
    <g stroke-width="1" fill-rule="evenodd" stroke-linecap="round" stroke-linejoin="round">
        <g transform="translate(1.000000, 3.000000)" stroke-width="2">
            <path d="M20,6 L20,16 C20,17.1045695 19.1045695,18 18,18 L4,18 C2.8954305,18 2,17.1045695 2,16 L2,6"></path>
            <polyline points="12 18 12 10 17 10 17 18"></polyline>
            <circle cx="7" cy="12" r="2"></circle>
            <path d="M16.8720681,4.05835544 C16.543384,4.04678081 16.2422818,4.22763443 16.0446116,4.55027731 C15.7067335,5.102966 14.8057253,5.97829756 13.8208222,5.97829756 C12.9692316,5.97829756 12.0716711,5.01181577 11.98203,4.77019532 C11.7556287,4.13648421 11.1649167,3.84856523 10.6638458,4.13214372 C10.5224886,4.21027249 10.3972209,4.33180612 10.2972366,4.48806366 C10.2167894,4.63949843 10.1708196,4.72871956 10.1593272,4.75572703 C10.0604921,4.99590065 9.07443974,6 8.21020739,6 C7.10118581,6 6.19787912,4.93079334 5.96803009,4.55606463 C5.77610615,4.24210272 5.48649637,4.06558958 5.16700622,4.06558958 L5.14172282,4.06558958 C4.81993418,4.08005787 4.52227968,4.28840125 4.34414669,4.62551242 C4.15911822,4.97564504 3.26960247,5.93778635 2.03646241,5.93778635 C0.989500078,5.93778635 0,5.15505184 0,4.32891247 C0,4.12490957 0.0229849031,4.01061008 0.134461683,3.62720039 L0.693635535,1.4931719 C0.924136807,0.613487914 1.71908628,4.62823826e-05 2.62846779,0.000112646967 L19.3686181,0.00133430487 C20.2772145,0.00140061216 21.0715955,0.613920144 21.3026967,1.49263493 L21.8758815,3.67205209 L21.8758815,3.67205209 C21.9827613,4.03231252 22,4.16831444 22,4.3506149 C22,5.24909573 20.9070679,5.9450205 19.9681346,5.9450205 C18.746487,5.9450205 17.8546727,4.97419822 17.668495,4.6197251 C17.490362,4.28261394 17.1927075,4.07282373 16.8720681,4.05835544 Z"></path>
        </g>
    </g>
</svg>
