<svg width="1em" height="1em" stroke="#0B588A" fill="none" viewBox="0 0 24 24" version="1.1" xmlns="http://www.w3.org/2000/svg" xmlns:xlink="http://www.w3.org/1999/xlink">
    <g stroke-width="1" fill-rule="evenodd" stroke-linecap="round" stroke-linejoin="round">
        <g transform="translate(2.000000, 3.000000)" stroke-width="2">
            <ellipse transform="translate(12.000000, 9.000000) rotate(90.000000) translate(-12.000000, -9.000000) " cx="12" cy="9" rx="9" ry="8"></ellipse>
            <polyline points="12.6666667 5 10 9 14 9 11.3333333 13"></polyline>
            <g transform="translate(1.000000, 2.500000)">
                <path d="M3,4.5 L0,4.5" transform="translate(1.500000, 4.500000) rotate(-180.000000) translate(-1.500000, -4.500000) "></path>
                <path d="M5,0.5 L2,0.5" transform="translate(3.500000, 0.500000) rotate(-180.000000) translate(-3.500000, -0.500000) "></path>
                <path d="M3,8.5 L0,8.5" transform="translate(1.500000, 8.500000) rotate(-180.000000) translate(-1.500000, -8.500000) "></path>
                <path d="M5,12.5 L2,12.5" transform="translate(3.500000, 12.500000) rotate(-180.000000) translate(-3.500000, -12.500000) "></path>
            </g>
            <path d="M15.5,3 L15.5,7 C15.5,11.4266667 11.5,15 6.5,15 C1.5,15 -2.5,11.4266667 -2.5,7 L-2.5,3" transform="translate(6.500000, 9.000000) rotate(90.000000) translate(-6.500000, -9.000000) "></path>
        </g>
    </g>
</svg>
