<svg width="1em" height="1em" stroke="#0B588A" fill="none" viewBox="0 0 24 24" version="1.1" xmlns="http://www.w3.org/2000/svg" xmlns:xlink="http://www.w3.org/1999/xlink">
    <g stroke-width="1" fill-rule="evenodd" stroke-linecap="round" stroke-linejoin="round">
        <g id="Group" transform="translate(2.000000, 4.000000)" stroke-width="2">
            <path d="M4,0 L16,0 C18.209139,-4.05812251e-16 20,1.790861 20,4 L20,8 C20,10.209139 18.209139,12 16,12 L4,12 L4,12 L4,0 Z"></path>
            <path d="M8,12 L12,12 C14.209139,12 16,13.790861 16,16 L16,16 L16,16 L8,16 L8,12 Z"></path>
            <path d="M12,7 L12,1" transform="translate(12.000000, 4.000000) rotate(90.000000) translate(-12.000000, -4.000000) "></path>
            <path d="M12,11 L12,5" transform="translate(12.000000, 8.000000) rotate(90.000000) translate(-12.000000, -8.000000) "></path>
            <rect x="0" y="4" width="4" height="4"></rect>
        </g>
    </g>
</svg>
