<svg width="91" height="21" xmlns="http://www.w3.org/2000/svg" xmlns:xlink="http://www.w3.org/1999/xlink">
    <defs>
        <path d="M7.357.192a.615.615 0 0 0-.616.613v4.172c0 .34-.275.614-.615.614h-3.62a.615.615 0 0 1-.617-.614V.805a.614.614 0 0 0-.615-.613h-.62a.615.615 0 0 0-.616.613v11.368c0 .338.276.613.616.613h.62c.34 0 .615-.275.615-.613V7.897c0-.339.276-.614.616-.614h3.62c.34 0 .616.275.616.614v4.276c0 .338.276.613.616.613h.62c.34 0 .616-.275.616-.613V.805a.615.615 0 0 0-.616-.613" id="a"/>
        <path d="M7.357.192a.615.615 0 0 0-.616.613v4.172c0 .34-.275.614-.615.614h-3.62a.615.615 0 0 1-.617-.614V.805a.614.614 0 0 0-.615-.613h-.62a.615.615 0 0 0-.616.613v11.368c0 .338.276.613.616.613h.62c.34 0 .615-.275.615-.613V7.897c0-.339.276-.614.616-.614h3.62c.34 0 .616.275.616.614v4.276c0 .338.276.613.616.613h.62c.34 0 .616-.275.616-.613V.805a.615.615 0 0 0-.616-.613" id="c"/>
        <path d="M7.357.192a.615.615 0 0 0-.616.613v4.172c0 .34-.275.614-.615.614h-3.62a.615.615 0 0 1-.617-.614V.805a.614.614 0 0 0-.615-.613h-.62a.615.615 0 0 0-.616.613v11.368c0 .338.276.613.616.613h.62c.34 0 .615-.275.615-.613V7.897c0-.339.276-.614.616-.614h3.62c.34 0 .616.275.616.614v4.276c0 .338.276.613.616.613h.62c.34 0 .616-.275.616-.613V.805a.615.615 0 0 0-.616-.613" id="e"/>
        <path d="M7.357.192a.615.615 0 0 0-.616.613v4.172c0 .34-.275.614-.615.614h-3.62a.615.615 0 0 1-.617-.614V.805a.614.614 0 0 0-.615-.613h-.62a.615.615 0 0 0-.616.613v11.368c0 .338.276.613.616.613h.62c.34 0 .615-.275.615-.613V7.897c0-.339.276-.614.616-.614h3.62c.34 0 .616.275.616.614v4.276c0 .338.276.613.616.613h.62c.34 0 .616-.275.616-.613V.805a.615.615 0 0 0-.616-.613" id="g"/>
        <path d="M7.357.192a.615.615 0 0 0-.616.613v4.172c0 .34-.275.614-.615.614h-3.62a.615.615 0 0 1-.617-.614V.805a.614.614 0 0 0-.615-.613h-.62a.615.615 0 0 0-.616.613v11.368c0 .338.276.613.616.613h.62c.34 0 .615-.275.615-.613V7.897c0-.339.276-.614.616-.614h3.62c.34 0 .616.275.616.614v4.276c0 .338.276.613.616.613h.62c.34 0 .616-.275.616-.613V.805a.615.615 0 0 0-.616-.613" id="i"/>
        <path d="M7.357.192a.615.615 0 0 0-.616.613v4.172c0 .34-.275.614-.615.614h-3.62a.615.615 0 0 1-.617-.614V.805a.614.614 0 0 0-.615-.613h-.62a.615.615 0 0 0-.616.613v11.368c0 .338.276.613.616.613h.62c.34 0 .615-.275.615-.613V7.897c0-.339.276-.614.616-.614h3.62c.34 0 .616.275.616.614v4.276c0 .338.276.613.616.613h.62c.34 0 .616-.275.616-.613V.805a.615.615 0 0 0-.616-.613" id="k"/>
        <path d="M7.357.192a.615.615 0 0 0-.616.613v4.172c0 .34-.275.614-.615.614h-3.62a.615.615 0 0 1-.617-.614V.805a.614.614 0 0 0-.615-.613h-.62a.615.615 0 0 0-.616.613v11.368c0 .338.276.613.616.613h.62c.34 0 .615-.275.615-.613V7.897c0-.339.276-.614.616-.614h3.62c.34 0 .616.275.616.614v4.276c0 .338.276.613.616.613h.62c.34 0 .616-.275.616-.613V.805a.615.615 0 0 0-.616-.613" id="m"/>
        <path d="M7.357.192a.615.615 0 0 0-.616.613v4.172c0 .34-.275.614-.615.614h-3.62a.615.615 0 0 1-.617-.614V.805a.614.614 0 0 0-.615-.613h-.62a.615.615 0 0 0-.616.613v11.368c0 .338.276.613.616.613h.62c.34 0 .615-.275.615-.613V7.897c0-.339.276-.614.616-.614h3.62c.34 0 .616.275.616.614v4.276c0 .338.276.613.616.613h.62c.34 0 .616-.275.616-.613V.805a.615.615 0 0 0-.616-.613" id="o"/>
        <path d="M7.357.192a.615.615 0 0 0-.616.613v4.172c0 .34-.275.614-.615.614h-3.62a.615.615 0 0 1-.617-.614V.805a.614.614 0 0 0-.615-.613h-.62a.615.615 0 0 0-.616.613v11.368c0 .338.276.613.616.613h.62c.34 0 .615-.275.615-.613V7.897c0-.339.276-.614.616-.614h3.62c.34 0 .616.275.616.614v4.276c0 .338.276.613.616.613h.62c.34 0 .616-.275.616-.613V.805a.615.615 0 0 0-.616-.613" id="q"/>
        <path d="M7.357.192a.615.615 0 0 0-.616.613v4.172c0 .34-.275.614-.615.614h-3.62a.615.615 0 0 1-.617-.614V.805a.614.614 0 0 0-.615-.613h-.62a.615.615 0 0 0-.616.613v11.368c0 .338.276.613.616.613h.62c.34 0 .615-.275.615-.613V7.897c0-.339.276-.614.616-.614h3.62c.34 0 .616.275.616.614v4.276c0 .338.276.613.616.613h.62c.34 0 .616-.275.616-.613V.805a.615.615 0 0 0-.616-.613" id="s"/>
        <path d="M7.357.192a.615.615 0 0 0-.616.613v4.172c0 .34-.275.614-.615.614h-3.62a.615.615 0 0 1-.617-.614V.805a.614.614 0 0 0-.615-.613h-.62a.615.615 0 0 0-.616.613v11.368c0 .338.276.613.616.613h.62c.34 0 .615-.275.615-.613V7.897c0-.339.276-.614.616-.614h3.62c.34 0 .616.275.616.614v4.276c0 .338.276.613.616.613h.62c.34 0 .616-.275.616-.613V.805a.615.615 0 0 0-.616-.613" id="u"/>
        <path d="M7.357.192a.615.615 0 0 0-.616.613v4.172c0 .34-.275.614-.615.614h-3.62a.615.615 0 0 1-.617-.614V.805a.614.614 0 0 0-.615-.613h-.62a.615.615 0 0 0-.616.613v11.368c0 .338.276.613.616.613h.62c.34 0 .615-.275.615-.613V7.897c0-.339.276-.614.616-.614h3.62c.34 0 .616.275.616.614v4.276c0 .338.276.613.616.613h.62c.34 0 .616-.275.616-.613V.805a.615.615 0 0 0-.616-.613" id="w"/>
        <path d="M7.357.192a.615.615 0 0 0-.616.613v4.172c0 .34-.275.614-.615.614h-3.62a.615.615 0 0 1-.617-.614V.805a.614.614 0 0 0-.615-.613h-.62a.615.615 0 0 0-.616.613v11.368c0 .338.276.613.616.613h.62c.34 0 .615-.275.615-.613V7.897c0-.339.276-.614.616-.614h3.62c.34 0 .616.275.616.614v4.276c0 .338.276.613.616.613h.62c.34 0 .616-.275.616-.613V.805a.615.615 0 0 0-.616-.613" id="y"/>
        <path d="M7.357.192a.615.615 0 0 0-.616.613v4.172c0 .34-.275.614-.615.614h-3.62a.615.615 0 0 1-.617-.614V.805a.614.614 0 0 0-.615-.613h-.62a.615.615 0 0 0-.616.613v11.368c0 .338.276.613.616.613h.62c.34 0 .615-.275.615-.613V7.897c0-.339.276-.614.616-.614h3.62c.34 0 .616.275.616.614v4.276c0 .338.276.613.616.613h.62c.34 0 .616-.275.616-.613V.805a.615.615 0 0 0-.616-.613" id="A"/>
        <path d="M7.357.192a.615.615 0 0 0-.616.613v4.172c0 .34-.275.614-.615.614h-3.62a.615.615 0 0 1-.617-.614V.805a.614.614 0 0 0-.615-.613h-.62a.615.615 0 0 0-.616.613v11.368c0 .338.276.613.616.613h.62c.34 0 .615-.275.615-.613V7.897c0-.339.276-.614.616-.614h3.62c.34 0 .616.275.616.614v4.276c0 .338.276.613.616.613h.62c.34 0 .616-.275.616-.613V.805a.615.615 0 0 0-.616-.613" id="C"/>
        <path d="M7.357.192a.615.615 0 0 0-.616.613v4.172c0 .34-.275.614-.615.614h-3.62a.615.615 0 0 1-.617-.614V.805a.614.614 0 0 0-.615-.613h-.62a.615.615 0 0 0-.616.613v11.368c0 .338.276.613.616.613h.62c.34 0 .615-.275.615-.613V7.897c0-.339.276-.614.616-.614h3.62c.34 0 .616.275.616.614v4.276c0 .338.276.613.616.613h.62c.34 0 .616-.275.616-.613V.805a.615.615 0 0 0-.616-.613" id="E"/>
        <path d="M7.357.192a.615.615 0 0 0-.616.613v4.172c0 .34-.275.614-.615.614h-3.62a.615.615 0 0 1-.617-.614V.805a.614.614 0 0 0-.615-.613h-.62a.615.615 0 0 0-.616.613v11.368c0 .338.276.613.616.613h.62c.34 0 .615-.275.615-.613V7.897c0-.339.276-.614.616-.614h3.62c.34 0 .616.275.616.614v4.276c0 .338.276.613.616.613h.62c.34 0 .616-.275.616-.613V.805a.615.615 0 0 0-.616-.613" id="G"/>
        <path d="M7.357.192a.615.615 0 0 0-.616.613v4.172c0 .34-.275.614-.615.614h-3.62a.615.615 0 0 1-.617-.614V.805a.614.614 0 0 0-.615-.613h-.62a.615.615 0 0 0-.616.613v11.368c0 .338.276.613.616.613h.62c.34 0 .615-.275.615-.613V7.897c0-.339.276-.614.616-.614h3.62c.34 0 .616.275.616.614v4.276c0 .338.276.613.616.613h.62c.34 0 .616-.275.616-.613V.805a.615.615 0 0 0-.616-.613" id="I"/>
        <path d="M7.357.192a.615.615 0 0 0-.616.613v4.172c0 .34-.275.614-.615.614h-3.62a.615.615 0 0 1-.617-.614V.805a.614.614 0 0 0-.615-.613h-.62a.615.615 0 0 0-.616.613v11.368c0 .338.276.613.616.613h.62c.34 0 .615-.275.615-.613V7.897c0-.339.276-.614.616-.614h3.62c.34 0 .616.275.616.614v4.276c0 .338.276.613.616.613h.62c.34 0 .616-.275.616-.613V.805a.615.615 0 0 0-.616-.613" id="K"/>
        <path d="M7.357.192a.615.615 0 0 0-.616.613v4.172c0 .34-.275.614-.615.614h-3.62a.615.615 0 0 1-.617-.614V.805a.614.614 0 0 0-.615-.613h-.62a.615.615 0 0 0-.616.613v11.368c0 .338.276.613.616.613h.62c.34 0 .615-.275.615-.613V7.897c0-.339.276-.614.616-.614h3.62c.34 0 .616.275.616.614v4.276c0 .338.276.613.616.613h.62c.34 0 .616-.275.616-.613V.805a.615.615 0 0 0-.616-.613" id="M"/>
        <path d="M7.357.192a.615.615 0 0 0-.616.613v4.172c0 .34-.275.614-.615.614h-3.62a.615.615 0 0 1-.617-.614V.805a.614.614 0 0 0-.615-.613h-.62a.615.615 0 0 0-.616.613v11.368c0 .338.276.613.616.613h.62c.34 0 .615-.275.615-.613V7.897c0-.339.276-.614.616-.614h3.62c.34 0 .616.275.616.614v4.276c0 .338.276.613.616.613h.62c.34 0 .616-.275.616-.613V.805a.615.615 0 0 0-.616-.613" id="O"/>
        <path d="M7.357.192a.615.615 0 0 0-.616.613v4.172c0 .34-.275.614-.615.614h-3.62a.615.615 0 0 1-.617-.614V.805a.614.614 0 0 0-.615-.613h-.62a.615.615 0 0 0-.616.613v11.368c0 .338.276.613.616.613h.62c.34 0 .615-.275.615-.613V7.897c0-.339.276-.614.616-.614h3.62c.34 0 .616.275.616.614v4.276c0 .338.276.613.616.613h.62c.34 0 .616-.275.616-.613V.805a.615.615 0 0 0-.616-.613" id="Q"/>
        <path d="M7.357.192a.615.615 0 0 0-.616.613v4.172c0 .34-.275.614-.615.614h-3.62a.615.615 0 0 1-.617-.614V.805a.614.614 0 0 0-.615-.613h-.62a.615.615 0 0 0-.616.613v11.368c0 .338.276.613.616.613h.62c.34 0 .615-.275.615-.613V7.897c0-.339.276-.614.616-.614h3.62c.34 0 .616.275.616.614v4.276c0 .338.276.613.616.613h.62c.34 0 .616-.275.616-.613V.805a.615.615 0 0 0-.616-.613" id="S"/>
        <path d="M7.357.192a.615.615 0 0 0-.616.613v4.172c0 .34-.275.614-.615.614h-3.62a.615.615 0 0 1-.617-.614V.805a.614.614 0 0 0-.615-.613h-.62a.615.615 0 0 0-.616.613v11.368c0 .338.276.613.616.613h.62c.34 0 .615-.275.615-.613V7.897c0-.339.276-.614.616-.614h3.62c.34 0 .616.275.616.614v4.276c0 .338.276.613.616.613h.62c.34 0 .616-.275.616-.613V.805a.615.615 0 0 0-.616-.613" id="U"/>
        <path d="M7.357.192a.615.615 0 0 0-.616.613v4.172c0 .34-.275.614-.615.614h-3.62a.615.615 0 0 1-.617-.614V.805a.614.614 0 0 0-.615-.613h-.62a.615.615 0 0 0-.616.613v11.368c0 .338.276.613.616.613h.62c.34 0 .615-.275.615-.613V7.897c0-.339.276-.614.616-.614h3.62c.34 0 .616.275.616.614v4.276c0 .338.276.613.616.613h.62c.34 0 .616-.275.616-.613V.805a.615.615 0 0 0-.616-.613" id="W"/>
        <path d="M7.357.192a.615.615 0 0 0-.616.613v4.172c0 .34-.275.614-.615.614h-3.62a.615.615 0 0 1-.617-.614V.805a.614.614 0 0 0-.615-.613h-.62a.615.615 0 0 0-.616.613v11.368c0 .338.276.613.616.613h.62c.34 0 .615-.275.615-.613V7.897c0-.339.276-.614.616-.614h3.62c.34 0 .616.275.616.614v4.276c0 .338.276.613.616.613h.62c.34 0 .616-.275.616-.613V.805a.615.615 0 0 0-.616-.613" id="Y"/>
        <path d="M7.357.192a.615.615 0 0 0-.616.613v4.172c0 .34-.275.614-.615.614h-3.62a.615.615 0 0 1-.617-.614V.805a.614.614 0 0 0-.615-.613h-.62a.615.615 0 0 0-.616.613v11.368c0 .338.276.613.616.613h.62c.34 0 .615-.275.615-.613V7.897c0-.339.276-.614.616-.614h3.62c.34 0 .616.275.616.614v4.276c0 .338.276.613.616.613h.62c.34 0 .616-.275.616-.613V.805a.615.615 0 0 0-.616-.613" id="aa"/>
        <path d="M7.357.192a.615.615 0 0 0-.616.613v4.172c0 .34-.275.614-.615.614h-3.62a.615.615 0 0 1-.617-.614V.805a.614.614 0 0 0-.615-.613h-.62a.615.615 0 0 0-.616.613v11.368c0 .338.276.613.616.613h.62c.34 0 .615-.275.615-.613V7.897c0-.339.276-.614.616-.614h3.62c.34 0 .616.275.616.614v4.276c0 .338.276.613.616.613h.62c.34 0 .616-.275.616-.613V.805a.615.615 0 0 0-.616-.613" id="ac"/>
        <path d="M7.357.192a.615.615 0 0 0-.616.613v4.172c0 .34-.275.614-.615.614h-3.62a.615.615 0 0 1-.617-.614V.805a.614.614 0 0 0-.615-.613h-.62a.615.615 0 0 0-.616.613v11.368c0 .338.276.613.616.613h.62c.34 0 .615-.275.615-.613V7.897c0-.339.276-.614.616-.614h3.62c.34 0 .616.275.616.614v4.276c0 .338.276.613.616.613h.62c.34 0 .616-.275.616-.613V.805a.615.615 0 0 0-.616-.613" id="ae"/>
        <path d="M7.357.192a.615.615 0 0 0-.616.613v4.172c0 .34-.275.614-.615.614h-3.62a.615.615 0 0 1-.617-.614V.805a.614.614 0 0 0-.615-.613h-.62a.615.615 0 0 0-.616.613v11.368c0 .338.276.613.616.613h.62c.34 0 .615-.275.615-.613V7.897c0-.339.276-.614.616-.614h3.62c.34 0 .616.275.616.614v4.276c0 .338.276.613.616.613h.62c.34 0 .616-.275.616-.613V.805a.615.615 0 0 0-.616-.613" id="ag"/>
        <path d="M7.357.192a.615.615 0 0 0-.616.613v4.172c0 .34-.275.614-.615.614h-3.62a.615.615 0 0 1-.617-.614V.805a.614.614 0 0 0-.615-.613h-.62a.615.615 0 0 0-.616.613v11.368c0 .338.276.613.616.613h.62c.34 0 .615-.275.615-.613V7.897c0-.339.276-.614.616-.614h3.62c.34 0 .616.275.616.614v4.276c0 .338.276.613.616.613h.62c.34 0 .616-.275.616-.613V.805a.615.615 0 0 0-.616-.613" id="ai"/>
        <path d="M7.357.192a.615.615 0 0 0-.616.613v4.172c0 .34-.275.614-.615.614h-3.62a.615.615 0 0 1-.617-.614V.805a.614.614 0 0 0-.615-.613h-.62a.615.615 0 0 0-.616.613v11.368c0 .338.276.613.616.613h.62c.34 0 .615-.275.615-.613V7.897c0-.339.276-.614.616-.614h3.62c.34 0 .616.275.616.614v4.276c0 .338.276.613.616.613h.62c.34 0 .616-.275.616-.613V.805a.615.615 0 0 0-.616-.613" id="ak"/>
        <path d="M7.357.192a.615.615 0 0 0-.616.613v4.172c0 .34-.275.614-.615.614h-3.62a.615.615 0 0 1-.617-.614V.805a.614.614 0 0 0-.615-.613h-.62a.615.615 0 0 0-.616.613v11.368c0 .338.276.613.616.613h.62c.34 0 .615-.275.615-.613V7.897c0-.339.276-.614.616-.614h3.62c.34 0 .616.275.616.614v4.276c0 .338.276.613.616.613h.62c.34 0 .616-.275.616-.613V.805a.615.615 0 0 0-.616-.613" id="am"/>
        <path d="M7.357.192a.615.615 0 0 0-.616.613v4.172c0 .34-.275.614-.615.614h-3.62a.615.615 0 0 1-.617-.614V.805a.614.614 0 0 0-.615-.613h-.62a.615.615 0 0 0-.616.613v11.368c0 .338.276.613.616.613h.62c.34 0 .615-.275.615-.613V7.897c0-.339.276-.614.616-.614h3.62c.34 0 .616.275.616.614v4.276c0 .338.276.613.616.613h.62c.34 0 .616-.275.616-.613V.805a.615.615 0 0 0-.616-.613" id="ao"/>
        <path id="aq" d="M.184.192h8.557v12.594H.184z"/>
        <path id="as" d="M.088.12H.93v.836H.088z"/>
        <path id="au" d="M0 .258h.679v.678H0z"/>
    </defs>
    <g fill="none" fill-rule="evenodd">
        <path d="M19.597 20.88V1.924v18.958zm-.17 0h.34V1.924h-.34zm8.27-15.388h.786c.214 0 .412.11.524.292l5.358 8.661h.034V6.106c0-.34.275-.614.615-.614h.62c.34 0 .616.275.616.614v11.366c0 .34-.276.614-.615.614h-.795a.617.617 0 0 1-.524-.291l-5.35-8.662h-.033v8.34a.614.614 0 0 1-.616.613h-.62a.614.614 0 0 1-.616-.614V6.106c0-.34.276-.614.616-.614m17.528 5.41a36.59 36.59 0 0 1-1.375-.199c-.605-.116-1.045-.323-1.318-.622-.274-.294-.41-.623-.41-.986.01-.606.214-1.06.612-1.366.381-.294.856-.441 1.426-.441.918.02 1.773.247 2.565.682.275.153.624.047.798-.216l.364-.554a.621.621 0 0 0-.208-.874c-1-.596-2.14-.909-3.42-.938-1.263.012-2.239.352-2.925 1.02-.71.674-1.064 1.562-1.064 2.663 0 .917.282 1.694.847 2.335.548.622 1.348 1.023 2.4 1.201.586.087 1.126.164 1.62.233 1.072.191 1.604.756 1.592 1.695-.022 1.147-.828 1.732-2.417 1.756-1.152-.01-2.169-.32-3.049-.928a.607.607 0 0 0-.804.117l-.43.51a.621.621 0 0 0 .12.903c1.188.865 2.569 1.297 4.141 1.297 2.8-.035 4.23-1.257 4.29-3.666 0-.893-.27-1.677-.812-2.352-.55-.685-1.396-1.11-2.543-1.27m8.344-5.41h-.621a.615.615 0 0 0-.615.614v11.366c0 .34.275.614.615.614h.62c.34 0 .616-.274.616-.614V6.106a.615.615 0 0 0-.615-.614m12.504 5.668h-3.116a.615.615 0 0 0-.616.614v.567c0 .338.276.613.616.613h1.88v.659c-.011.792-.252 1.43-.723 1.915-.47.508-1.066.762-1.79.762-.436 0-.812-.095-1.126-.285a2.185 2.185 0 0 1-.772-.632c-.24-.272-.4-.627-.48-1.065-.088-.439-.134-1.278-.134-2.519 0-1.24.046-2.086.135-2.536.079-.427.238-.776.479-1.048.195-.26.453-.475.772-.649.313-.167.688-.257 1.125-.268.594.011 1.097.188 1.511.529a2.8 2.8 0 0 1 .687.934c.097.216.293.368.53.368h.765c.421 0 .729-.42.587-.816a4.711 4.711 0 0 0-1.19-1.835c-.743-.708-1.704-1.068-2.885-1.08-.96.012-1.762.248-2.406.708-.654.456-1.128.974-1.424 1.555-.185.305-.322.706-.411 1.201-.084.495-.126 1.475-.126 2.937 0 1.44.042 2.413.126 2.92.045.27.1.495.168.673.072.173.153.355.243.545.296.581.77 1.094 1.424 1.538.644.46 1.446.702 2.406.725 1.247-.023 2.282-.457 3.103-1.302.816-.852 1.235-1.907 1.257-3.167v-1.947a.615.615 0 0 0-.615-.615m12.531-5.667h-.62a.615.615 0 0 0-.616.614v4.172a.615.615 0 0 1-.616.613h-3.62a.615.615 0 0 1-.615-.613V6.106a.615.615 0 0 0-.616-.614h-.62a.615.615 0 0 0-.616.614v11.366c0 .34.275.614.616.614h.62c.34 0 .616-.274.616-.614v-4.275c0-.34.275-.614.615-.614h3.62c.34 0 .616.275.616.614v4.275c0 .34.275.614.615.614h.621c.34 0 .615-.274.615-.614V6.106a.615.615 0 0 0-.615-.614" fill="#FFFFFE"/>
        <g transform="translate(70.627 5.3)">
            <mask id="b" fill="#fff">
                <use xlink:href="#a"/>
            </mask>
            <path d="M6.436 6.489c0 1.169-.95 2.116-2.121 2.116-1.17 0-2.12-.947-2.12-2.116s.95-2.116 2.12-2.116c1.171 0 2.12.947 2.12 2.116" fill="#FFFFFE" mask="url(#b)"/>
        </g>
        <g transform="translate(70.627 5.3)">
            <mask id="d" fill="#fff">
                <use xlink:href="#c"/>
            </mask>
            <path d="M6.375 6.489a2.057 2.057 0 0 1-2.06 2.055c-1.137 0-2.06-.92-2.06-2.055 0-1.135.923-2.055 2.06-2.055 1.138 0 2.06.92 2.06 2.055" fill="#FFFFFE" mask="url(#d)"/>
        </g>
        <g transform="translate(70.627 5.3)">
            <mask id="f" fill="#fff">
                <use xlink:href="#e"/>
            </mask>
            <path d="M6.315 6.489a1.997 1.997 0 0 1-2 1.994c-1.104 0-2-.893-2-1.994.001-1.101.896-1.994 2-1.994s2 .893 2 1.994" fill="#FFFFFE" mask="url(#f)"/>
        </g>
        <g transform="translate(70.627 5.3)">
            <mask id="h" fill="#fff">
                <use xlink:href="#g"/>
            </mask>
            <path d="M6.254 6.489a1.936 1.936 0 0 1-1.939 1.933A1.936 1.936 0 0 1 2.376 6.49c0-1.068.868-1.934 1.94-1.934 1.07 0 1.938.866 1.938 1.934" fill="#FFFFFE" mask="url(#h)"/>
        </g>
        <g transform="translate(70.627 5.3)">
            <mask id="j" fill="#fff">
                <use xlink:href="#i"/>
            </mask>
            <path d="M6.194 6.489a1.877 1.877 0 0 1-1.879 1.874 1.876 1.876 0 0 1-1.878-1.874c0-1.034.841-1.874 1.878-1.874 1.038 0 1.879.84 1.879 1.874" fill="#FFFFFE" mask="url(#j)"/>
        </g>
        <g transform="translate(70.627 5.3)">
            <mask id="l" fill="#fff">
                <use xlink:href="#k"/>
            </mask>
            <path d="M6.133 6.489a1.815 1.815 0 0 1-1.817 1.813 1.816 1.816 0 0 1-1.818-1.813c0-1.001.814-1.813 1.818-1.813 1.003 0 1.817.812 1.817 1.813" fill="#FFFFFE" mask="url(#l)"/>
        </g>
        <g transform="translate(70.627 5.3)">
            <mask id="n" fill="#fff">
                <use xlink:href="#m"/>
            </mask>
            <path d="M6.072 6.489c0 .968-.786 1.752-1.757 1.752-.97 0-1.757-.784-1.757-1.752s.787-1.752 1.757-1.752c.97 0 1.757.784 1.757 1.752" fill="#FFFFFE" mask="url(#n)"/>
        </g>
        <g transform="translate(70.627 5.3)">
            <mask id="p" fill="#fff">
                <use xlink:href="#o"/>
            </mask>
            <path d="M6.012 6.489c0 .934-.76 1.692-1.697 1.692A1.694 1.694 0 0 1 2.62 6.49c0-.935.76-1.692 1.696-1.692.937 0 1.697.757 1.697 1.692" fill="#FFFFFE" mask="url(#p)"/>
        </g>
        <g transform="translate(70.627 5.3)">
            <mask id="r" fill="#fff">
                <use xlink:href="#q"/>
            </mask>
            <path d="M5.951 6.489c0 .901-.733 1.632-1.636 1.632a1.633 1.633 0 0 1 0-3.264c.903 0 1.636.73 1.636 1.632" fill="#FFFFFE" mask="url(#r)"/>
        </g>
        <g transform="translate(70.627 5.3)">
            <mask id="t" fill="#fff">
                <use xlink:href="#s"/>
            </mask>
            <path d="M5.89 6.489c0 .868-.705 1.57-1.574 1.57a1.572 1.572 0 1 1 0-3.142c.869 0 1.574.704 1.574 1.572" fill="#FFFFFE" mask="url(#t)"/>
        </g>
        <g transform="translate(70.627 5.3)">
            <mask id="v" fill="#fff">
                <use xlink:href="#u"/>
            </mask>
            <path d="M5.83 6.489c0 .834-.678 1.51-1.514 1.51A1.513 1.513 0 0 1 2.8 6.49c0-.835.678-1.51 1.515-1.51.836 0 1.514.675 1.514 1.51" fill="#FFFFFE" mask="url(#v)"/>
        </g>
        <g transform="translate(70.627 5.3)">
            <mask id="x" fill="#fff">
                <use xlink:href="#w"/>
            </mask>
            <path d="M5.77 6.489c0 .801-.651 1.45-1.455 1.45a1.452 1.452 0 0 1-1.454-1.45c0-.801.651-1.45 1.454-1.45.804 0 1.454.649 1.454 1.45" fill="#FFFFFE" mask="url(#x)"/>
        </g>
        <g transform="translate(70.627 5.3)">
            <mask id="z" fill="#fff">
                <use xlink:href="#y"/>
            </mask>
            <path d="M5.709 6.489c0 .768-.624 1.39-1.394 1.39a1.39 1.39 0 1 1 0-2.78c.77 0 1.394.622 1.394 1.39" fill="#FFFFFE" mask="url(#z)"/>
        </g>
        <g transform="translate(70.627 5.3)">
            <mask id="B" fill="#fff">
                <use xlink:href="#A"/>
            </mask>
            <path d="M5.648 6.489a1.33 1.33 0 0 1-1.332 1.33 1.331 1.331 0 0 1-1.333-1.33c0-.734.596-1.33 1.333-1.33.736 0 1.332.596 1.332 1.33" fill="#FFFFFE" mask="url(#B)"/>
        </g>
        <g transform="translate(70.627 5.3)">
            <mask id="D" fill="#fff">
                <use xlink:href="#C"/>
            </mask>
            <path d="M5.588 6.489c0 .701-.57 1.27-1.273 1.27a1.27 1.27 0 0 1-1.272-1.27 1.272 1.272 0 0 1 2.545 0" fill="#FFFFFE" mask="url(#D)"/>
        </g>
        <g transform="translate(70.627 5.3)">
            <mask id="F" fill="#fff">
                <use xlink:href="#E"/>
            </mask>
            <path d="M5.527 6.489a1.21 1.21 0 0 1-1.212 1.209 1.21 1.21 0 0 1-1.211-1.209A1.21 1.21 0 0 1 4.315 5.28a1.21 1.21 0 0 1 1.212 1.21" fill="#FFFFFE" mask="url(#F)"/>
        </g>
        <g transform="translate(70.627 5.3)">
            <mask id="H" fill="#fff">
                <use xlink:href="#G"/>
            </mask>
            <path d="M5.466 6.489a1.15 1.15 0 0 1-1.15 1.148A1.15 1.15 0 0 1 3.163 6.49a1.15 1.15 0 0 1 1.151-1.148A1.15 1.15 0 0 1 5.465 6.49" fill="#FFFFFE" mask="url(#H)"/>
        </g>
        <g transform="translate(70.627 5.3)">
            <mask id="J" fill="#fff">
                <use xlink:href="#I"/>
            </mask>
            <path d="M5.406 6.489a1.09 1.09 0 1 1-2.181 0 1.09 1.09 0 1 1 2.181 0" fill="#FFFFFE" mask="url(#J)"/>
        </g>
        <g transform="translate(70.627 5.3)">
            <mask id="L" fill="#fff">
                <use xlink:href="#K"/>
            </mask>
            <path d="M5.345 6.489a1.03 1.03 0 0 1-2.06 0 1.03 1.03 0 0 1 2.06 0" fill="#FFFFFE" mask="url(#L)"/>
        </g>
        <g transform="translate(70.627 5.3)">
            <mask id="N" fill="#fff">
                <use xlink:href="#M"/>
            </mask>
            <path d="M5.285 6.489a.968.968 0 0 1-.97.967.968.968 0 1 1 0-1.934c.536 0 .97.433.97.967" fill="#FFFFFE" mask="url(#N)"/>
        </g>
        <g transform="translate(70.627 5.3)">
            <mask id="P" fill="#fff">
                <use xlink:href="#O"/>
            </mask>
            <path d="M5.224 6.489c0 .5-.407.906-.909.906a.907.907 0 1 1 .909-.906" fill="#FFFFFE" mask="url(#P)"/>
        </g>
        <g transform="translate(70.627 5.3)">
            <mask id="R" fill="#fff">
                <use xlink:href="#Q"/>
            </mask>
            <path d="M5.164 6.489a.847.847 0 0 1-1.697 0 .847.847 0 1 1 1.696 0" fill="#FFFFFE" mask="url(#R)"/>
        </g>
        <g transform="translate(70.627 5.3)">
            <mask id="T" fill="#fff">
                <use xlink:href="#S"/>
            </mask>
            <path d="M5.103 6.489a.786.786 0 1 1-1.573-.001.786.786 0 0 1 1.573.001" fill="#FFFFFE" mask="url(#T)"/>
        </g>
        <g transform="translate(70.627 5.3)">
            <mask id="V" fill="#fff">
                <use xlink:href="#U"/>
            </mask>
            <path d="M5.042 6.489a.726.726 0 1 1-.727-.726c.402 0 .727.326.727.726" fill="#FFFFFE" mask="url(#V)"/>
        </g>
        <g transform="translate(70.627 5.3)">
            <mask id="X" fill="#fff">
                <use xlink:href="#W"/>
            </mask>
            <path d="M4.982 6.489a.666.666 0 1 1-.666-.665c.368 0 .666.298.666.665" fill="#FFFFFE" mask="url(#X)"/>
        </g>
        <g transform="translate(70.627 5.3)">
            <mask id="Z" fill="#fff">
                <use xlink:href="#Y"/>
            </mask>
            <path d="M4.921 6.489a.605.605 0 1 1-1.21 0 .605.605 0 0 1 1.21 0" fill="#FFFFFE" mask="url(#Z)"/>
        </g>
        <g transform="translate(70.627 5.3)">
            <mask id="ab" fill="#fff">
                <use xlink:href="#aa"/>
            </mask>
            <path d="M4.86 6.489a.545.545 0 1 1-1.089-.001.545.545 0 0 1 1.09.001" fill="#FFFFFE" mask="url(#ab)"/>
        </g>
        <g transform="translate(70.627 5.3)">
            <mask id="ad" fill="#fff">
                <use xlink:href="#ac"/>
            </mask>
            <path d="M4.8 6.489a.484.484 0 1 1-.968-.002.484.484 0 0 1 .968.002" fill="#FFFFFE" mask="url(#ad)"/>
        </g>
        <g transform="translate(70.627 5.3)">
            <mask id="af" fill="#fff">
                <use xlink:href="#ae"/>
            </mask>
            <path d="M4.74 6.489a.424.424 0 1 1-.849-.001.424.424 0 0 1 .848.001" fill="#FFFFFE" mask="url(#af)"/>
        </g>
        <g transform="translate(70.627 5.3)">
            <mask id="ah" fill="#fff">
                <use xlink:href="#ag"/>
            </mask>
            <path d="M4.679 6.489a.363.363 0 1 1-.727-.002.363.363 0 0 1 .727.002" fill="#FFFFFE" mask="url(#ah)"/>
        </g>
        <g transform="translate(70.627 5.3)">
            <mask id="aj" fill="#fff">
                <use xlink:href="#ai"/>
            </mask>
            <path d="M4.618 6.489a.303.303 0 1 1-.605-.001.303.303 0 0 1 .605.001" fill="#FFFFFE" mask="url(#aj)"/>
        </g>
        <g transform="translate(70.627 5.3)">
            <mask id="al" fill="#fff">
                <use xlink:href="#ak"/>
            </mask>
            <path d="M4.558 6.489a.242.242 0 1 1-.485 0 .242.242 0 0 1 .485 0" fill="#FFFFFE" mask="url(#al)"/>
        </g>
        <g transform="translate(70.627 5.3)">
            <mask id="an" fill="#fff">
                <use xlink:href="#am"/>
            </mask>
            <path d="M4.497 6.489a.182.182 0 1 1-.364 0 .182.182 0 0 1 .364 0" fill="#FFFFFE" mask="url(#an)"/>
        </g>
        <g transform="translate(70.627 5.3)">
            <mask id="ap" fill="#fff">
                <use xlink:href="#ao"/>
            </mask>
            <path d="M4.436 6.489a.12.12 0 0 1-.12.12.12.12 0 1 1 0-.241.12.12 0 0 1 .12.121" fill="#FFFFFE" mask="url(#ap)"/>
        </g>
        <g transform="translate(82.172 5.3)">
            <mask id="ar" fill="#fff">
                <use xlink:href="#aq"/>
            </mask>
            <path d="M8.126.192H.8a.615.615 0 0 0-.616.614v.464c0 .34.275.614.616.614h2.12c.34 0 .616.275.616.614v9.674c0 .34.275.614.615.614h.621c.34 0 .616-.274.616-.614V2.498c0-.34.275-.614.615-.614h2.123c.34 0 .615-.275.615-.614V.806a.615.615 0 0 0-.615-.614" fill="#FFFFFE" mask="url(#ar)"/>
        </g>
        <path d="M6.256 8.387a.472.472 0 0 1-.472-.47.472.472 0 0 1 .944 0c0 .259-.212.47-.472.47m0-1.618a1.15 1.15 0 0 0-1.151 1.148 1.15 1.15 0 0 0 1.623 1.045v3.181a.339.339 0 0 0 .679 0V7.917a1.15 1.15 0 0 0-1.151-1.148m2.759 1.618a.472.472 0 0 1-.472-.47.472.472 0 0 1 .944 0c0 .259-.212.47-.472.47m0-1.618a1.15 1.15 0 0 0-1.15 1.148v2.872a.34.34 0 0 0 .678 0V8.962a1.147 1.147 0 0 0 1.623-1.045 1.15 1.15 0 0 0-1.15-1.148" fill="#FFFFFE"/>
        <path d="M9.193 18.691H6.477a.884.884 0 0 1-.883-.881c0-.5.396-.896.883-.896h2.12a.248.248 0 0 0 0-.495H6.533a.884.884 0 0 1-.884-.881v-.817c0-1.09-.5-2.135-1.41-2.945a5.104 5.104 0 0 1-1.71-3.84c.016-2.717 2.33-5.043 5.052-5.083 1.38 0 2.689.502 3.675 1.47a5.075 5.075 0 0 1 1.529 3.645 5.092 5.092 0 0 1-1.82 3.901c-.826.697-1.302 1.782-1.302 2.975a.317.317 0 0 1-.635 0c0-1.38.557-2.641 1.528-3.46a4.459 4.459 0 0 0 1.593-3.416c0-1.21-.475-2.343-1.34-3.193-.862-.848-1.975-1.32-3.219-1.288-2.385.033-4.41 2.073-4.426 4.452a4.47 4.47 0 0 0 1.498 3.364c1.047.932 1.623 2.146 1.623 3.418v.817c0 .136.111.247.248.247h2.064c.487 0 .884.396.884.882a.884.884 0 0 1-.884.881h-2.12a.248.248 0 0 0-.248.248c0 .15.11.261.248.261h2.716c.176 0 .318.142.318.317a.318.318 0 0 1-.318.317m-1.938.944h.804m-.001.338h-.803a.34.34 0 1 1 0-.677h.803a.34.34 0 1 1 0 .677" fill="#FFFFFE"/>
        <g transform="translate(9.507 .558)">
            <mask id="at" fill="#fff">
                <use xlink:href="#as"/>
            </mask>
            <path d="M.587.289a.324.324 0 0 0-.23.096.33.33 0 0 0 0 .465.326.326 0 0 0 .557-.233A.328.328 0 0 0 .82.385.324.324 0 0 0 .587.289m0 .83A.496.496 0 0 1 .234.973a.506.506 0 0 1 0-.711.51.51 0 0 1 .707 0 .502.502 0 0 1-.354.857" fill="#FFFFFE" mask="url(#at)"/>
        </g>
        <path d="M14.776 12.21a.327.327 0 1 0 0 .655.325.325 0 0 0 .327-.327.327.327 0 0 0-.327-.327m0 .826a.496.496 0 0 1-.5-.499.5.5 0 1 1 .5.5m.096-4.477a.32.32 0 0 0-.32.321.322.322 0 0 0 .642 0 .32.32 0 0 0-.321-.321m0 .811a.49.49 0 0 1-.348-.837.501.501 0 0 1 .694 0 .488.488 0 0 1 0 .694.493.493 0 0 1-.347.143m-3.385 4.898a.234.234 0 0 0-.169.07.238.238 0 0 0 0 .338.24.24 0 0 0 .338 0 .242.242 0 0 0 0-.339.236.236 0 0 0-.169-.07m0 .606a.364.364 0 0 1-.259-.107.366.366 0 0 1 0-.519.376.376 0 0 1 .518 0 .37.37 0 0 1 0 .52.364.364 0 0 1-.259.106m2.81-11.935a.193.193 0 0 0-.136.328.191.191 0 1 0 .271-.271.188.188 0 0 0-.135-.056m0 .486a.296.296 0 0 1-.208-.086.296.296 0 0 1 0-.416.298.298 0 0 1 .416 0 .298.298 0 0 1 0 .416.296.296 0 0 1-.208.086M3.851 15.095a.188.188 0 0 0-.135.057.191.191 0 0 0 0 .27.189.189 0 0 0 .271 0 .191.191 0 0 0 0-.27.19.19 0 0 0-.136-.057m0 .486a.296.296 0 0 1-.208-.086.296.296 0 0 1 0-.416.3.3 0 0 1 .416 0 .296.296 0 0 1 0 .416.296.296 0 0 1-.208.086" fill="#FFFFFE"/>
        <g transform="translate(0 12.752)">
            <mask id="av" fill="#fff">
                <use xlink:href="#au"/>
            </mask>
            <path d="M.293.358a.188.188 0 0 0-.135.057.19.19 0 0 0 0 .27.19.19 0 0 0 .271 0A.192.192 0 0 0 .293.358m0 .485A.295.295 0 0 1 .085.342a.299.299 0 0 1 .416 0 .295.295 0 0 1-.208.501" fill="#FFFFFE" mask="url(#av)"/>
        </g>
        <path d="M1.383 9.852a.322.322 0 0 0-.231.097.325.325 0 0 0-.095.231c0 .088.034.17.095.23a.33.33 0 0 0 .462 0 .321.321 0 0 0 .096-.23.322.322 0 0 0-.096-.231.32.32 0 0 0-.23-.097m0 .83a.5.5 0 1 1 .353-.148.491.491 0 0 1-.354.148m.575-6.77a.24.24 0 0 0-.172.07.243.243 0 0 0 .343.345.243.243 0 0 0 0-.344v-.001a.24.24 0 0 0-.171-.07m0 .614a.369.369 0 0 1-.372-.372c0-.098.039-.192.109-.263a.383.383 0 0 1 .525 0c.07.07.109.165.109.263a.372.372 0 0 1-.371.372" fill="#FFFFFE"/>
    </g>
</svg>
