<svg width="1em" height="1em" stroke="#0B588A" fill="none" viewBox="0 0 24 24" version="1.1" xmlns="http://www.w3.org/2000/svg" xmlns:xlink="http://www.w3.org/1999/xlink">
    <g stroke-width="1" fill-rule="evenodd" stroke-linecap="round" stroke-linejoin="round">
        <g transform="translate(3.000000, 2.000000)" stroke-width="2">
            <path d="M13.5,7.4 L4.5,2.21"></path>
            <path d="M18,14 L18,6 C17.9992679,5.28620161 17.6181681,4.62689901 17,4.27 L10,0.27 C9.38119785,-0.0872655899 8.61880215,-0.0872655899 8,0.27 L1,4.27 C0.38183192,4.62689901 0.00073214874,5.28620161 0,6 L0,14 C0.00073214874,14.7137984 0.38183192,15.373101 1,15.73 L8,19.73 C8.61880215,20.0872656 9.38119785,20.0872656 10,19.73 L17,15.73 C17.6181681,15.373101 17.9992679,14.7137984 18,14 Z"></path>
            <polyline points="0.27 4.96 9 10.01 17.73 4.96"></polyline>
            <path d="M9,20.08 L9,10"></path>
        </g>
    </g>
</svg>
