<svg width="1em" height="1em" stroke="#0B588A" fill="none" viewBox="0 0 24 24" version="1.1" xmlns="http://www.w3.org/2000/svg" xmlns:xlink="http://www.w3.org/1999/xlink">
    <g stroke-width="1" fill-rule="evenodd" stroke-linecap="round" stroke-linejoin="round">
        <g transform="translate(0.000000, 1.000000)" stroke-width="2">
            <path d="M8,18 L8,20"></path>
            <path d="M8,12 L8,14"></path>
            <path d="M16,18 L16,20"></path>
            <path d="M16,12 L16,14"></path>
            <path d="M12,20 L12,22"></path>
            <path d="M12,14 L12,16"></path>
            <path d="M20,15.58 C22.1666971,14.6310615 23.3719893,12.2936524 22.8885932,9.97818513 C22.4051971,7.66271783 20.3653864,6.00278331 18,6 L16.74,6 C15.8695943,2.62945307 12.9194928,0.208656038 9.44387933,0.0129425627 C5.96826587,-0.182770913 2.76504323,1.89152946 1.52174557,5.14305273 C0.2784479,8.394576 1.28050125,12.0768642 4,14.25"></path>
        </g>
    </g>
</svg>
