<svg width="1em" height="1em" stroke="#0B588A" fill="none" viewBox="0 0 24 24" version="1.1" xmlns="http://www.w3.org/2000/svg" xmlns:xlink="http://www.w3.org/1999/xlink">
    <g stroke-width="1" fill-rule="evenodd" stroke-linecap="round" stroke-linejoin="round">
        <g id="droplet" transform="translate(1.000000, 7.000000)" stroke-width="2">
            <path d="M6.49593762,0 L11.0945529,4.68768411 C12.9543687,6.58227981 13.5112458,9.43245301 12.5054485,11.9088413 C11.4996512,14.3852296 9.12931527,16 6.5,16 C3.87068473,16 1.5003488,14.3852296 0.494551485,11.9088413 C-0.511245831,9.43245301 0.0456312519,6.58227981 1.90544713,4.68768411 L6.49593762,0 Z"></path>
        </g>
        <g transform="translate(15.000000, 0.769231)" stroke-width="2">
            <path d="M3.99750007,0.230769231 L6.82741715,3.1605718 C7.97191923,4.34469411 8.31461282,6.12605236 7.69566062,7.67379505 C7.07670843,9.22153774 5.61804016,10.2307692 4,10.2307692 C2.38195984,10.2307692 0.92329157,9.22153774 0.304339375,7.67379505 C-0.314612819,6.12605236 0.0280807704,4.34469411 1.17258285,3.1605718 L3.99750007,0.230769231 Z"></path>
        </g>
    </g>
</svg>
