<svg width="1em" height="1em" stroke="#0B588A" fill="none" viewBox="0 0 24 24" version="1.1" xmlns="http://www.w3.org/2000/svg" xmlns:xlink="http://www.w3.org/1999/xlink">
    <g stroke-width="1" fill-rule="evenodd" stroke-linecap="round" stroke-linejoin="round">
        <g transform="translate(2.000000, 3.000000)" stroke-width="2">
            <path d="M5.50860283,4 L14.4913972,4 C15.3843579,4 16.1691299,4.59195463 16.4144451,5.45055774 L19.2715879,15.4505577 C19.5750365,16.5126278 18.9600523,17.6195993 17.8979823,17.9230479 C17.7192994,17.9741002 17.5343731,18 17.34854,18 L2.65145997,18 C1.54689047,18 0.651459968,17.1045695 0.651459968,16 C0.651459968,15.8141669 0.677359807,15.6292407 0.728412073,15.4505577 L3.58555493,5.45055774 C3.83087011,4.59195463 4.61564211,4 5.50860283,4 Z"></path>
            <g transform="translate(7.000000, 7.000000)">
                <path d="M3,0 L3,8" ></path>
                <path d="M5.5,1 L1.75000001,1 C0.783501693,1 0,1.67157288 0,2.5 C0,3.32842712 0.783501693,4 1.75000001,4 L4.25000003,4 C5.21649833,4 6,4.67157289 6,5.5 C6,6.32842711 5.21649833,7 4.25000003,7 L0,7" ></path>
            </g>
            <path d="M14,4 L14,2 C14,0.8954305 13.1045695,0 12,0 L8,0 C6.8954305,0 6,0.8954305 6,2 L6,4" ></path>
        </g>
    </g>
</svg>
