<svg width="1em" height="1em" stroke="#0B588A" fill="none" viewBox="0 0 24 24" version="1.1" xmlns="http://www.w3.org/2000/svg" xmlns:xlink="http://www.w3.org/1999/xlink">
    <g stroke-width="1" fill-rule="evenodd" stroke-linecap="round" stroke-linejoin="round">
        <g transform="translate(1.500000, 1.500000)" stroke-width="2">
            <path d="M12.7,5.3 C12.3188571,5.68884351 12.3188571,6.31115649 12.7,6.7 L14.3,8.3 C14.6888435,8.68114288 15.3111565,8.68114288 15.7,8.3 L19.47,4.53 C20.499602,6.80526348 20.0121924,9.48036447 18.2462784,11.2462784 C16.4803645,13.0121924 13.8052635,13.499602 11.53,12.47 L4.62,19.38 C3.79157288,20.2084271 2.44842712,20.2084271 1.62,19.38 C0.791572875,18.5515729 0.791572875,17.2084271 1.62,16.38 L8.53,9.47 C7.50039798,7.19473652 7.98780761,4.51963553 9.75372157,2.75372157 C11.5196355,0.987807609 14.1947365,0.500397979 16.47,1.53 L12.71,5.29 L12.7,5.3 Z"></path>
        </g>
    </g>
</svg>
