<svg width="688px" height="323px" viewBox="0 0 688 323" version="1.1" xmlns="http://www.w3.org/2000/svg" xmlns:xlink="http://www.w3.org/1999/xlink">
    <defs>
        <polygon id="path-1" points="0 0.3097 334.803952 0.3097 334.803952 222.3097 0 222.3097"></polygon>
        <polygon id="path-3" points="0.315223087 0.5997 336.163754 0.5997 336.163754 226 0.315223087 226"></polygon>
    </defs>
    <g id="Symbols" stroke="none" stroke-width="1" fill="none" fill-rule="evenodd" opacity="0.75">
        <g id="Demand-Comparison-Card---Error" transform="translate(-361.000000, -61.000000)">
            <g id="Demand-Comparison-Card">
                <g>
                    <g id="Group-32" transform="translate(19.000000, 61.000000)">
                        <g id="Group-95" transform="translate(342.000000, -3.000000)">
                            <path d="M295.2575,135.809 C295.6875,135.11 296.6085,134.879 297.3185,135.309 L311.7975,144.16 C312.4975,144.589 312.7275,145.509 312.2875,146.219 C312.0075,146.679 311.5175,146.939 311.0075,146.939 C310.7475,146.939 310.4775,146.87 310.2275,146.719 L295.7575,137.87 C295.0475,137.439 294.8275,136.519 295.2575,135.809" id="Fill-1" fill="#A2A2A3"></path>
                            <path d="M317.9479,119.2397 C317.4879,118.5497 317.6869,117.6197 318.3869,117.1697 C319.0779,116.7187 320.0079,116.9197 320.4579,117.6097 L330.2979,132.7797 C330.7479,133.4687 330.5479,134.3997 329.8469,134.8487 C329.5969,135.0187 329.3179,135.0897 329.0379,135.0897 C328.5479,135.0897 328.0679,134.8487 327.7779,134.4097 L317.9479,119.2397 Z" id="Fill-3" fill="#A2A2A3"></path>
                            <path d="M275.2477,207.1791 L271.7777,192.0091 C271.5977,191.2001 270.7977,190.6891 269.9877,190.8791 C269.1777,191.0591 268.6777,191.8691 268.8577,192.6791 L272.3277,207.8491 C272.4877,208.5391 273.0977,209.0091 273.7877,209.0091 C273.8977,209.0091 274.0077,208.9991 274.1177,208.9791 C274.9277,208.7891 275.4367,207.9901 275.2477,207.1791 L275.2477,207.1791 Z M280.2077,206.0491 L276.7377,190.8791 C276.5477,190.0701 275.7477,189.5591 274.9367,189.7491 C274.1377,189.9291 273.6277,190.7401 273.8077,191.5391 L277.2777,206.7191 C277.4367,207.4091 278.0577,207.8791 278.7377,207.8791 C278.8477,207.8791 278.9677,207.8691 279.0777,207.8391 C279.8877,207.6591 280.3877,206.8491 280.2077,206.0491 L280.2077,206.0491 Z M280.2077,206.0491 L276.7377,190.8791 C276.5477,190.0701 275.7477,189.5591 274.9367,189.7491 C274.1377,189.9291 273.6277,190.7401 273.8077,191.5391 L277.2777,206.7191 C277.4367,207.4091 278.0577,207.8791 278.7377,207.8791 C278.8477,207.8791 278.9677,207.8691 279.0777,207.8391 C279.8877,207.6591 280.3877,206.8491 280.2077,206.0491 L280.2077,206.0491 Z M275.2477,207.1791 L271.7777,192.0091 C271.5977,191.2001 270.7977,190.6891 269.9877,190.8791 C269.1777,191.0591 268.6777,191.8691 268.8577,192.6791 L272.3277,207.8491 C272.4877,208.5391 273.0977,209.0091 273.7877,209.0091 C273.8977,209.0091 274.0077,208.9991 274.1177,208.9791 C274.9277,208.7891 275.4367,207.9901 275.2477,207.1791 L275.2477,207.1791 Z M272.3277,207.8491 C272.4877,208.5391 273.0977,209.0091 273.7877,209.0091 C273.8977,209.0091 274.0077,208.9991 274.1177,208.9791 C274.9277,208.7891 275.4367,207.9901 275.2477,207.1791 L271.7777,192.0091 C271.5977,191.2001 270.7977,190.6891 269.9877,190.8791 C269.1777,191.0591 268.6777,191.8691 268.8577,192.6791 L272.3277,207.8491 Z M277.2777,206.7191 C277.4367,207.4091 278.0577,207.8791 278.7377,207.8791 C278.8477,207.8791 278.9677,207.8691 279.0777,207.8391 C279.8877,207.6591 280.3877,206.8491 280.2077,206.0491 L276.7377,190.8791 C276.5477,190.0701 275.7477,189.5591 274.9367,189.7491 C274.1377,189.9291 273.6277,190.7401 273.8077,191.5391 L277.2777,206.7191 Z M240.3977,204.3391 C241.0177,203.3491 241.9877,202.6591 243.1277,202.4001 L259.7977,198.5991 L260.7877,202.9291 C256.4077,204.0301 243.4767,207.2801 239.9577,208.0591 C239.9077,207.9191 239.8677,207.7801 239.8377,207.6391 C239.5777,206.4991 239.7777,205.3291 240.3977,204.3391 L240.3977,204.3391 Z M266.7477,181.9191 L280.1867,178.8391 C280.2177,179.1191 280.2677,179.3891 280.3277,179.6691 L287.2577,209.9901 L287.2577,209.9991 L266.6577,214.8391 C266.5377,214.5591 266.4477,214.2591 266.3777,213.9501 L261.0277,190.5191 C260.1477,186.7001 262.7177,182.8391 266.7477,181.9191 L266.7477,181.9191 Z M287.3877,172.4091 L315.1377,166.0701 C315.1577,166.3891 315.1977,166.7191 315.2777,167.0491 L323.5577,203.3091 L290.6277,211.2491 L283.2577,178.9991 C282.5777,176.0391 284.4367,173.0891 287.3877,172.4091 L287.3877,172.4091 Z M319.3477,163.5701 C319.4367,163.5491 319.5277,163.5391 319.6077,163.5391 C320.4767,163.5391 321.3377,164.4291 321.6077,165.6101 L330.4577,204.3201 L327.1867,205.1291 L318.1177,165.4901 C318.1677,164.5301 318.6377,163.7291 319.3477,163.5701 L319.3477,163.5701 Z M334.6377,209.1501 L324.5377,164.9391 C323.9477,162.3891 321.8777,160.5391 319.6077,160.5391 C319.2977,160.5391 318.9877,160.5701 318.6777,160.6391 C317.4577,160.9191 316.4767,161.7401 315.8577,162.8291 L286.7177,169.4901 C283.4977,170.2191 281.1277,172.7191 280.3777,175.7191 L266.0777,178.9901 C260.4367,180.2801 256.8577,185.7491 258.0977,191.1791 L259.1277,195.6691 L242.4577,199.4791 C240.5377,199.9091 238.9077,201.0701 237.8577,202.7401 C237.6677,203.0491 237.5077,203.3691 237.3677,203.6891 C236.2877,204.0591 221.1177,209.2401 207.4577,207.0891 L207.4577,216.2001 C209.7267,216.4901 212.1077,216.6391 214.5777,216.6391 L215.3777,216.6391 C226.9767,216.4901 236.9877,213.2291 239.4477,212.3691 C240.7377,213.4191 242.3777,214.0391 244.0977,214.0391 C244.6477,214.0391 245.1977,213.9791 245.7477,213.8491 L262.4077,210.0491 L263.4577,214.6101 C264.5177,219.2591 268.7777,222.4001 273.5177,222.4001 C274.3177,222.4001 275.1277,222.3091 275.9477,222.1291 L290.1377,218.8791 C291.7077,220.8691 294.1177,222.0991 296.7977,222.0991 C297.4367,222.0991 298.0777,222.0301 298.6977,221.8791 L328.2577,215.1291 C328.8877,215.4591 329.5877,215.6591 330.2977,215.6591 C330.6177,215.6591 330.9277,215.6291 331.2377,215.5591 C332.5077,215.2691 333.5977,214.3791 334.2267,213.1101 C334.8077,211.9291 334.9577,210.5191 334.6377,209.1501 L334.6377,209.1501 Z M271.7777,192.0091 C271.5977,191.2001 270.7977,190.6891 269.9877,190.8791 C269.1777,191.0591 268.6777,191.8691 268.8577,192.6791 L272.3277,207.8491 C272.4877,208.5391 273.0977,209.0091 273.7877,209.0091 C273.8977,209.0091 274.0077,208.9991 274.1177,208.9791 C274.9277,208.7891 275.4367,207.9901 275.2477,207.1791 L271.7777,192.0091 Z M280.2077,206.0491 L276.7377,190.8791 C276.5477,190.0701 275.7477,189.5591 274.9367,189.7491 C274.1377,189.9291 273.6277,190.7401 273.8077,191.5391 L277.2777,206.7191 C277.4367,207.4091 278.0577,207.8791 278.7377,207.8791 C278.8477,207.8791 278.9677,207.8691 279.0777,207.8391 C279.8877,207.6591 280.3877,206.8491 280.2077,206.0491 L280.2077,206.0491 Z M280.2077,206.0491 L276.7377,190.8791 C276.5477,190.0701 275.7477,189.5591 274.9367,189.7491 C274.1377,189.9291 273.6277,190.7401 273.8077,191.5391 L277.2777,206.7191 C277.4367,207.4091 278.0577,207.8791 278.7377,207.8791 C278.8477,207.8791 278.9677,207.8691 279.0777,207.8391 C279.8877,207.6591 280.3877,206.8491 280.2077,206.0491 L280.2077,206.0491 Z M275.2477,207.1791 L271.7777,192.0091 C271.5977,191.2001 270.7977,190.6891 269.9877,190.8791 C269.1777,191.0591 268.6777,191.8691 268.8577,192.6791 L272.3277,207.8491 C272.4877,208.5391 273.0977,209.0091 273.7877,209.0091 C273.8977,209.0091 274.0077,208.9991 274.1177,208.9791 C274.9277,208.7891 275.4367,207.9901 275.2477,207.1791 L275.2477,207.1791 Z M275.2477,207.1791 L271.7777,192.0091 C271.5977,191.2001 270.7977,190.6891 269.9877,190.8791 C269.1777,191.0591 268.6777,191.8691 268.8577,192.6791 L272.3277,207.8491 C272.4877,208.5391 273.0977,209.0091 273.7877,209.0091 C273.8977,209.0091 274.0077,208.9991 274.1177,208.9791 C274.9277,208.7891 275.4367,207.9901 275.2477,207.1791 L275.2477,207.1791 Z M280.2077,206.0491 L276.7377,190.8791 C276.5477,190.0701 275.7477,189.5591 274.9367,189.7491 C274.1377,189.9291 273.6277,190.7401 273.8077,191.5391 L277.2777,206.7191 C277.4367,207.4091 278.0577,207.8791 278.7377,207.8791 C278.8477,207.8791 278.9677,207.8691 279.0777,207.8391 C279.8877,207.6591 280.3877,206.8491 280.2077,206.0491 L280.2077,206.0491 Z M280.2077,206.0491 L276.7377,190.8791 C276.5477,190.0701 275.7477,189.5591 274.9367,189.7491 C274.1377,189.9291 273.6277,190.7401 273.8077,191.5391 L277.2777,206.7191 C277.4367,207.4091 278.0577,207.8791 278.7377,207.8791 C278.8477,207.8791 278.9677,207.8691 279.0777,207.8391 C279.8877,207.6591 280.3877,206.8491 280.2077,206.0491 L280.2077,206.0491 Z M275.2477,207.1791 L271.7777,192.0091 C271.5977,191.2001 270.7977,190.6891 269.9877,190.8791 C269.1777,191.0591 268.6777,191.8691 268.8577,192.6791 L272.3277,207.8491 C272.4877,208.5391 273.0977,209.0091 273.7877,209.0091 C273.8977,209.0091 274.0077,208.9991 274.1177,208.9791 C274.9277,208.7891 275.4367,207.9901 275.2477,207.1791 L275.2477,207.1791 Z" id="Fill-5" fill="#A2A2A3"></path>
                            <path d="M336.0075,231.8891 L327.1575,246.7491 C326.8775,247.2191 326.3775,247.4791 325.8675,247.4791 C325.6085,247.4791 325.3375,247.4101 325.0975,247.2691 C324.3875,246.8391 324.1575,245.9191 324.5775,245.2091 L333.4275,230.3491 C333.8475,229.6391 334.7785,229.4101 335.4875,229.8291 C336.1975,230.2491 336.4275,231.1791 336.0075,231.8891" id="Fill-7" fill="#A2A2A3"></path>
                            <path d="M350.4079,111.5092 L349.8979,128.3692 C349.8679,129.1792 349.2079,129.8202 348.3979,129.8202 L348.3469,129.8202 C347.5279,129.7992 346.8679,129.0992 346.8979,128.2802 L347.4079,111.4192 C347.4369,110.5992 348.1579,109.9492 348.9579,109.9692 C349.7879,109.9892 350.4369,110.6892 350.4079,111.5092" id="Fill-9" fill="#A2A2A3"></path>
                            <path d="M356.1676,234.7992 L355.6576,251.6502 C355.6376,252.4592 354.9676,253.0992 354.1576,253.0992 L354.1176,253.0992 C353.2876,253.0792 352.6376,252.3892 352.6576,251.5592 L353.1676,234.6992 C353.1976,233.8792 353.9276,233.1992 354.7176,233.2492 C355.5476,233.2792 356.1976,233.9692 356.1676,234.7992" id="Fill-11" fill="#A2A2A3"></path>
                            <path d="M367.068,131.1791 L375.918,116.3291 C376.338,115.6101 377.257,115.3791 377.967,115.8091 C378.677,116.2291 378.918,117.1501 378.488,117.8601 L369.637,132.7191 C369.358,133.1891 368.858,133.4501 368.347,133.4501 C368.088,133.4501 367.828,133.3791 367.588,133.2401 C366.878,132.8201 366.637,131.9001 367.068,131.1791" id="Fill-13" fill="#A2A2A3"></path>
                            <path d="M385.1276,243.8295 C385.5776,244.5185 385.3776,245.4495 384.6876,245.8995 C384.4276,246.0695 384.1486,246.1395 383.8676,246.1395 C383.3776,246.1395 382.8986,245.8995 382.6076,245.4595 L372.7776,230.2895 C372.3276,229.5995 372.5276,228.6695 373.2176,228.2195 C373.9176,227.7685 374.8476,227.9695 375.2976,228.6595 L385.1276,243.8295 Z" id="Fill-15" fill="#A2A2A3"></path>
                            <path d="M407.818,227.2592 C407.528,227.7192 407.038,227.9792 406.538,227.9792 C406.267,227.9792 405.998,227.9092 405.748,227.7592 L391.278,218.9192 C390.568,218.4792 390.347,217.5592 390.778,216.8492 C391.208,216.1392 392.137,215.9292 392.838,216.3492 L407.318,225.1992 C408.028,225.6292 408.248,226.5492 407.818,227.2592" id="Fill-17" fill="#A2A2A3"></path>
                            <path d="M427.6774,170.8998 L423.9174,155.7898 C423.7174,154.9898 422.8984,154.4998 422.0974,154.6998 C421.2974,154.8998 420.8074,155.7188 421.0074,156.5188 L424.7674,171.6198 C424.9374,172.2988 425.5474,172.7588 426.2174,172.7588 C426.3374,172.7588 426.4674,172.7398 426.5874,172.7098 C427.3874,172.5088 427.8774,171.6998 427.6774,170.8998 L427.6774,170.8998 Z M432.6084,169.6698 L428.8474,154.5698 C428.6484,153.7588 427.8274,153.2688 427.0284,153.4688 C426.2274,153.6698 425.7384,154.4898 425.9374,155.2898 L429.6984,170.3888 C429.8674,171.0698 430.4774,171.5298 431.1574,171.5298 C431.2784,171.5298 431.3984,171.5188 431.5174,171.4788 C432.3184,171.2798 432.8074,170.4688 432.6084,169.6698 L432.6084,169.6698 Z M432.6084,169.6698 L428.8474,154.5698 C428.6484,153.7588 427.8274,153.2688 427.0284,153.4688 C426.2274,153.6698 425.7384,154.4898 425.9374,155.2898 L429.6984,170.3888 C429.8674,171.0698 430.4774,171.5298 431.1574,171.5298 C431.2784,171.5298 431.3984,171.5188 431.5174,171.4788 C432.3184,171.2798 432.8074,170.4688 432.6084,169.6698 L432.6084,169.6698 Z M427.6774,170.8998 L423.9174,155.7898 C423.7174,154.9898 422.8984,154.4998 422.0974,154.6998 C421.2974,154.8998 420.8074,155.7188 421.0074,156.5188 L424.7674,171.6198 C424.9374,172.2988 425.5474,172.7588 426.2174,172.7588 C426.3374,172.7588 426.4674,172.7398 426.5874,172.7098 C427.3874,172.5088 427.8774,171.6998 427.6774,170.8998 L427.6774,170.8998 Z M427.6774,170.8998 L423.9174,155.7898 C423.7174,154.9898 422.8984,154.4998 422.0974,154.6998 C421.2974,154.8998 420.8074,155.7188 421.0074,156.5188 L424.7674,171.6198 C424.9374,172.2988 425.5474,172.7588 426.2174,172.7588 C426.3374,172.7588 426.4674,172.7398 426.5874,172.7098 C427.3874,172.5088 427.8774,171.6998 427.6774,170.8998 L427.6774,170.8998 Z M432.6084,169.6698 L428.8474,154.5698 C428.6484,153.7588 427.8274,153.2688 427.0284,153.4688 C426.2274,153.6698 425.7384,154.4898 425.9374,155.2898 L429.6984,170.3888 C429.8674,171.0698 430.4774,171.5298 431.1574,171.5298 C431.2784,171.5298 431.3984,171.5188 431.5174,171.4788 C432.3184,171.2798 432.8074,170.4688 432.6084,169.6698 L432.6084,169.6698 Z M432.6084,169.6698 L428.8474,154.5698 C428.6484,153.7588 427.8274,153.2688 427.0284,153.4688 C426.2274,153.6698 425.7384,154.4898 425.9374,155.2898 L429.6984,170.3888 C429.8674,171.0698 430.4774,171.5298 431.1574,171.5298 C431.2784,171.5298 431.3984,171.5188 431.5174,171.4788 C432.3184,171.2798 432.8074,170.4688 432.6084,169.6698 L432.6084,169.6698 Z M427.6774,170.8998 L423.9174,155.7898 C423.7174,154.9898 422.8984,154.4998 422.0974,154.6998 C421.2974,154.8998 420.8074,155.7188 421.0074,156.5188 L424.7674,171.6198 C424.9374,172.2988 425.5474,172.7588 426.2174,172.7588 C426.3374,172.7588 426.4674,172.7398 426.5874,172.7098 C427.3874,172.5088 427.8774,171.6998 427.6774,170.8998 L427.6774,170.8998 Z M424.7674,171.6198 C424.9374,172.2988 425.5474,172.7588 426.2174,172.7588 C426.3374,172.7588 426.4674,172.7398 426.5874,172.7098 C427.3874,172.5088 427.8774,171.6998 427.6774,170.8998 L423.9174,155.7898 C423.7174,154.9898 422.8984,154.4998 422.0974,154.6998 C421.2974,154.8998 420.8074,155.7188 421.0074,156.5188 L424.7674,171.6198 Z M429.6984,170.3888 C429.8674,171.0698 430.4774,171.5298 431.1574,171.5298 C431.2784,171.5298 431.3984,171.5188 431.5174,171.4788 C432.3184,171.2798 432.8074,170.4688 432.6084,169.6698 L428.8474,154.5698 C428.6484,153.7588 427.8274,153.2688 427.0284,153.4688 C426.2274,153.6698 425.7384,154.4898 425.9374,155.2898 L429.6984,170.3888 Z M362.5684,191.1198 L377.7784,187.3388 L378.1174,188.7288 C374.2974,189.6388 363.9484,192.1098 360.5574,193.0088 C360.6274,192.2098 361.4484,191.3998 362.5684,191.1198 L362.5684,191.1198 Z M354.6774,167.1888 C355.0474,166.6888 355.6574,166.3088 356.3474,166.1388 L371.5574,162.3488 L371.9574,163.9788 C368.0684,164.9098 357.5974,167.4198 354.3274,168.2898 C354.2674,167.8088 354.5174,167.4098 354.6774,167.1888 L354.6774,167.1888 Z M394.3584,171.8888 L394.6874,173.2098 L378.3584,177.2688 L378.0374,175.9898 L394.3584,171.8888 Z M401.8474,147.5488 L410.6374,182.8388 L381.5974,190.2798 L379.0874,180.1788 L398.3184,175.3888 L396.0284,166.1788 L376.7874,170.9688 L372.7674,154.7898 L401.8474,147.5488 Z M404.5874,143.5888 C404.7074,143.3298 405.0074,142.8598 405.5374,142.7188 C405.6274,142.6998 405.7274,142.6888 405.8274,142.6888 C406.6774,142.6888 407.5474,143.5588 407.8374,144.7188 L417.5284,183.6098 L414.2074,184.4898 L404.3584,144.9098 C404.3274,144.4388 404.4074,143.9788 404.5874,143.5888 L404.5874,143.5888 Z M425.8674,144.0088 C427.8274,143.5298 429.8374,143.7988 431.5474,144.7688 C433.2274,145.7288 434.4074,147.2688 434.8674,149.0988 L440.6674,172.4198 C440.7574,172.7688 440.8184,173.1198 440.8474,173.4688 L419.3584,178.5588 L411.6374,147.5588 L425.8674,144.0088 Z M455.6484,151.7498 C457.9774,151.1698 460.3474,152.5888 460.9484,154.9098 L440.6574,159.9598 L439.6084,155.7498 L455.6484,151.7498 Z M460.7174,149.8198 C459.0684,148.7498 456.9884,148.3298 454.9274,148.8388 L438.8874,152.8388 L437.7784,148.3698 C437.1174,145.7398 435.4374,143.5398 433.0374,142.1598 C430.6574,140.8088 427.8584,140.4288 425.1484,141.0988 L410.9074,144.6498 L410.7474,143.9898 C410.1174,141.4598 408.0874,139.6888 405.8274,139.6888 C405.4774,139.6888 405.1374,139.7288 404.8074,139.8088 C403.5374,140.1288 402.4674,141.0398 401.8674,142.3198 C401.5474,143.0088 401.3874,143.7898 401.3584,144.5798 L369.1274,152.5988 L370.8274,159.4388 L355.6174,163.2288 C354.2474,163.5698 353.0574,164.3298 352.2784,165.3888 C351.4274,166.5188 351.1174,167.8888 351.4374,169.1598 C351.7574,170.4288 352.6674,171.4998 353.9484,172.0988 C354.6874,172.4598 355.5284,172.6288 356.3774,172.6288 C356.8874,172.6288 357.4074,172.5698 357.9174,172.4388 L373.1274,168.6598 L377.0474,184.4288 L361.8374,188.2098 C358.9074,188.9498 357.0284,191.6098 357.6574,194.1498 C358.1874,196.2498 360.2574,197.6198 362.6174,197.6198 C363.1174,197.6198 363.6274,197.5588 364.1374,197.4288 L379.3474,193.6388 L381.0574,200.5188 L413.4974,192.4388 C414.4484,193.7588 415.8674,194.5988 417.4174,194.5988 C417.7574,194.5988 418.0974,194.5588 418.4274,194.4688 C419.6984,194.1598 420.7674,193.2398 421.3674,191.9688 C421.9274,190.7688 422.0474,189.3598 421.7074,187.9998 L421.6084,187.5798 L435.8374,184.0398 C438.5474,183.3698 440.8474,181.7188 442.3074,179.3998 C443.7874,177.0588 444.2384,174.3298 443.5774,171.6888 L442.4484,167.1498 L458.4884,163.1498 C460.9974,162.5298 462.8774,160.6888 463.6674,158.4198 C468.1774,157.3198 474.0974,156.0698 480.5474,155.1888 L480.5474,146.0398 C472.8474,147.0088 465.8584,148.5188 460.7174,149.8198 L460.7174,149.8198 Z M423.9174,155.7898 C423.7174,154.9898 422.8984,154.4998 422.0974,154.6998 C421.2974,154.8998 420.8074,155.7188 421.0074,156.5188 L424.7674,171.6198 C424.9374,172.2988 425.5474,172.7588 426.2174,172.7588 C426.3374,172.7588 426.4674,172.7398 426.5874,172.7098 C427.3874,172.5088 427.8774,171.6998 427.6774,170.8998 L423.9174,155.7898 Z M432.6084,169.6698 L428.8474,154.5698 C428.6484,153.7588 427.8274,153.2688 427.0284,153.4688 C426.2274,153.6698 425.7384,154.4898 425.9374,155.2898 L429.6984,170.3888 C429.8674,171.0698 430.4774,171.5298 431.1574,171.5298 C431.2784,171.5298 431.3984,171.5188 431.5174,171.4788 C432.3184,171.2798 432.8074,170.4688 432.6084,169.6698 L432.6084,169.6698 Z M432.6084,169.6698 L428.8474,154.5698 C428.6484,153.7588 427.8274,153.2688 427.0284,153.4688 C426.2274,153.6698 425.7384,154.4898 425.9374,155.2898 L429.6984,170.3888 C429.8674,171.0698 430.4774,171.5298 431.1574,171.5298 C431.2784,171.5298 431.3984,171.5188 431.5174,171.4788 C432.3184,171.2798 432.8074,170.4688 432.6084,169.6698 L432.6084,169.6698 Z M427.6774,170.8998 L423.9174,155.7898 C423.7174,154.9898 422.8984,154.4998 422.0974,154.6998 C421.2974,154.8998 420.8074,155.7188 421.0074,156.5188 L424.7674,171.6198 C424.9374,172.2988 425.5474,172.7588 426.2174,172.7588 C426.3374,172.7588 426.4674,172.7398 426.5874,172.7098 C427.3874,172.5088 427.8774,171.6998 427.6774,170.8998 L427.6774,170.8998 Z M427.6774,170.8998 L423.9174,155.7898 C423.7174,154.9898 422.8984,154.4998 422.0974,154.6998 C421.2974,154.8998 420.8074,155.7188 421.0074,156.5188 L424.7674,171.6198 C424.9374,172.2988 425.5474,172.7588 426.2174,172.7588 C426.3374,172.7588 426.4674,172.7398 426.5874,172.7098 C427.3874,172.5088 427.8774,171.6998 427.6774,170.8998 L427.6774,170.8998 Z M432.6084,169.6698 L428.8474,154.5698 C428.6484,153.7588 427.8274,153.2688 427.0284,153.4688 C426.2274,153.6698 425.7384,154.4898 425.9374,155.2898 L429.6984,170.3888 C429.8674,171.0698 430.4774,171.5298 431.1574,171.5298 C431.2784,171.5298 431.3984,171.5188 431.5174,171.4788 C432.3184,171.2798 432.8074,170.4688 432.6084,169.6698 L432.6084,169.6698 Z M432.6084,169.6698 L428.8474,154.5698 C428.6484,153.7588 427.8274,153.2688 427.0284,153.4688 C426.2274,153.6698 425.7384,154.4898 425.9374,155.2898 L429.6984,170.3888 C429.8674,171.0698 430.4774,171.5298 431.1574,171.5298 C431.2784,171.5298 431.3984,171.5188 431.5174,171.4788 C432.3184,171.2798 432.8074,170.4688 432.6084,169.6698 L432.6084,169.6698 Z M427.6774,170.8998 L423.9174,155.7898 C423.7174,154.9898 422.8984,154.4998 422.0974,154.6998 C421.2974,154.8998 420.8074,155.7188 421.0074,156.5188 L424.7674,171.6198 C424.9374,172.2988 425.5474,172.7588 426.2174,172.7588 C426.3374,172.7588 426.4674,172.7398 426.5874,172.7098 C427.3874,172.5088 427.8774,171.6998 427.6774,170.8998 L427.6774,170.8998 Z" id="Fill-19" fill="#A2A2A3"></path>
                            <polygon id="Fill-21" fill="#D7D7D7" points="333.3581 210.3998 331.5281 213.7988 327.6481 212.3088 327.5681 212.2798 327.0281 209.9288 326.9371 209.5988 325.9771 205.4288 327.1871 205.1288 330.4581 204.3198 331.8371 203.9788"></polygon>
                            <path d="M407.818,227.2592 C407.528,227.7192 407.038,227.9792 406.538,227.9792 C406.267,227.9792 405.998,227.9092 405.748,227.7592 L391.278,218.9192 C390.568,218.4792 390.347,217.5592 390.778,216.8492 C391.208,216.1392 392.137,215.9292 392.838,216.3492 L407.318,225.1992 C408.028,225.6292 408.248,226.5492 407.818,227.2592" id="Fill-23" fill="#A7A6A6"></path>
                            <path d="M384.6872,245.8998 C384.4272,246.0698 384.1482,246.1388 383.8682,246.1388 C383.3772,246.1388 382.8982,245.8998 382.6082,245.4598 L372.7782,230.2898 C372.3282,229.5988 372.5282,228.6698 373.2172,228.2188 C373.9172,227.7688 374.8472,227.9688 375.2972,228.6598 L385.1272,243.8298 C385.5782,244.5188 385.3772,245.4498 384.6872,245.8998" id="Fill-25" fill="#A7A6A6"></path>
                            <path d="M356.1676,234.7992 L355.6576,251.6502 C355.6376,252.4592 354.9676,253.0992 354.1576,253.0992 L354.1176,253.0992 C353.2876,253.0792 352.6376,252.3892 352.6576,251.5592 L353.1676,234.6992 C353.1976,233.8792 353.9276,233.1992 354.7176,233.2492 C355.5476,233.2792 356.1976,233.9692 356.1676,234.7992" id="Fill-27" fill="#A7A6A6"></path>
                            <path d="M336.0075,231.8891 L327.1575,246.7491 C326.8775,247.2191 326.3775,247.4791 325.8675,247.4791 C325.6085,247.4791 325.3375,247.4101 325.0975,247.2691 C324.3875,246.8391 324.1575,245.9191 324.5775,245.2091 L333.4275,230.3491 C333.8475,229.6391 334.7785,229.4101 335.4875,229.8291 C336.1975,230.2491 336.4275,231.1791 336.0075,231.8891" id="Fill-29" fill="#A7A6A6"></path>
                            <path d="M312.2878,146.2192 C312.0078,146.6792 311.5168,146.9392 311.0078,146.9392 C310.7478,146.9392 310.4768,146.8692 310.2268,146.7192 L295.7578,137.8692 C295.0478,137.4392 294.8278,136.5192 295.2578,135.8092 C295.6868,135.1102 296.6078,134.8792 297.3178,135.3092 L311.7978,144.1592 C312.4978,144.5892 312.7268,145.5092 312.2878,146.2192" id="Fill-31" fill="#A7A6A6"></path>
                            <path d="M329.8473,134.849 C329.5973,135.019 329.3183,135.089 329.0373,135.089 C328.5473,135.089 328.0683,134.849 327.7783,134.41 L317.9483,119.24 C317.4883,118.549 317.6873,117.62 318.3873,117.169 C319.0773,116.719 320.0073,116.919 320.4573,117.61 L330.2973,132.78 C330.7473,133.469 330.5473,134.4 329.8473,134.849" id="Fill-33" fill="#A7A6A6"></path>
                            <path d="M350.4079,111.5092 L349.8979,128.3692 C349.8679,129.1792 349.2079,129.8202 348.3979,129.8202 L348.3469,129.8202 C347.5279,129.7992 346.8679,129.0992 346.8979,128.2802 L347.4079,111.4192 C347.4369,110.5992 348.1579,109.9492 348.9579,109.9692 C349.7879,109.9892 350.4369,110.6892 350.4079,111.5092" id="Fill-35" fill="#A7A6A6"></path>
                            <path d="M378.4879,117.8598 L369.6369,132.7188 C369.3579,133.1888 368.8579,133.4498 368.3469,133.4498 C368.0879,133.4498 367.8279,133.3798 367.5879,133.2398 C366.8779,132.8198 366.6369,131.8998 367.0679,131.1788 L375.9179,116.3298 C376.3379,115.6098 377.2579,115.3798 377.9669,115.8088 C378.6769,116.2288 378.9179,117.1498 378.4879,117.8598" id="Fill-37" fill="#A7A6A6"></path>
                            <polygon id="Fill-39" fill="#D7D7D7" points="327.8874 213.2192 297.2384 220.8602 290.9574 218.3202 290.5174 217.0302 288.6984 211.7192 289.0874 211.6292 290.6274 211.2492 323.5574 203.3092 325.1774 202.9192 327.0284 209.9292 327.6484 212.3092"></polygon>
                            <polygon id="Fill-41" fill="#D7D7D7" points="290.9372 216.9389 290.5172 217.0299 272.8182 220.8389 266.4482 218.1689 265.6582 215.0799 266.6582 214.8389 287.2572 209.9999 287.2572 209.9899 288.4272 209.7189 289.0872 211.6289"></polygon>
                            <path d="M263.568,208.2895 L244.288,212.2895 L240.017,210.8395 L239.108,208.2285 C239.208,208.2195 239.507,208.1595 239.958,208.0595 C243.477,207.2795 256.408,204.0295 260.788,202.9295 C261.708,202.6995 262.248,202.5595 262.248,202.5595 L263.568,208.2895 Z" id="Fill-43" fill="#D7D7D7"></path>
                            <path d="M274.1178,208.9789 C274.0078,208.9999 273.8978,209.0089 273.7878,209.0089 C273.0968,209.0089 272.4878,208.5399 272.3278,207.8489 L268.8578,192.6789 C268.6778,191.8699 269.1778,191.0589 269.9878,190.8789 C270.7978,190.6889 271.5968,191.1999 271.7778,192.0089 L275.2478,207.1789 C275.4368,207.9899 274.9278,208.7899 274.1178,208.9789" id="Fill-45" fill="#A7A6A6"></path>
                            <path d="M279.0778,207.8393 C278.9678,207.8693 278.8478,207.8793 278.7378,207.8793 C278.0568,207.8793 277.4368,207.4093 277.2778,206.7193 L273.8068,191.5393 C273.6278,190.7393 274.1378,189.9293 274.9368,189.7493 C275.7478,189.5593 276.5478,190.0693 276.7378,190.8793 L280.2078,206.0493 C280.3878,206.8493 279.8878,207.6593 279.0778,207.8393" id="Fill-47" fill="#A7A6A6"></path>
                            <path d="M330.4577,204.3197 L327.1867,205.1297 L318.1177,165.4897 C318.1677,164.5297 318.6377,163.7287 319.3477,163.5697 C319.4367,163.5487 319.5277,163.5397 319.6077,163.5397 C320.4777,163.5397 321.3377,164.4287 321.6077,165.6097 L330.4577,204.3197 Z" id="Fill-49" fill="#FEFEFE"></path>
                            <path d="M323.5573,203.309 L290.6273,211.249 L283.2573,178.999 C282.5783,176.039 284.4373,173.089 287.3873,172.41 L315.1373,166.07 C315.1583,166.389 315.1983,166.719 315.2783,167.049 L323.5573,203.309 Z" id="Fill-51" fill="#FEFEFE"></path>
                            <path d="M279.0778,207.8393 C278.9678,207.8693 278.8478,207.8793 278.7378,207.8793 C278.0568,207.8793 277.4368,207.4093 277.2778,206.7193 L273.8068,191.5393 C273.6278,190.7393 274.1378,189.9293 274.9368,189.7493 C275.7478,189.5593 276.5478,190.0693 276.7378,190.8793 L280.2078,206.0493 C280.3878,206.8493 279.8878,207.6593 279.0778,207.8393 L279.0778,207.8393 Z M274.1178,208.9793 C274.0078,208.9993 273.8978,209.0093 273.7878,209.0093 C273.0978,209.0093 272.4878,208.5393 272.3278,207.8493 L268.8578,192.6793 C268.6778,191.8693 269.1778,191.0593 269.9878,190.8793 C270.7978,190.6893 271.5978,191.1993 271.7778,192.0093 L275.2478,207.1793 C275.4368,207.9893 274.9278,208.7893 274.1178,208.9793 L274.1178,208.9793 Z M280.3278,179.6693 C280.2668,179.3893 280.2178,179.1193 280.1868,178.8393 L266.7478,181.9193 C262.7178,182.8393 260.1478,186.6993 261.0278,190.5193 L266.3778,213.9493 C266.4478,214.2593 266.5378,214.5593 266.6578,214.8393 L287.2578,209.9993 L287.2578,209.9893 L280.3278,179.6693 Z" id="Fill-53" fill="#FEFEFE"></path>
                            <path d="M260.7878,202.9291 C256.4078,204.0301 243.4768,207.2801 239.9578,208.0591 C239.9078,207.9191 239.8678,207.7801 239.8378,207.6391 C239.5778,206.4991 239.7778,205.3291 240.3978,204.3391 C241.0168,203.3491 241.9878,202.6591 243.1278,202.4001 L259.7978,198.5991 L260.7878,202.9291 Z" id="Fill-55" fill="#FEFEFE"></path>
                            <polygon id="Fill-57" fill="#D7D7D7" points="413.6178 191.1391 381.9478 198.5191 380.3468 191.3891 380.2378 190.9191 380.1778 190.6391 381.5968 190.2801 410.6378 182.8391 411.4278 182.6391"></polygon>
                            <polygon id="Fill-59" fill="#D7D7D7" points="442.7477 173.019 439.0577 181.389 420.1577 186.439 417.9077 178.9 419.3577 178.559 440.8477 173.469"></polygon>
                            <path d="M374.2477,166.6391 L355.5577,171.1391 C355.5577,171.1391 353.1477,170.8891 353.3377,168.5791 C353.3377,168.5591 353.6977,168.4501 354.3277,168.2891 C357.5977,167.4191 368.0677,164.9101 371.9577,163.9791 C372.8777,163.7691 373.4277,163.6391 373.4277,163.6391 L374.2477,166.6391 Z" id="Fill-61" fill="#D7D7D7"></path>
                            <path d="M380.3678,191.3891 L380.3468,191.3891 L361.6778,195.8891 C361.6778,195.8891 359.2778,195.6391 359.4578,193.3291 C359.4578,193.2991 359.8678,193.1891 360.5568,193.0091 C363.9478,192.1101 374.2978,189.6391 378.1178,188.7291 C379.0168,188.5191 379.5568,188.3891 379.5568,188.3891 L380.2268,190.8601 L380.2378,190.9191 L380.3678,191.3891 Z" id="Fill-63" fill="#D7D7D7"></path>
                            <path d="M395.3678,171.6391 L394.3578,171.8891 L378.0378,175.9901 L376.8068,176.2991 C376.8068,176.2991 376.3678,174.8891 376.0878,173.3891 C376.0878,173.2001 394.5568,168.6391 394.5568,168.6391 L395.3678,171.6391 Z" id="Fill-65" fill="#D7D7D7"></path>
                            <polygon id="Fill-67" fill="#D7D7D7" points="462.6979 154.4789 460.6979 161.0589 441.1179 165.8089 439.9479 160.1389 440.6579 159.9589 460.9479 154.9099"></polygon>
                            <polygon id="Fill-69" fill="#D7D7D7" points="420.6178 189.559 418.2878 193.139 414.4478 190.979 412.6978 184.889 414.2078 184.49 417.5278 183.61 418.9478 183.229"></polygon>
                            <path d="M426.5876,172.7094 C426.4676,172.7394 426.3376,172.7594 426.2176,172.7594 C425.5476,172.7594 424.9376,172.2994 424.7676,171.6194 L421.0076,156.5194 C420.8076,155.7194 421.2976,154.8994 422.0976,154.6994 C422.8986,154.4994 423.7176,154.9894 423.9176,155.7894 L427.6776,170.8994 C427.8776,171.6994 427.3876,172.5094 426.5876,172.7094" id="Fill-71" fill="#A7A6A6"></path>
                            <path d="M431.5172,171.4789 C431.3982,171.5189 431.2782,171.5299 431.1582,171.5299 C430.4772,171.5299 429.8682,171.0699 429.6982,170.3889 L425.9372,155.2899 C425.7382,154.4899 426.2272,153.6689 427.0282,153.4689 C427.8282,153.2689 428.6482,153.7589 428.8472,154.5699 L432.6082,169.6689 C432.8072,170.4689 432.3182,171.2799 431.5172,171.4789" id="Fill-73" fill="#A7A6A6"></path>
                            <path d="M378.1178,188.7289 C374.2978,189.6389 363.9478,192.1099 360.5568,193.0089 C360.6278,192.2089 361.4478,191.3999 362.5678,191.1199 L377.7778,187.3389 L378.1178,188.7289 Z" id="Fill-75" fill="#FEFEFE"></path>
                            <path d="M371.9577,163.9789 C368.0677,164.9099 357.5977,167.4189 354.3277,168.2899 C354.2677,167.8089 354.5177,167.4099 354.6777,167.1889 C355.0477,166.6889 355.6577,166.3089 356.3477,166.1389 L371.5577,162.3489 L371.9577,163.9789 Z" id="Fill-77" fill="#FEFEFE"></path>
                            <polygon id="Fill-79" fill="#FEFEFE" points="394.6872 173.2094 378.3582 177.2694 378.0382 175.9894 394.3582 171.8894"></polygon>
                            <path d="M460.9479,154.9096 L440.6579,159.9596 L439.6079,155.7496 L455.6479,151.7496 C457.9769,151.1696 460.3469,152.5896 460.9479,154.9096" id="Fill-81" fill="#FEFEFE"></path>
                            <path d="M431.5172,171.4789 C431.3982,171.5189 431.2782,171.5299 431.1582,171.5299 C430.4772,171.5299 429.8682,171.0699 429.6982,170.3889 L425.9372,155.2899 C425.7382,154.4899 426.2272,153.6689 427.0282,153.4689 C427.8282,153.2689 428.6482,153.7589 428.8472,154.5699 L432.6082,169.6689 C432.8072,170.4689 432.3182,171.2799 431.5172,171.4789 M426.5872,172.7089 C426.4672,172.7399 426.3372,172.7589 426.2172,172.7589 C425.5472,172.7589 424.9372,172.2989 424.7672,171.6199 L421.0072,156.5189 C420.8072,155.7189 421.2972,154.8999 422.0972,154.6999 C422.8982,154.4999 423.7172,154.9899 423.9172,155.7899 L427.6772,170.8999 C427.8772,171.6999 427.3872,172.5089 426.5872,172.7089 M440.6672,172.4189 L434.8682,149.0989 C434.4082,147.2689 433.2272,145.7289 431.5472,144.7689 C429.8372,143.7989 427.8282,143.5299 425.8682,144.0089 L411.6372,147.5589 L419.3582,178.5589 L440.8472,173.4689 C440.8182,173.1199 440.7572,172.7689 440.6672,172.4189" id="Fill-83" fill="#FEFEFE"></path>
                            <path d="M417.528,183.6098 L414.208,184.4898 L404.358,144.9098 C404.328,144.4388 404.408,143.9788 404.588,143.5888 C404.708,143.3298 405.007,142.8598 405.538,142.7188 C405.628,142.6998 405.727,142.6888 405.828,142.6888 C406.677,142.6888 407.548,143.5588 407.838,144.7188 L417.528,183.6098 Z" id="Fill-85" fill="#FEFEFE"></path>
                            <polygon id="Fill-87" fill="#FEFEFE" points="410.6374 182.8393 381.5974 190.2793 379.0874 180.1793 398.3184 175.3893 396.0284 166.1793 376.7874 170.9693 372.7674 154.7893 401.8474 147.5493"></polygon>
                            <g id="Group-91" transform="translate(0.000000, 0.090000)">
                                <mask id="mask-2" fill="white">
                                    <use xlink:href="#path-1"></use>
                                </mask>
                                <g id="Clip-90"></g>
                                <path d="M331.5387,211.6897 C331.3987,211.9607 331.0987,212.4197 330.5687,212.5407 C329.8487,212.7007 329.0787,212.1797 328.6287,211.3397 L327.1877,205.0407 L318.1187,165.3997 C318.1687,164.4397 318.6387,163.6397 319.3487,163.4797 C319.4377,163.4607 319.5287,163.4507 319.6087,163.4507 C320.4787,163.4507 321.3387,164.3397 321.6087,165.5197 L330.4587,204.2297 L331.7187,209.7297 C331.8787,210.4197 331.8097,211.1397 331.5387,211.6897 L331.5387,211.6897 Z M298.0287,218.8707 C297.6287,218.9607 297.2087,219.0097 296.7987,219.0097 C294.2187,219.0097 292.0177,217.2507 291.4487,214.7297 L290.6287,211.1607 L283.2587,178.9107 C282.5787,175.9507 284.4377,173.0007 287.3887,172.3197 L315.1387,165.9797 C315.1587,166.2997 315.1987,166.6297 315.2787,166.9607 L323.5597,203.2197 L325.3787,211.1697 C325.4687,211.5697 325.6087,211.9397 325.7677,212.2997 L325.8187,212.5197 L298.0287,218.8707 Z M275.2787,219.1207 C271.5687,219.9607 267.8887,218.0407 266.6587,214.7507 C266.5387,214.4697 266.4487,214.1697 266.3787,213.8607 L261.0287,190.4297 C260.1487,186.6107 262.7187,182.7507 266.7487,181.8307 L280.1877,178.7507 C280.2187,179.0307 280.2677,179.2997 280.3287,179.5807 L287.2587,209.8997 L287.2587,209.9107 L288.5177,215.3997 C288.5687,215.6207 288.6287,215.8397 288.6987,216.0497 L275.2787,219.1207 Z M245.0787,210.8397 C242.8687,211.3497 240.6687,210.0697 239.9587,207.9697 C239.9087,207.8307 239.8687,207.6897 239.8387,207.5497 C239.5787,206.4107 239.7787,205.2397 240.3987,204.2507 C241.0177,203.2597 241.9887,202.5697 243.1287,202.3097 L259.7987,198.5097 L260.7887,202.8397 L261.7487,207.0407 L245.0787,210.8397 Z M324.5387,164.8497 C323.9487,162.2997 321.8787,160.4507 319.6087,160.4507 C319.2987,160.4507 318.9887,160.4797 318.6787,160.5497 C317.4587,160.8307 316.4787,161.6497 315.8587,162.7407 L286.7187,169.3997 C283.4987,170.1297 281.1287,172.6297 280.3787,175.6297 L266.0787,178.8997 C260.4377,180.1897 256.8587,185.6607 258.0987,191.0897 L259.1287,195.5807 L242.4587,199.3897 C240.5387,199.8197 238.9087,200.9797 237.8587,202.6497 C237.6687,202.9607 237.5087,203.2807 237.3687,203.5997 C236.2887,203.9697 221.1187,209.1497 207.4587,207.0007 C204.2287,206.4897 201.0787,205.5697 198.2187,204.0807 C192.0987,200.8797 187.9587,195.3097 185.9187,187.5197 C183.5177,178.3307 178.1787,171.7197 170.0487,167.8797 C156.8387,161.6397 138.4487,164.1497 123.6187,168.0997 L101.2187,173.8607 C89.3487,176.8707 77.4587,178.2197 65.8887,177.8397 C51.0987,177.3607 30.9987,174.0307 19.2487,160.8307 C11.3087,151.9197 7.9587,139.3197 9.2887,123.3897 C12.3387,86.9607 27.4987,76.6797 42.1487,66.7407 C56.4387,57.0497 83.14,33.53 80,0.41 L71.04,1.259 C73.68,29.069 50.8687,49.9507 37.0987,59.2907 C22.2387,69.3797 3.7387,81.9297 0.3187,122.6397 C-1.2323,141.1297 2.8787,155.9907 12.5177,166.8197 C23.5087,179.1497 41.8587,186.0697 65.6087,186.8397 C66.9587,186.8797 68.3187,186.8997 69.6787,186.8997 C80.7887,186.8997 92.1287,185.4507 103.4387,182.5807 L123.6187,177.4197 L125.1987,177.0197 L125.5087,176.9397 C125.8087,176.8497 126.1187,176.7697 126.4287,176.6797 C139.6487,173.1697 155.4887,170.9507 166.2087,176.0197 C171.8887,178.7007 175.4887,183.2107 177.2087,189.7997 C179.9187,200.1607 185.5987,207.6497 194.0787,212.0697 C197.9987,214.1207 202.4787,215.4697 207.4587,216.1107 C209.7287,216.3997 212.1087,216.5497 214.5787,216.5497 L215.3787,216.5497 C226.9787,216.3997 236.9887,213.1397 239.4487,212.2807 C240.7387,213.3307 242.3787,213.9507 244.0987,213.9507 C244.6487,213.9507 245.1987,213.8897 245.7487,213.7597 L262.4087,209.9607 L263.4587,214.5197 C264.5177,219.1697 268.7787,222.3097 273.5177,222.3097 C274.3187,222.3097 275.1287,222.2197 275.9487,222.0407 L290.1387,218.7907 C291.7087,220.7807 294.1187,222.0097 296.7987,222.0097 C297.4377,222.0097 298.0787,221.9397 298.6987,221.7907 L328.2587,215.0407 C328.8887,215.3707 329.5887,215.5697 330.2987,215.5697 C330.6187,215.5697 330.9287,215.5407 331.2387,215.4697 C332.5087,215.1797 333.5987,214.2907 334.2287,213.0197 C334.8097,211.8397 334.9587,210.4297 334.6387,209.0597 L324.5387,164.8497 Z" id="Fill-89" fill="#A7A6A6" mask="url(#mask-2)"></path>
                            </g>
                            <g id="Group-94" transform="translate(351.000000, 139.090000)">
                                <mask id="mask-4" fill="white">
                                    <use xlink:href="#path-3"></use>
                                </mask>
                                <g id="Clip-93"></g>
                                <path d="M106.7682,21.1497 L90.7292,25.1497 L89.6592,20.8707 L88.6092,16.6607 L104.6492,12.6607 C106.9792,12.0807 109.3482,13.5007 109.9492,15.8197 C109.9492,15.8307 109.9582,15.8397 109.9582,15.8497 C110.5392,18.1897 109.1092,20.5697 106.7682,21.1497 L106.7682,21.1497 Z M88.7682,38.7107 C87.7292,40.3707 86.0692,41.5497 84.1092,42.0407 L69.8782,45.5807 L68.3592,39.4697 L60.6382,8.4697 L74.8692,4.9207 C76.8292,4.4397 78.8382,4.7107 80.5482,5.6797 C82.2292,6.6397 83.4092,8.1797 83.8692,10.0097 L89.6682,33.3307 C89.7582,33.6797 89.8192,34.0307 89.8482,34.3797 C89.9792,35.8797 89.6092,37.3797 88.7682,38.7107 L88.7682,38.7107 Z M67.6492,51.5997 C67.5292,51.8707 67.2392,52.3397 66.6992,52.4697 C65.9282,52.6607 65.0792,52.0407 64.6282,51.0997 L63.2082,45.3997 L53.3592,5.8197 C53.3292,5.3497 53.4092,4.8897 53.5882,4.5007 C53.7082,4.2407 54.0082,3.7697 54.5392,3.6297 C54.6282,3.6097 54.7292,3.5997 54.8292,3.5997 C55.6782,3.5997 56.5482,4.4697 56.8382,5.6297 L66.5292,44.5197 L67.7982,49.6297 C67.9682,50.3197 67.9182,51.0407 67.6492,51.5997 L67.6492,51.5997 Z M32.2482,57.7907 L30.5982,51.1897 L28.0882,41.0897 L47.3192,36.2997 L45.0292,27.0897 L25.7892,31.8797 L21.7682,15.7007 L50.8482,8.4607 L59.6382,43.7507 L61.3292,50.5497 L32.2482,57.7907 Z M26.5182,34.7907 L42.8382,30.7197 L43.3592,32.7997 L43.6882,34.1207 L27.3592,38.1797 L27.0392,36.8997 L26.5182,34.7907 Z M12.4182,55.4297 C11.1092,55.7597 9.7982,55.2507 9.5692,54.3307 C9.5392,54.2007 9.5292,54.0597 9.5592,53.9207 C9.6282,53.1207 10.4492,52.3097 11.5692,52.0307 L26.7792,48.2507 L27.1192,49.6397 L27.6192,51.6397 L12.4182,55.4297 Z M6.1882,30.4397 C5.4982,30.6207 4.7792,30.5597 4.2182,30.2997 C3.9492,30.1707 3.4792,29.8797 3.3482,29.3497 C3.3382,29.2997 3.3292,29.2507 3.3292,29.2007 C3.2682,28.7197 3.5182,28.3197 3.6782,28.0997 C4.0482,27.5997 4.6592,27.2197 5.3482,27.0497 L20.5592,23.2597 L20.9582,24.8897 L21.3992,26.6607 L6.1882,30.4397 Z M330.3482,92.8097 C322.3882,78.3397 306.0292,67.5097 283.0592,61.4797 C271.0382,58.3307 258.3292,56.8797 245.2292,57.2007 L222.6192,57.7297 C214.6092,58.0197 204.4182,57.0997 196.9982,52.0097 C191.3092,48.0997 187.8782,42.0697 186.7882,34.0897 C185.5082,24.6707 180.9982,17.4697 173.3882,12.6797 C161.5482,5.2197 144.2582,5.0897 129.5482,6.9507 C121.8482,7.9207 114.8592,9.4297 109.7182,10.7297 C108.0692,9.6607 105.9892,9.2407 103.9282,9.7507 L87.8882,13.7507 L86.7792,9.2807 C86.1192,6.6497 84.4382,4.4507 82.0392,3.0697 C79.6592,1.7197 76.8592,1.3397 74.1492,2.0097 L59.9092,5.5597 L59.7482,4.8997 C59.1192,2.3707 57.0882,0.5997 54.8292,0.5997 C54.4792,0.5997 54.1382,0.6397 53.8092,0.7197 C52.5392,1.0407 51.4682,1.9507 50.8692,3.2297 C50.5482,3.9207 50.3882,4.7007 50.3592,5.4907 L18.1282,13.5097 L19.8292,20.3497 L4.6192,24.1397 C3.2482,24.4797 2.0592,25.2407 1.2792,26.2997 C0.4282,27.4297 0.1192,28.7997 0.4382,30.0697 C0.7582,31.3397 1.6682,32.4107 2.9492,33.0097 C3.6882,33.3707 4.5292,33.5407 5.3782,33.5407 C5.8882,33.5407 6.4092,33.4797 6.9182,33.3497 L22.1282,29.5697 L26.0482,45.3397 L10.8382,49.1207 C7.9092,49.8607 6.0292,52.5197 6.6592,55.0597 C7.1882,57.1607 9.2582,58.5307 11.6192,58.5307 C12.1192,58.5307 12.6282,58.4697 13.1382,58.3397 L28.3482,54.5497 L30.0592,61.4297 L62.4982,53.3497 C63.4492,54.6707 64.8692,55.5097 66.4182,55.5097 C66.7582,55.5097 67.0982,55.4697 67.4282,55.3797 C68.6992,55.0697 69.7682,54.1497 70.3692,52.8797 C70.9282,51.6797 71.0482,50.2697 70.7082,48.9107 L70.6092,48.4897 L84.8382,44.9507 C87.5482,44.2807 89.8482,42.6297 91.3092,40.3097 C92.7892,37.9697 93.2392,35.2397 92.5792,32.5997 L91.4492,28.0597 L107.4892,24.0597 C109.9982,23.4397 111.8782,21.5997 112.6682,19.3307 C117.1782,18.2297 123.0982,16.9797 129.5482,16.0997 C142.9792,14.2597 158.6782,14.0407 168.5982,20.2997 C173.9182,23.6497 176.9492,28.5597 177.8692,35.3097 C179.3192,45.9207 184.0382,54.0407 191.9282,59.4397 C197.4182,63.2007 204.3592,65.5597 212.5482,66.4507 C215.1682,66.7297 217.7292,66.8497 220.1592,66.8497 C220.9982,66.8497 221.8192,66.8397 222.6192,66.8097 L245.4492,66.2007 C257.6992,65.8997 269.5692,67.2507 280.7682,70.1797 C295.0882,73.9397 313.9492,81.6707 322.4582,97.1497 C328.2182,107.6107 328.6782,120.6397 323.8292,135.8707 C312.7482,170.6797 295.7792,176.0997 279.3692,181.3397 C263.3092,186.4697 246.6992,191.7807 242.3782,224.8397 L251.2982,226.0007 C254.8782,198.6107 266.2982,194.9607 282.1092,189.9207 C298.9492,184.5407 319.9092,177.8397 332.4092,138.5997 C338.0292,120.9207 337.3382,105.5197 330.3482,92.8097 L330.3482,92.8097 Z" id="Fill-92" fill="#A7A6A6" mask="url(#mask-4)"></path>
                            </g>
                        </g>
                    </g>
                </g>
            </g>
        </g>
    </g>
</svg>
