<svg width="53" height="41" viewBox="0 0 53 41" fill="none" xmlns="http://www.w3.org/2000/svg">
<g clip-path="url(#clip0_124:185)">
<path d="M37.1607 40.9998C33.9162 40.9998 30.198 40.1487 26.1619 37.7502C12.6107 29.6938 2.69152 39.0822 2.27464 39.486C2.08363 39.6723 1.8436 39.797 1.58426 39.8446C1.32493 39.8923 1.05767 39.8608 0.81558 39.7541C0.573488 39.6474 0.367189 39.4701 0.222225 39.2443C0.0772623 39.0185 -2.839e-07 38.7539 0 38.4834V7.15052C1.29304e-05 6.96346 0.0369953 6.77835 0.108708 6.60639C0.180421 6.43443 0.285372 6.2792 0.417214 6.15008C2.67955 4.11808 5.31732 2.57462 8.17322 1.61176C12.5814 0.0879311 19.5148 -0.729986 27.5119 4.02438C32.1962 6.80897 36.8748 7.58506 41.419 6.32949C41.5908 6.27886 41.7708 6.26385 41.9483 6.28534C42.1258 6.30682 42.2974 6.36437 42.4531 6.45463C42.6087 6.54489 42.7453 6.66605 42.8549 6.81106C42.9644 6.95606 43.0448 7.12201 43.0913 7.29922C43.1377 7.47643 43.1494 7.66136 43.1255 7.84323C43.1016 8.02511 43.0427 8.20029 42.9522 8.35856C42.8618 8.51683 42.7415 8.65503 42.5984 8.7651C42.4554 8.87516 42.2925 8.9549 42.1191 8.99965C36.8586 10.4537 31.4904 9.58457 26.1633 6.41764C13.9977 -0.814681 4.75806 6.01214 2.69522 7.77554V35.6892C4.39973 34.5371 6.24122 33.6144 8.17457 32.9437C12.5824 31.4202 19.5161 30.6016 27.5132 35.3559C33.1849 38.7282 38.7911 39.1586 44.1765 36.6381C46.471 35.5541 48.5498 34.0429 50.3078 32.181V4.60308C49.6401 5.16349 48.9431 5.68615 48.22 6.16874C48.0718 6.27061 47.9053 6.34122 47.7303 6.3765C47.5552 6.41178 47.3751 6.411 47.2004 6.37423C47.0256 6.33746 46.8597 6.26542 46.7123 6.16228C46.5649 6.05915 46.4389 5.927 46.3417 5.77347C46.2444 5.61995 46.1778 5.44812 46.1458 5.26797C46.1138 5.08781 46.1169 4.90292 46.155 4.72402C46.1932 4.54512 46.2655 4.37577 46.3679 4.22582C46.4703 4.07587 46.6007 3.9483 46.7515 3.8505C48.1804 2.91278 49.4815 1.78421 50.6206 0.494472C50.7981 0.27654 51.0366 0.12 51.3038 0.0461257C51.5709 -0.0277491 51.8538 -0.0153787 52.1138 0.0815731C52.3739 0.178525 52.5986 0.355349 52.7573 0.587997C52.916 0.820645 53.0011 1.09784 53.001 1.38188V32.7134C53.001 33.0369 52.8906 33.3502 52.6888 33.5988C50.6211 35.9518 48.1039 37.8431 45.2938 39.1548C42.743 40.3615 39.9692 40.9907 37.1607 40.9998Z" fill="#0B588A"/>
<path d="M19.953 24.0171C19.3098 24.0274 18.671 23.9056 18.0743 23.6589C17.5326 23.4308 17.0483 23.0794 16.658 22.6312C16.254 22.1564 15.9496 21.6012 15.764 21.0002C15.3469 19.5906 15.3469 18.0855 15.764 16.6759C15.9502 16.076 16.2545 15.5218 16.658 15.0476C17.0486 14.5999 17.5328 14.2486 18.0743 14.0202C18.671 13.7734 19.3097 13.6515 19.953 13.6617C20.4944 13.6573 21.0323 13.7509 21.542 13.9383C22.0143 14.1106 22.4515 14.3711 22.8317 14.7064C23.1991 15.0331 23.5016 15.4295 23.7227 15.8738C23.9517 16.3344 24.0853 16.8386 24.115 17.3548H22.1603C22.1154 17.0839 22.0254 16.8231 21.8942 16.5836C21.7703 16.3571 21.6069 16.1558 21.4124 15.9897C21.2158 15.8232 20.9917 15.6944 20.7507 15.6094C20.494 15.5192 20.2243 15.4742 19.953 15.4763C19.6007 15.4706 19.2521 15.5501 18.9354 15.7083C18.6306 15.8659 18.3664 16.0952 18.1642 16.3775C17.9387 16.6959 17.7729 17.0547 17.6753 17.4354C17.4495 18.355 17.4495 19.3179 17.6753 20.2376C17.7719 20.6187 17.9378 20.9776 18.1642 21.2954C18.3675 21.5766 18.6314 21.8057 18.9354 21.9647C19.2536 22.1256 19.6047 22.2063 19.9594 22.2001C20.2324 22.2025 20.504 22.1599 20.7638 22.0739C21.0021 21.9951 21.2249 21.8737 21.4221 21.7154C21.6134 21.5601 21.7756 21.3705 21.901 21.1557C22.0327 20.9287 22.1228 20.6788 22.167 20.4184H24.1218C24.0882 20.9279 23.9535 21.4251 23.7261 21.8793C23.5073 22.3144 23.2068 22.7007 22.8418 23.0159C22.461 23.3415 22.0247 23.592 21.5552 23.7547C21.0391 23.9335 20.4976 24.0221 19.953 24.0171Z" fill="#0B588A"/>
<path d="M30.166 13.6607C30.8212 13.6505 31.4719 13.7736 32.0806 14.0227C32.632 14.2524 33.127 14.6044 33.5303 15.0536C33.9436 15.525 34.2572 16.0793 34.4512 16.6814C34.6746 17.3759 34.7837 18.1038 34.7738 18.8351C34.784 19.5685 34.6762 20.2985 34.4546 20.9957C34.2627 21.5981 33.9501 22.1526 33.537 22.6236C33.133 23.0734 32.6367 23.4254 32.084 23.6542C30.8461 24.1367 29.4788 24.1367 28.2408 23.6542C27.6881 23.4254 27.1918 23.0734 26.7878 22.6236C26.3745 22.1523 26.061 21.598 25.8672 20.9957C25.6433 20.299 25.5343 19.5688 25.5446 18.8351C25.5346 18.1036 25.6446 17.3755 25.8702 16.6814C26.0669 16.078 26.3828 15.5226 26.7979 15.0501C27.2026 14.5996 27.7 14.2474 28.254 14.0192C28.8624 13.7729 29.512 13.6511 30.166 13.6607ZM30.166 15.4701C29.8006 15.4644 29.4389 15.5448 29.1086 15.7052C28.7926 15.863 28.5161 16.0931 28.3004 16.3779C28.0637 16.6948 27.8877 17.0549 27.7819 17.4392C27.6548 17.8929 27.5932 18.3632 27.599 18.8351C27.5931 19.3058 27.6536 19.7748 27.7785 20.2276C27.8831 20.6112 28.0567 20.9712 28.2903 21.2892C28.5049 21.5768 28.7815 21.8092 29.0985 21.9682C29.4316 22.1313 29.7969 22.2132 30.166 22.2074C30.5316 22.2129 30.8935 22.131 31.223 21.9682C31.5392 21.808 31.8156 21.5758 32.0311 21.2892C32.2667 20.972 32.4417 20.6117 32.5467 20.2276C32.786 19.3144 32.786 18.3524 32.5467 17.4392C32.4425 17.0549 32.2675 16.6946 32.0311 16.3779C31.8154 16.0932 31.5389 15.8631 31.223 15.7052C30.8927 15.5453 30.5311 15.4654 30.166 15.4715V15.4701Z" fill="#0B588A"/>
<path d="M35.7579 18.9218C35.852 18.6906 35.9927 18.4824 36.1708 18.311C36.3588 18.1333 36.5795 17.9959 36.82 17.9069C37.0907 17.8059 37.3762 17.7529 37.6642 17.7499C37.9422 17.7407 38.2198 17.7773 38.4865 17.8585C38.7204 17.9287 38.9396 18.0429 39.133 18.1952C39.3114 18.3386 39.4572 18.5203 39.56 18.7276C39.6651 18.9422 39.7207 19.1787 39.7226 19.419C39.726 19.5778 39.7067 19.7363 39.6654 19.8894C39.6158 20.0608 39.5439 20.2246 39.4516 20.3762C39.3333 20.5707 39.1999 20.7551 39.0529 20.9276C38.8883 21.1246 38.6843 21.3453 38.4407 21.5896L37.3702 22.682L37.3719 22.7553L39.8738 22.701L39.895 23.7211L35.7737 23.811L35.7559 22.953L37.5817 21.0389C37.7783 20.834 37.9404 20.6577 38.0679 20.51C38.1771 20.3864 38.2775 20.2551 38.3686 20.1169C38.4329 20.0212 38.4834 19.9164 38.5185 19.8058C38.5456 19.7146 38.5584 19.6197 38.5565 19.5244C38.5552 19.413 38.5299 19.3034 38.4824 19.2032C38.4365 19.1064 38.3713 19.0204 38.2912 18.9509C38.2067 18.8787 38.1094 18.8242 38.0046 18.7901C37.8885 18.7527 37.767 18.7355 37.6453 18.7393C37.5156 18.7404 37.3872 18.766 37.2665 18.8147C37.1581 18.8591 37.0592 18.9247 36.9752 19.0079C36.8933 19.0905 36.8299 19.1904 36.7893 19.3007C36.746 19.42 36.7257 19.5468 36.7297 19.6741V19.6983L35.6212 19.7225V19.7021C35.6123 19.435 35.6589 19.169 35.7579 18.9218Z" fill="#0B588A"/>
<path d="M26.9175 32.1233C26.7696 32.1234 26.6242 32.0832 26.4963 32.0068C24.6584 30.8991 22.6891 30.0393 20.6371 29.4486C15.6697 28.0415 10.3653 28.6524 5.82516 31.1546C5.69685 31.2238 5.55332 31.2578 5.40847 31.2533C5.26362 31.2488 5.12235 31.206 4.99833 31.129C4.87432 31.052 4.77176 30.9435 4.70058 30.8139C4.6294 30.6843 4.59201 30.538 4.59204 30.3893V20.4678C4.59204 20.2385 4.68074 20.0187 4.83861 19.8566C4.99649 19.6946 5.21061 19.6035 5.43388 19.6035C5.65715 19.6035 5.87127 19.6946 6.02915 19.8566C6.18702 20.0187 6.27571 20.2385 6.27571 20.4678V29.0065C10.9135 26.8121 16.1593 26.3779 21.0796 27.7813C23.2718 28.4117 25.3756 29.3296 27.3391 30.5123C27.4996 30.6076 27.6249 30.7546 27.6957 30.9304C27.7664 31.1063 27.7787 31.3012 27.7305 31.485C27.6824 31.6687 27.5765 31.831 27.4293 31.9467C27.2821 32.0623 27.1019 32.1249 26.9165 32.1247L26.9175 32.1233Z" fill="#0B588A"/>
</g>
<defs>
<clipPath id="clip0_124:185">
<rect width="53" height="41" fill="white"/>
</clipPath>
</defs>
</svg>
