<svg width="97" height="88" fill="none" xmlns="http://www.w3.org/2000/svg">
  <g clip-path="url(#a)">
    <path d="M41.79 13.8s-1.881 13.145 0 33.867l3.795 20.105v18.84H11.58s7.163-32.76 7.578-48.69c.415-15.929-.525-24.124-.525-24.124l23.155.002Z" fill="#A1C2E6"/>
    <path d="M42.493 79.618a.552.552 0 0 1-.535-.416c-7.66-29.887-8.864-47.17-8.524-56.405a.557.557 0 0 1 .573-.534.552.552 0 0 1 .533.574c-.336 9.162.866 26.33 8.493 56.088a.556.556 0 0 1-.54.693ZM32.747 79.618H11.435a.553.553 0 0 1-.39-.946.552.552 0 0 1 .39-.162h21.312a.552.552 0 0 1 .553.554.555.555 0 0 1-.553.554ZM32.747 72.026H12.948a.553.553 0 0 1-.391-.946.553.553 0 0 1 .391-.162h19.8a.553.553 0 0 1 .39.946.553.553 0 0 1-.39.162Z" fill="#2654A5"/>
    <path d="M96.925 40.166c-.382-2.586-1.272-3.568-1.991-4.357-.818-.9-1.357-1.496-.43-4.896l-1.068-.291c-1.034 3.794-.415 4.727.68 5.933.647.713 1.382 1.521 1.714 3.773a3.971 3.971 0 0 1-1.194 3.754c-2.027 1.829-6.44 2.204-11.24.964-3.36-.867-4.324.136-5.658 1.526a14.491 14.491 0 0 1-5.713 3.855 25.673 25.673 0 0 1-6.118 1.595c-2.973.458-4.085.847-4.066 4.888h-1.509v-3.26a17.24 17.24 0 0 1 .868-5.034l-1.042-.373a18.072 18.072 0 0 0-.932 5.407v3.26h-.99l-.756 26.15-.398 4.663h8.15l-.394-4.443-.762-26.37h-1.131c-.04-3.298.538-3.393 3.13-3.793 1.57-.216 3.12-.564 4.631-1.04v1.792h-1.78l-.765 27.143-.388 6.71h8.196l-.381-6.483-.77-27.372h-1.576c1.24-3.56 5.02-2.611 8.06-4.081 2.241-1.084 2.76-2.608 2.872-3.42 4.801 1.032 9.03.498 11.203-1.462a5.075 5.075 0 0 0 1.548-4.738Zm-33.19 43.179.29 3.27h-5.738l.298-3.492.185-6.406h2.796a.553.553 0 0 0 .391-.946.553.553 0 0 0-.39-.162H58.8l.281-9.717h2.073a.553.553 0 0 0 .391-.946.552.552 0 0 0-.39-.162h-2.042l.195-6.728h3.662v-.039h.03l.734 25.328Zm10.75-2.056.313 5.326h-5.85l.318-5.555.203-7.19h2.762a.552.552 0 0 0 .553-.554.555.555 0 0 0-.553-.554h-2.73l.29-10.336h2.084a.553.553 0 0 0 .391-.946.552.552 0 0 0-.39-.162h-2.053l.179-6.34h3.742l.741 26.311Z" fill="#A1C2E6"/>
    <path d="M93.945 33.774c0-1.18.577-2.28 1.186-3.446 1.016-1.94 2.167-4.137.098-6.576-2.967-3.498-7.123-2.485-10.157-1.745-.902.26-1.827.428-2.762.505-2.33.045-5.024-1.168-7.894-2.439-4.608-2.037-9.832-4.346-14.38-1.549-4.225 2.6-4.184 6.243-4.15 9.171.028 2.445-.028 3.997-1.468 5.036-.689.482-1.418.905-2.178 1.264-3.181 1.593-4.763 2.9-4.861 14.2h-1.195l-.73 17.158c-8.645-39.429-4.093-51.215-4.022-51.389a.832.832 0 0 0-.763-1.157H10.183a.829.829 0 0 0-.764 1.157c.065.154 6.25 16.032-9.39 72.982a.833.833 0 0 0 .8 1.053H79.4a.83.83 0 0 0 .829-.831.832.832 0 0 0-.83-.832H55.061l-1.624-38.142h-1.455c.144-2.577.62-3.047.778-3.131.492-.262 2.01.746 3.348 1.635 2.411 1.602 5.765 3.83 9.774 3.83a10.967 10.967 0 0 0 3.872-.715 16.48 16.48 0 0 0 5.846-3.68c2.03-1.84 3.374-3.056 9.98-2.177 4.568.61 7.324.17 8.669-1.377 1.474-1.697.8-4.126.208-6.268-.27-.823-.44-1.674-.512-2.537ZM44.527 86.338H1.917C15.303 37.204 12.51 18.952 11.32 14.47h28.215c-1.063 4.002-3.405 19.002 5.653 57.192l-.625 14.676h-.036Zm48.338-49.582c.505 1.824 1.027 3.71.14 4.732-.633.728-2.394 1.46-7.2.821-7.369-.98-9.108.597-11.31 2.592a14.853 14.853 0 0 1-5.315 3.355c-4.938 1.847-9.107-.92-12.151-2.942-1.6-1.063-2.938-1.951-4.093-1.951a1.978 1.978 0 0 0-.944.23c-1.026.544-1.53 1.909-1.666 4.6h-1.284c.092-10.777 1.484-11.481 3.944-12.714.84-.397 1.644-.866 2.404-1.4 2.212-1.596 2.185-4.04 2.157-6.403-.032-2.895-.063-5.63 3.36-7.736 3.804-2.34 8.398-.31 12.84 1.654 3.043 1.344 5.919 2.613 8.587 2.578 1.06-.074 2.11-.26 3.13-.554 2.905-.709 6.196-1.51 8.502 1.207 1.28 1.51.748 2.719-.303 4.727-.645 1.232-1.376 2.628-1.376 4.217.064 1.016.258 2.02.576 2.987h.002Z" fill="#2654A5"/>
    <path d="M51.417 58.392h-4.82a.553.553 0 0 1 0-1.108h4.823a.553.553 0 0 1 .39.946.553.553 0 0 1-.39.163h-.003ZM51.874 73.89h-5.736a.552.552 0 0 1-.553-.554.555.555 0 0 1 .553-.554h5.736a.553.553 0 0 1 .391.946.552.552 0 0 1-.391.162ZM15.245 11.057a.553.553 0 0 1-.553-.554V5.812a.555.555 0 0 1 .945-.392.554.554 0 0 1 .162.392v4.69a.555.555 0 0 1-.553.555Z" fill="#A1C2E6"/>
    <path d="M35.93 11.057a.553.553 0 0 1-.553-.554v-2.9a.554.554 0 0 1 .944-.391.555.555 0 0 1 .162.391v2.9a.555.555 0 0 1-.553.554ZM22.14 11.057a.553.553 0 0 1-.553-.554V.554a.555.555 0 0 1 .945-.392.554.554 0 0 1 .162.392v9.949a.555.555 0 0 1-.553.554Z" fill="#2654A5"/>
    <path d="M29.035 11.057a.553.553 0 0 1-.553-.554V9.266a.555.555 0 0 1 .944-.392.555.555 0 0 1 .162.392v1.237a.555.555 0 0 1-.553.554ZM60.825 26.264h-.05a.553.553 0 0 1-.502-.599c.009-.107.247-2.639 2.35-3.823 1.749-.984 4.192-.705 7.262.831a.551.551 0 0 1 .309.536.555.555 0 0 1-.803.455c-2.717-1.358-4.809-1.647-6.22-.86-1.591.887-1.794 2.937-1.796 2.956a.554.554 0 0 1-.55.504Z" fill="#A1C2E6"/>
  </g>
  <defs>
    <clipPath id="a">
      <path fill="#fff" d="M0 0h97v88H0z"/>
    </clipPath>
  </defs>
</svg>
