<svg width="115" height="91" viewBox="0 0 115 91" fill="none" xmlns="http://www.w3.org/2000/svg">
<g clip-path="url(#clip0_149:968)">
<path d="M58.9823 79.7483C57.1016 73.161 55.5803 66.4744 54.4253 59.7187H59.4162C59.4162 59.7187 57.55 52.0467 55.727 41.9635H59.5789C59.5789 41.9635 57.5483 36.1544 56.6292 26.7286H59.3346C59.3346 26.7286 58.2948 24.0629 58.0708 18.1825C61.0128 14.4163 63.1671 10.0858 64.4031 5.45361C67.4908 13.376 72.2499 20.5238 78.3495 26.3999L72.3823 26.7286C72.3823 26.7286 78.4743 36.0678 83.8834 41.854L77.0479 42.2923L90.6619 58.9528L89.4161 59.5007L82.2551 59.6103C82.2551 59.6103 96.2068 77.3241 98.3448 78.933L96.979 79.7878L58.9823 79.7483Z" fill="#A1C2E6"/>
<path d="M43.281 24.209C43.977 26.925 45.0871 29.515 46.5713 31.8863C47.2163 32.9166 47.8485 33.815 48.4404 34.5915C48.6422 34.3741 48.8073 34.132 48.9863 33.8993C48.4434 33.1794 47.8695 32.3605 47.2863 31.4292C45.6793 28.8778 44.534 26.0583 43.9038 23.1021C43.8924 23.0344 43.8652 22.9704 43.8245 22.9154C43.7584 22.8338 43.6751 22.768 43.5808 22.7229C43.4864 22.6777 43.3833 22.6543 43.2789 22.6543C43.1745 22.6543 43.0714 22.6777 42.9771 22.7229C42.8827 22.768 42.7995 22.8338 42.7333 22.9154C42.6922 22.9702 42.6648 23.0343 42.6534 23.1021C42.0255 26.059 40.88 28.8789 39.2709 31.4292C38.6513 32.4206 37.9814 33.3792 37.2642 34.3011C37.4496 34.5096 37.624 34.7647 37.8042 34.995C38.586 33.999 39.3143 32.9613 39.9859 31.8863C41.472 29.5155 42.5837 26.9254 43.281 24.209V24.209Z" fill="#A1C2E6"/>
<path d="M28.6824 84.4127C28.6268 84.4127 28.5718 84.4016 28.5204 84.3801C28.4691 84.3586 28.4225 84.3271 28.3832 84.2874C28.344 84.2477 28.3128 84.2005 28.2916 84.1486C28.2704 84.0967 28.2595 84.0411 28.2596 83.985V76.739C28.2575 76.6815 28.2668 76.6242 28.2872 76.5705C28.3075 76.5168 28.3383 76.4678 28.3778 76.4263C28.4173 76.3849 28.4646 76.352 28.517 76.3295C28.5694 76.307 28.6258 76.2954 28.6827 76.2954C28.7396 76.2954 28.796 76.307 28.8483 76.3295C28.9007 76.352 28.9481 76.3849 28.9876 76.4263C29.0271 76.4678 29.0579 76.5168 29.0782 76.5705C29.0985 76.6242 29.1079 76.6815 29.1058 76.739V83.985C29.1058 84.0984 29.0612 84.2072 28.9818 84.2874C28.9024 84.3676 28.7947 84.4127 28.6824 84.4127V84.4127Z" fill="#A1C2E6"/>
<path d="M30.8006 76.0957H1.40782C1.3833 76.0964 1.35913 76.0897 1.33837 76.0765C1.31762 76.0633 1.30119 76.0441 1.29118 76.0215C1.28231 76.0051 1.27714 75.987 1.27603 75.9683C1.27492 75.9497 1.27791 75.931 1.28477 75.9137C1.84522 75.4035 5.61262 71.8489 13.2215 61.88L14.01 60.8473H7.01169C7.75526 60.1504 11.0398 56.912 17.3493 48.5173L18.1226 47.4881H12.2464C13.1574 46.5897 15.6196 43.9894 19.8833 38.3092C20.2445 37.8285 20.5897 37.3639 20.9191 36.9154L21.6714 35.8915H16.6058C19.0294 33.5613 21.1445 30.9241 22.8984 28.0458C24.758 25.0713 26.1655 21.8319 27.074 18.4357C27.9826 21.832 29.3903 25.0714 31.2503 28.0458C33.0038 30.9244 35.1189 33.5616 37.5429 35.8915H32.4756L33.229 36.9154C33.5599 37.3643 33.9051 37.8289 34.2648 38.3092C38.5285 43.9894 40.9907 46.5897 41.9046 47.4881H36.0313L36.8046 48.5173C38.2264 50.4089 39.4925 52.036 40.6128 53.434C40.8886 53.1048 41.2018 52.8096 41.5459 52.5544C40.6566 51.4434 39.6756 50.1891 38.5967 48.7706H42.3612C42.5642 48.7705 42.7632 48.7132 42.9357 48.6052C43.1083 48.4972 43.2476 48.3427 43.3381 48.1591C43.4285 47.9755 43.4665 47.7701 43.4477 47.566C43.429 47.3618 43.3543 47.1669 43.2319 47.0033L43.1439 46.9078C43.1188 46.886 40.6064 44.6327 35.279 37.5363L35.0095 37.1758H38.3518C38.5328 37.176 38.7103 37.125 38.8642 37.0287C39.0181 36.9325 39.1424 36.7947 39.2229 36.6309C39.3034 36.4671 39.337 36.2838 39.32 36.1018C39.3029 35.9197 39.2358 35.7461 39.1263 35.6005L39.0149 35.4827C38.9828 35.4568 35.7619 32.8441 32.3257 27.3589C30.2565 24.0725 28.7822 20.4407 27.9716 16.633L27.9453 16.4781L27.8515 16.3532C27.7609 16.2324 27.6438 16.1344 27.5094 16.0669C27.375 15.9995 27.227 15.9644 27.077 15.9644C26.9269 15.9644 26.7789 15.9995 26.6445 16.0669C26.5102 16.1344 26.3931 16.2324 26.3025 16.3532L26.2086 16.4787L26.1829 16.633C25.372 20.4407 23.8975 24.0725 21.8282 27.3589C18.3921 32.8441 15.1711 35.4568 15.139 35.4827L15.0282 35.6005C14.9187 35.7461 14.8517 35.9196 14.8346 36.1016C14.8175 36.2836 14.8511 36.4668 14.9315 36.6306C15.012 36.7944 15.1361 36.9322 15.2899 37.0285C15.4437 37.1248 15.6211 37.1758 15.8021 37.1758H19.1444C19.0558 37.2936 18.9654 37.415 18.8744 37.5363C13.5475 44.6327 11.0351 46.886 11.0106 46.9078L10.9226 47.0033C10.8003 47.1668 10.7256 47.3616 10.7068 47.5657C10.688 47.7697 10.7259 47.9751 10.8162 48.1586C10.9065 48.3421 11.0457 48.4966 11.218 48.6047C11.3904 48.7128 11.5892 48.7703 11.7921 48.7706H15.5572C9.09894 57.2637 6.0436 60.0007 6.01269 60.0284L5.92463 60.1233C5.78554 60.3089 5.70046 60.53 5.67895 60.7617C5.65745 60.9935 5.70037 61.2267 5.8029 61.4352C5.90542 61.6437 6.06347 61.8191 6.2593 61.9418C6.45512 62.0645 6.68094 62.1296 6.91138 62.1298H11.4206C3.95577 71.807 0.413468 74.9782 0.377893 75.01L0.289831 75.1054C0.130949 75.3153 0.0334626 75.5659 0.00839785 75.8289C-0.0166669 76.0919 0.0316913 76.3567 0.14802 76.5933C0.264348 76.8299 0.44399 77.0288 0.666552 77.1676C0.889115 77.3063 1.1457 77.3793 1.40723 77.3782H21.9851V83.9839C21.9826 84.0697 21.9971 84.1552 22.0278 84.2353C22.0585 84.3154 22.1049 84.3884 22.1641 84.45C22.2233 84.5117 22.2941 84.5607 22.3724 84.5942C22.4507 84.6276 22.5349 84.6449 22.6199 84.6449C22.705 84.6449 22.7891 84.6276 22.8674 84.5942C22.9457 84.5607 23.0166 84.5117 23.0758 84.45C23.135 84.3884 23.1813 84.3154 23.2121 84.2353C23.2428 84.1552 23.2573 84.0697 23.2547 83.9839V77.3794H29.8197C30.1233 76.9338 30.4507 76.5052 30.8006 76.0957V76.0957Z" fill="#2654A5"/>
<path d="M95.3565 84.3592C95.2442 84.3592 95.1365 84.3141 95.0571 84.2339C94.9777 84.1537 94.9331 84.0449 94.9331 83.9315V80.3374C94.9331 80.2239 94.9777 80.1151 95.0571 80.0349C95.1365 79.9547 95.2442 79.9097 95.3565 79.9097C95.4688 79.9097 95.5765 79.9547 95.6559 80.0349C95.7353 80.1151 95.7799 80.2239 95.7799 80.3374V83.9309C95.78 83.9871 95.7691 84.0428 95.7479 84.0948C95.7266 84.1467 95.6954 84.194 95.6561 84.2337C95.6168 84.2735 95.5701 84.3051 95.5187 84.3266C95.4673 84.3481 95.4122 84.3592 95.3565 84.3592V84.3592Z" fill="#669CCC"/>
<path d="M114.792 77.2843C114.775 77.261 114.756 77.2397 114.734 77.2206C114.706 77.1959 111.935 74.7152 106.091 67.1298H109.722C109.887 67.1299 110.05 67.0832 110.191 66.995C110.332 66.9068 110.445 66.7806 110.519 66.6306C110.593 66.4806 110.624 66.3128 110.608 66.1461C110.592 65.9794 110.531 65.8204 110.431 65.6871C110.413 65.6641 110.394 65.6428 110.372 65.6235C110.348 65.6022 107.955 63.4585 102.891 56.7868H105.944C106.088 56.7868 106.23 56.746 106.353 56.669C106.476 56.592 106.575 56.4818 106.64 56.3509C106.704 56.22 106.731 56.0736 106.717 55.9281C106.704 55.7826 106.65 55.6438 106.563 55.5273C106.546 55.5043 106.526 55.4831 106.505 55.4637C106.485 55.4472 104.538 53.7017 100.408 48.1994C100.309 48.0687 100.212 47.9385 100.116 47.8106H102.84C102.967 47.8107 103.092 47.7748 103.201 47.707C103.309 47.6393 103.396 47.5423 103.453 47.4271C103.51 47.3118 103.533 47.1829 103.521 47.0548C103.509 46.9266 103.462 46.8044 103.385 46.7019C103.364 46.6728 103.339 46.6467 103.311 46.6242C101.274 44.8012 99.5237 42.6757 98.1202 40.3207C96.5124 37.7696 95.367 34.9498 94.7377 31.9931C94.7258 31.9251 94.6982 31.8609 94.6572 31.8058C94.591 31.7244 94.5079 31.6588 94.4136 31.6138C94.3194 31.5688 94.2165 31.5454 94.1122 31.5454C94.008 31.5454 93.905 31.5688 93.8108 31.6138C93.7165 31.6588 93.6334 31.7244 93.5672 31.8058C93.5258 31.8607 93.4982 31.925 93.4867 31.9931C92.8593 34.9499 91.7149 37.7699 90.1072 40.3207C88.701 42.6746 86.95 44.7999 84.9138 46.6242C84.8857 46.6464 84.8606 46.6724 84.8392 46.7013C84.7624 46.8039 84.7155 46.9261 84.7037 47.0541C84.6918 47.1822 84.7155 47.311 84.7722 47.4261C84.8288 47.5413 84.9161 47.6382 85.0243 47.7061C85.1325 47.7739 85.2572 47.8099 85.3845 47.81H88.1086L87.817 48.1989C86.7124 49.6716 85.7688 50.8651 84.9716 51.8383C85.179 52.0424 85.3614 52.2711 85.5145 52.5194C86.3398 51.5179 87.3265 50.2672 88.4888 48.7155C88.768 48.3432 89.0351 47.9838 89.2901 47.6374C89.3369 47.5738 89.3653 47.4983 89.3721 47.4193C89.3788 47.3403 89.3638 47.261 89.3285 47.1902C89.2932 47.1193 89.2392 47.0598 89.1723 47.0182C89.1055 46.9766 89.0286 46.9546 88.9501 46.9547H85.8288C87.759 45.1304 89.4375 43.0523 90.8192 40.7761C92.3033 38.4044 93.4132 35.814 94.109 33.0977C94.8049 35.8141 95.9149 38.4045 97.3994 40.7761C98.7808 43.0524 100.459 45.1305 102.389 46.9547H99.2679C99.1895 46.9547 99.1126 46.9768 99.0459 47.0184C98.9792 47.0601 98.9252 47.1196 98.89 47.1904C98.8548 47.2612 98.8398 47.3405 98.8466 47.4194C98.8534 47.4984 98.8817 47.5738 98.9285 47.6374C99.1839 47.9842 99.4508 48.3436 99.7292 48.7155C103.243 53.3965 105.172 55.3724 105.755 55.9309H102.033C101.954 55.931 101.877 55.9533 101.81 55.9953C101.743 56.0373 101.689 56.0973 101.654 56.1685C101.619 56.2398 101.604 56.3196 101.611 56.3988C101.619 56.4781 101.648 56.5537 101.695 56.6172C106.831 63.4508 109.373 65.8662 109.762 66.2196C109.764 66.2291 109.762 66.2388 109.758 66.2473C109.755 66.255 109.749 66.2615 109.742 66.2658C109.735 66.2701 109.727 66.2721 109.719 66.2715H105.228C105.149 66.2715 105.072 66.2939 105.004 66.3361C104.937 66.3784 104.883 66.4387 104.848 66.5104C104.813 66.5821 104.799 66.6622 104.807 66.7417C104.815 66.8212 104.845 66.8969 104.893 66.9601C110.83 74.7364 113.741 77.4663 114.135 77.8233C114.147 77.8498 114.153 77.879 114.151 77.9083C114.15 77.9375 114.141 77.9659 114.126 77.9909C114.11 78.0158 114.089 78.0365 114.064 78.0512C114.039 78.0659 114.011 78.074 113.982 78.0748H98.2637C98.3268 78.3553 98.3541 78.6428 98.3447 78.9302H113.981C114.171 78.9303 114.357 78.877 114.518 78.7761C114.679 78.6753 114.809 78.5311 114.893 78.3596C114.978 78.1881 115.013 77.9963 114.995 77.8057C114.977 77.615 114.907 77.4332 114.792 77.2807V77.2843Z" fill="#669CCC"/>
<path d="M90.662 84.3589C90.6064 84.359 90.5512 84.348 90.4998 84.3266C90.4484 84.3051 90.4017 84.2736 90.3624 84.2339C90.3231 84.1941 90.2919 84.147 90.2706 84.095C90.2494 84.0431 90.2385 83.9875 90.2386 83.9313V80.3371C90.2365 80.2796 90.2458 80.2224 90.2662 80.1686C90.2865 80.1149 90.3173 80.0659 90.3568 80.0245C90.3963 79.9831 90.4436 79.9501 90.496 79.9276C90.5484 79.9051 90.6048 79.8936 90.6617 79.8936C90.7186 79.8936 90.7749 79.9051 90.8273 79.9276C90.8797 79.9501 90.9271 79.9831 90.9666 80.0245C91.0061 80.0659 91.0369 80.1149 91.0572 80.1686C91.0775 80.2224 91.0869 80.2796 91.0848 80.3371V83.9307C91.0849 83.9869 91.0741 84.0425 91.0529 84.0945C91.0317 84.1464 91.0006 84.1937 90.9614 84.2334C90.9221 84.2732 90.8754 84.3048 90.824 84.3263C90.7727 84.3479 90.7176 84.3589 90.662 84.3589V84.3589Z" fill="#669CCC"/>
<path d="M32.355 84.6265C32.2781 84.6265 32.202 84.6112 32.131 84.5813C32.06 84.5515 31.9956 84.5078 31.9414 84.4527C31.8872 84.3976 31.8443 84.3323 31.8152 84.2604C31.7861 84.1885 31.7713 84.1115 31.7718 84.0339V79.8989C31.7693 79.8196 31.7826 79.7405 31.811 79.6665C31.8393 79.5924 31.8821 79.5249 31.9368 79.4678C31.9915 79.4108 32.057 79.3655 32.1294 79.3345C32.2018 79.3035 32.2796 79.2876 32.3582 79.2876C32.4368 79.2876 32.5146 79.3035 32.5869 79.3345C32.6593 79.3655 32.7248 79.4108 32.7795 79.4678C32.8342 79.5249 32.877 79.5924 32.9053 79.6665C32.9337 79.7405 32.947 79.8196 32.9446 79.8989V84.0339C32.945 84.1121 32.9301 84.1896 32.9006 84.2619C32.8711 84.3342 32.8276 84.3999 32.7727 84.455C32.7179 84.5102 32.6527 84.5538 32.5809 84.5832C32.5092 84.6126 32.4324 84.6274 32.355 84.6265Z" fill="#2654A5"/>
<path d="M97.4009 84.3592C97.2886 84.3592 97.181 84.3141 97.1016 84.2339C97.0221 84.1537 96.9775 84.0449 96.9775 83.9315V80.3774C96.9775 80.264 97.0221 80.1552 97.1016 80.075C97.181 79.9948 97.2886 79.9497 97.4009 79.9497C97.5132 79.9497 97.6209 79.9948 97.7003 80.075C97.7797 80.1552 97.8243 80.264 97.8243 80.3774V83.9309C97.8244 83.9871 97.8135 84.0428 97.7923 84.0947C97.771 84.1467 97.7399 84.1939 97.7005 84.2337C97.6612 84.2735 97.6145 84.305 97.5631 84.3266C97.5117 84.3481 97.4566 84.3592 97.4009 84.3592V84.3592Z" fill="#669CCC"/>
<path d="M10.2104 84.52H111.767" stroke="#A1C2E6" stroke-width="2" stroke-miterlimit="10" stroke-linecap="round"/>
<path d="M86.4998 75.8735C86.582 75.8736 86.6624 75.8496 86.7313 75.8043C86.8002 75.759 86.8546 75.6944 86.8877 75.6183C86.9208 75.5423 86.9312 75.4582 86.9178 75.3763C86.9043 75.2944 86.8675 75.2182 86.8118 75.1571C83.73 71.6746 80.8776 67.9919 78.2727 64.1326C78.2434 64.0823 78.2043 64.0386 78.1577 64.0042C78.1111 63.9698 78.058 63.9454 78.0017 63.9325C77.9454 63.9196 77.8871 63.9184 77.8304 63.9292C77.7736 63.9399 77.7197 63.9622 77.6718 63.9948C77.624 64.0274 77.5832 64.0696 77.5521 64.1187C77.521 64.1678 77.5001 64.2228 77.4908 64.2804C77.4816 64.3379 77.4841 64.3968 77.4982 64.4533C77.5123 64.5099 77.5377 64.5629 77.5728 64.6091C80.2025 68.5039 83.0818 72.2205 86.1924 75.735C86.2316 75.7781 86.279 75.8126 86.3319 75.8364C86.3848 75.8602 86.4419 75.8728 86.4998 75.8735V75.8735Z" fill="#2654A5"/>
<path d="M81.0392 56.7323C81.1228 56.7322 81.2046 56.7071 81.2742 56.6601C81.3437 56.6131 81.3979 56.5463 81.4299 56.4682C81.4619 56.3901 81.4703 56.3042 81.454 56.2213C81.4377 56.1384 81.3975 56.0622 81.3383 56.0024C78.6335 53.105 76.1843 49.9746 74.0187 46.6468C73.9556 46.5538 73.8586 46.4897 73.749 46.4686C73.6394 46.4474 73.5259 46.4708 73.4333 46.5337C73.3407 46.5966 73.2764 46.6939 73.2544 46.8044C73.2324 46.915 73.2545 47.0298 73.3159 47.1239C75.512 50.4983 77.9964 53.672 80.7405 56.6086C80.82 56.6881 80.9273 56.7326 81.0392 56.7323V56.7323Z" fill="#2654A5"/>
<path d="M74.8379 39.2465C74.9235 39.2465 75.007 39.2202 75.0775 39.1713C75.148 39.1223 75.2022 39.0529 75.2329 38.9722C75.2636 38.8915 75.2694 38.8033 75.2494 38.7193C75.2295 38.6352 75.1848 38.5592 75.1213 38.5013C75.0968 38.4795 72.648 36.2214 68.7138 30.3062C68.6836 30.2578 68.6441 30.216 68.5976 30.1833C68.5512 30.1506 68.4987 30.1276 68.4433 30.1157C68.3878 30.1039 68.3306 30.1034 68.275 30.1142C68.2194 30.1251 68.1665 30.1472 68.1195 30.1791C68.0725 30.2109 68.0323 30.252 68.0013 30.2999C67.9703 30.3478 67.9491 30.4015 67.9389 30.4578C67.9288 30.5141 67.93 30.5718 67.9424 30.6277C67.9547 30.6835 67.9781 30.7362 68.0111 30.7828C72.0153 36.8029 74.4535 39.0444 74.555 39.1369C74.6326 39.2075 74.7334 39.2466 74.8379 39.2465Z" fill="#2654A5"/>
<path d="M98.4923 77.7214L98.4048 77.6265C98.3535 77.5817 93.6075 73.3325 83.5994 60.3268H89.941C90.2069 60.3268 90.4675 60.2518 90.6935 60.1102C90.9194 59.9687 91.1018 59.7663 91.2201 59.5257C91.3383 59.2852 91.3878 59.016 91.3628 58.7486C91.3378 58.4812 91.2395 58.2262 91.0788 58.0122L90.9907 57.9167C90.9487 57.8796 86.8454 54.2054 78.1605 42.752H83.5212C83.7513 42.7519 83.9767 42.6869 84.1723 42.5644C84.3678 42.442 84.5256 42.2668 84.6279 42.0587C84.7303 41.8505 84.7731 41.6177 84.7516 41.3863C84.7301 41.155 84.6451 40.9342 84.5062 40.749L84.4182 40.6541C84.3855 40.6253 81.0718 37.6568 74.0444 28.2953C73.8414 28.0249 73.6437 27.7592 73.4478 27.4964H78.2463C78.447 27.4965 78.6438 27.4399 78.8145 27.3331C78.9851 27.2263 79.1229 27.0735 79.2122 26.8919C79.3016 26.7103 79.3389 26.5071 79.3201 26.3052C79.3014 26.1033 79.2272 25.9108 79.1059 25.7491L78.9933 25.6313C78.9513 25.5971 74.6911 22.1444 70.1492 14.8942C67.4128 10.5484 65.4638 5.74536 64.3931 0.709729L64.3669 0.5542L64.273 0.429306C64.1724 0.295297 64.0425 0.186631 63.8934 0.111812C63.7444 0.0369943 63.5801 -0.00195312 63.4137 -0.00195312C63.2472 -0.00195312 63.083 0.0369943 62.9339 0.111812C62.7848 0.186631 62.6549 0.295297 62.5543 0.429306L62.4605 0.554794L62.4342 0.709729C61.3632 5.74517 59.414 10.548 56.6775 14.8937C52.1356 22.1444 47.8754 25.5971 47.8328 25.6313L47.7209 25.7491C47.5996 25.9108 47.5254 26.1033 47.5066 26.3052C47.4878 26.5071 47.5252 26.7103 47.6145 26.8919C47.7039 27.0735 47.8417 27.2263 48.0123 27.3331C48.183 27.4399 48.3797 27.4965 48.5805 27.4964H53.379C53.1846 27.7592 52.9857 28.0255 52.7824 28.2953C45.7549 37.6568 42.4413 40.6253 42.4086 40.6541L42.3205 40.749C42.1816 40.9343 42.0966 41.1551 42.0751 41.3865C42.0537 41.6179 42.0965 41.8508 42.1989 42.0589C42.3014 42.2671 42.4593 42.4422 42.6549 42.5647C42.8505 42.6871 43.076 42.752 43.3061 42.752H48.6651C39.9796 54.2066 35.8763 57.8796 35.8349 57.9167L35.7468 58.0122C35.5861 58.2262 35.4877 58.4812 35.4628 58.7486C35.4378 59.016 35.4873 59.2852 35.6055 59.5257C35.7238 59.7663 35.9062 59.9687 36.1321 60.1102C36.3581 60.2518 36.6187 60.3268 36.8846 60.3268H43.2227C33.2146 73.3325 28.468 77.5817 28.4178 77.6265L28.3298 77.7214C28.1446 77.9678 28.0312 78.2616 28.0024 78.5697C27.9736 78.8778 28.0306 79.1878 28.1669 79.4649C28.3032 79.742 28.5134 79.9752 28.7738 80.1381C29.0342 80.3011 29.3345 80.3873 29.6408 80.3871H56.912V90.3589C56.9121 90.529 56.9791 90.692 57.0982 90.8121C57.2173 90.9323 57.3787 90.9998 57.547 90.9998H69.0208V90.9963C69.1857 90.9925 69.3426 90.9236 69.458 90.8046C69.5734 90.6855 69.6381 90.5256 69.6384 90.3589V80.3871H97.1807C97.487 80.3872 97.7872 80.3009 98.0475 80.1379C98.3079 79.9749 98.518 79.7418 98.6542 79.4647C98.7904 79.1876 98.8473 78.8776 98.8185 78.5696C98.7897 78.2616 98.6763 77.9678 98.4912 77.7214H98.4923ZM97.5178 78.8943C97.4876 78.9582 97.44 79.0119 97.3804 79.0492C97.3209 79.0865 97.2519 79.1057 97.1819 79.1046H29.6419C29.5762 79.1046 29.5115 79.0872 29.4545 79.0541C29.3975 79.021 29.35 78.9734 29.317 78.9159C29.2839 78.8585 29.2663 78.7933 29.2661 78.7268C29.2658 78.6604 29.2828 78.595 29.3154 78.5373C29.9382 77.9741 34.8213 73.4185 44.8323 60.3268H63.4116C63.5767 60.3217 63.7332 60.252 63.8482 60.1323C63.9632 60.0126 64.0275 59.8523 64.0275 59.6855C64.0275 59.5188 63.9632 59.3585 63.8482 59.2388C63.7332 59.1191 63.5767 59.0494 63.4116 59.0443H36.8823C36.8526 59.0453 36.8233 59.0374 36.798 59.0216C36.7728 59.0058 36.7528 58.9827 36.7405 58.9553C36.7297 58.9349 36.7235 58.9123 36.7226 58.8891C36.7217 58.8659 36.7261 58.8428 36.7353 58.8216C37.3325 58.2785 41.5886 54.2655 50.2601 42.752H63.2373C63.3222 42.7546 63.4069 42.7399 63.4861 42.7089C63.5654 42.6778 63.6377 42.631 63.6987 42.5712C63.7597 42.5114 63.8083 42.4398 63.8414 42.3607C63.8745 42.2816 63.8916 42.1966 63.8916 42.1107C63.8916 42.0248 63.8745 41.9398 63.8414 41.8607C63.8083 41.7816 63.7597 41.7101 63.6987 41.6503C63.6377 41.5905 63.5654 41.5436 63.4861 41.5126C63.4069 41.4815 63.3222 41.4669 63.2373 41.4695H43.4053C44.157 40.7625 47.4561 37.5101 53.7925 29.0693C54.198 28.5297 54.5881 28.0052 54.9629 27.4958H63.2373C63.3222 27.4984 63.4069 27.4838 63.4861 27.4527C63.5654 27.4217 63.6377 27.3749 63.6987 27.3151C63.7597 27.2553 63.8083 27.1837 63.8414 27.1046C63.8745 27.0255 63.8916 26.9405 63.8916 26.8546C63.8916 26.7687 63.8745 26.6837 63.8414 26.6046C63.8083 26.5255 63.7597 26.4539 63.6987 26.3941C63.6377 26.3343 63.5654 26.2875 63.4861 26.2565C63.4069 26.2254 63.3222 26.2108 63.2373 26.2134H49.117C52.4666 23.0894 55.3714 19.5115 57.7483 15.5817C60.33 11.4617 62.2419 6.9505 63.4111 2.2196C64.5805 6.95041 66.4923 11.4616 69.0738 15.5817C71.4509 19.5113 74.3556 23.0892 77.705 26.2134H68.5122C68.3472 26.2184 68.1906 26.2882 68.0756 26.4079C67.9607 26.5276 67.8964 26.6878 67.8964 26.8546C67.8964 27.0214 67.9607 27.1816 68.0756 27.3013C68.1906 27.421 68.3472 27.4908 68.5122 27.4958H71.8597C72.2353 28.0064 72.6257 28.5309 73.0308 29.0693C79.3672 37.5101 82.6663 40.7649 83.418 41.4695H72.5281C72.3631 41.4745 72.2064 41.5443 72.0915 41.664C71.9765 41.7837 71.9122 41.9439 71.9122 42.1107C71.9122 42.2775 71.9765 42.4377 72.0915 42.5574C72.2064 42.6771 72.3631 42.7469 72.5281 42.752H76.5638C85.2358 54.2661 89.4914 58.2791 90.088 58.8216C90.0979 58.8461 90.1017 58.8726 90.0991 58.8989C90.0965 58.9252 90.0876 58.9504 90.0731 58.9724C90.0586 58.9944 90.0389 59.0125 90.0159 59.025C89.9929 59.0375 89.9671 59.0442 89.941 59.0443H79.6343C79.5493 59.0417 79.4647 59.0564 79.3854 59.0874C79.3061 59.1185 79.2338 59.1653 79.1728 59.2251C79.1117 59.2849 79.0632 59.3565 79.0301 59.4356C78.997 59.5147 78.9799 59.5997 78.9799 59.6855C78.9799 59.7714 78.997 59.8565 79.0301 59.9355C79.0632 60.0146 79.1117 60.0862 79.1728 60.146C79.2338 60.2058 79.3061 60.2526 79.3854 60.2837C79.4647 60.3147 79.5493 60.3294 79.6343 60.3268H81.9909C92.0026 73.4197 96.8862 77.9747 97.5079 78.5379C97.5393 78.5916 97.5568 78.6524 97.5585 78.7148C97.5602 78.7771 97.5462 78.8389 97.5178 78.8943V78.8943Z" fill="#2654A5"/>
<path d="M65.5271 89.5126C65.4715 89.5126 65.4165 89.5015 65.3652 89.48C65.3138 89.4585 65.2672 89.427 65.2279 89.3873C65.1886 89.3476 65.1575 89.3004 65.1363 89.2485C65.1151 89.1967 65.1042 89.1411 65.1043 89.0849V81.4177C65.1022 81.3602 65.1115 81.3029 65.1318 81.2492C65.1522 81.1955 65.183 81.1465 65.2225 81.1051C65.262 81.0636 65.3094 81.0307 65.3618 81.0082C65.4141 80.9857 65.4705 80.9741 65.5274 80.9741C65.5843 80.9741 65.6407 80.9857 65.693 81.0082C65.7454 81.0307 65.7928 81.0636 65.8323 81.1051C65.8718 81.1465 65.9026 81.1955 65.9229 81.2492C65.9432 81.3029 65.9526 81.3602 65.9505 81.4177V89.0849C65.9506 89.1411 65.9397 89.1968 65.9184 89.2487C65.8972 89.3006 65.866 89.3478 65.8267 89.3875C65.7873 89.4272 65.7406 89.4588 65.6892 89.4802C65.6378 89.5017 65.5827 89.5127 65.5271 89.5126V89.5126Z" fill="#A1C2E6"/>
<path d="M60.9705 89.5127C60.9149 89.5127 60.8599 89.5016 60.8085 89.4801C60.7572 89.4586 60.7105 89.4271 60.6713 89.3873C60.632 89.3476 60.6009 89.3005 60.5797 89.2486C60.5585 89.1967 60.5476 89.1411 60.5477 89.085V87.3088C60.5455 87.2513 60.5549 87.194 60.5752 87.1403C60.5956 87.0866 60.6264 87.0376 60.6659 86.9962C60.7054 86.9548 60.7527 86.9218 60.8051 86.8993C60.8575 86.8768 60.9138 86.8652 60.9708 86.8652C61.0277 86.8652 61.084 86.8768 61.1364 86.8993C61.1888 86.9218 61.2361 86.9548 61.2756 86.9962C61.3151 87.0376 61.346 87.0866 61.3663 87.1403C61.3866 87.194 61.396 87.2513 61.3939 87.3088V89.085C61.3939 89.1411 61.383 89.1968 61.3618 89.2487C61.3405 89.3006 61.3094 89.3478 61.27 89.3875C61.2307 89.4273 61.184 89.4588 61.1326 89.4803C61.0812 89.5017 61.0261 89.5127 60.9705 89.5127V89.5127Z" fill="#A1C2E6"/>
<path d="M66.8789 90.9998H89.1708C93.7197 90.9998 95.5322 88.1963 67.3379 88.1963L66.8789 90.9998Z" fill="#2654A5"/>
</g>
<defs>
<clipPath id="clip0_149:968">
<rect width="115" height="91" fill="white"/>
</clipPath>
</defs>
</svg>
